{"glyphs":{":":{"x_min":0,"x_max":207,"ha":207,"o":"m 155 421 b 152 423 149 425 144 428 b 140 430 132 435 124 440 b 116 445 109 450 107 452 b 106 453 95 457 94 456 b 93 455 77 450 72 450 b 66 449 63 448 61 447 b 57 444 55 440 56 435 b 57 431 64 425 71 420 b 78 415 85 409 88 405 b 89 404 101 402 104 403 b 122 407 146 408 154 412 b 158 414 159 417 155 421 z m 89 426 b 85 426 87 438 90 433 b 90 433 92 426 89 426 z m 95 416 b 95 416 97 422 99 428 b 102 434 104 440 105 440 b 105 440 107 434 106 428 b 106 422 104 416 95 416 z m 123 415 l 115 415 l 116 416 b 116 416 117 417 117 419 b 118 420 120 422 121 423 b 124 427 127 430 127 430 b 128 430 128 429 128 428 b 131 423 137 414 123 415 z m 150 164 b 148 166 144 168 138 171 b 135 172 126 176 118 180 b 109 185 102 189 100 191 b 98 192 87 195 87 194 b 86 192 70 187 65 186 b 60 185 57 184 55 182 b 51 179 49 175 50 171 b 52 166 59 161 66 157 b 74 152 82 147 85 144 b 86 143 98 142 101 142 b 118 148 143 151 150 155 b 154 158 155 160 150 164 z m 84 164 b 80 164 81 175 85 171 b 85 171 87 164 84 164 z m 91 154 b 91 154 92 160 94 167 b 96 173 98 179 99 179 b 99 179 101 173 101 167 b 102 161 100 155 91 154 z m 119 155 l 111 155 l 112 156 b 112 156 112 157 113 159 b 114 160 115 162 116 164 b 119 168 121 171 121 171 b 122 171 123 170 123 169 b 127 165 133 156 119 155 z"},"$":{"x_min":0,"x_max":564,"ha":564,"o":"m 513 97 b 512 108 509 118 506 127 b 503 137 499 145 495 154 b 492 162 488 170 483 177 b 465 208 444 234 421 258 b 391 290 359 319 327 346 b 327 350 328 355 328 360 b 331 400 333 441 335 481 b 337 521 338 561 337 601 b 336 620 336 661 336 708 b 382 715 432 712 477 697 b 487 693 495 693 498 695 b 501 698 499 703 485 710 b 439 731 388 742 335 741 b 335 743 335 745 335 747 b 336 808 337 869 338 893 b 340 911 329 919 325 896 b 322 876 309 820 296 764 b 294 755 292 747 290 738 b 235 730 180 709 132 673 b 119 663 106 652 95 638 b 84 625 73 609 66 591 b 59 573 56 552 57 531 b 59 510 65 491 73 474 b 82 457 91 443 101 429 b 106 423 111 416 116 410 b 121 404 126 398 131 392 b 152 368 174 346 196 325 b 204 318 212 310 220 303 b 220 289 219 276 219 262 b 219 194 224 124 233 55 b 233 55 232 56 232 56 b 214 65 196 77 179 90 b 146 117 117 151 98 184 b 96 188 93 192 91 195 b 89 199 87 203 85 207 b 84 209 83 211 82 213 b 81 215 80 216 80 218 b 78 222 76 225 75 229 b 70 243 65 254 64 263 b 62 270 62 277 62 282 b 62 287 62 290 61 291 b 60 293 58 292 55 288 b 52 284 49 277 50 265 b 50 260 51 254 53 248 b 54 243 55 237 57 230 b 59 223 61 215 64 207 b 65 203 66 199 68 195 b 70 191 71 187 73 182 b 80 165 89 146 100 128 b 111 109 124 91 138 74 b 153 56 169 40 185 26 b 202 12 219 0 236 -10 b 239 -12 242 -14 245 -16 b 259 -93 278 -169 298 -242 b 302 -257 316 -261 314 -241 b 313 -231 311 -221 310 -211 l 308 -181 l 306 -151 b 305 -140 305 -130 305 -120 b 304 -94 304 -68 304 -42 b 309 -44 314 -45 318 -46 b 335 -51 353 -54 372 -54 b 392 -54 412 -50 432 -42 b 434 -41 437 -40 439 -38 l 446 -35 b 451 -32 455 -29 460 -26 b 469 -20 477 -12 485 -4 b 492 5 499 15 504 27 b 509 38 512 50 514 62 b 515 74 515 86 513 97 z m 324 306 b 330 301 335 296 340 291 b 369 266 394 240 406 227 b 412 220 415 216 414 217 b 412 218 407 224 395 235 b 395 235 393 237 388 242 b 384 246 377 253 370 260 b 357 272 341 286 324 301 b 324 303 324 304 324 306 z m 321 262 b 321 262 321 261 322 261 b 348 236 375 210 396 184 b 406 171 416 158 423 145 b 431 133 437 120 441 108 b 446 97 447 86 448 77 b 448 68 446 61 444 55 b 442 49 439 45 437 43 b 435 40 434 38 434 38 b 436 42 440 48 442 56 b 445 64 446 74 444 86 b 441 100 435 116 424 132 b 414 149 401 167 386 184 b 371 201 353 218 334 235 b 329 239 325 244 320 248 b 320 253 320 257 321 262 z m 222 333 b 202 351 183 368 167 385 b 151 402 138 417 127 432 b 116 446 107 460 101 472 b 93 490 87 509 86 528 b 90 509 98 491 108 475 b 108 475 110 472 112 468 b 115 464 119 459 124 452 b 135 438 151 420 170 400 b 186 384 203 367 223 350 b 222 344 222 338 222 333 z m 224 366 b 193 395 163 424 139 454 b 125 471 113 489 106 508 b 102 517 100 527 99 536 b 98 545 99 554 100 562 b 103 578 110 591 117 602 b 125 612 132 620 139 625 b 139 625 138 625 137 624 b 136 623 135 621 133 618 b 129 614 124 607 118 597 b 115 592 113 587 110 580 b 108 574 106 567 105 560 b 104 552 104 544 105 536 b 106 528 108 519 112 510 b 119 492 131 475 146 457 b 161 439 178 421 196 404 b 205 394 215 385 225 376 b 225 373 224 370 224 366 z m 226 387 b 222 391 219 394 218 395 b 218 396 220 394 226 389 b 226 389 226 388 226 387 z m 241 510 b 237 483 233 456 230 428 b 226 432 222 435 218 439 l 202 454 b 197 459 192 464 187 469 b 182 474 177 479 172 484 b 168 489 163 494 159 499 b 151 509 145 519 141 528 b 139 532 138 537 137 541 b 136 546 135 550 135 555 b 136 564 138 574 143 585 b 148 595 155 606 163 616 b 168 621 172 626 177 630 b 182 635 187 640 193 644 b 198 649 204 653 209 657 b 215 661 221 664 227 668 b 244 678 261 687 280 693 b 274 666 268 643 265 632 b 255 592 247 551 241 510 z m 254 249 b 253 233 253 222 252 220 b 251 218 251 232 251 254 b 251 260 251 267 251 275 b 253 274 254 273 255 272 b 255 263 254 256 254 249 z m 256 305 b 256 304 256 304 256 303 b 255 304 254 305 252 306 b 253 312 253 317 253 322 b 254 321 256 320 257 319 b 257 314 256 310 256 305 z m 258 337 b 257 338 255 339 254 340 b 255 343 255 346 255 349 b 256 348 257 347 258 347 b 258 343 258 340 258 337 z m 259 357 b 258 358 257 359 256 360 b 256 361 256 362 256 364 b 257 363 258 362 259 361 b 259 360 259 358 259 357 z m 270 252 b 269 217 268 183 268 152 b 267 107 267 67 267 40 b 266 40 265 41 264 41 b 264 41 264 41 264 41 b 263 49 263 59 262 70 b 262 82 261 95 261 109 b 260 152 260 207 263 264 b 265 262 268 260 270 258 b 270 256 270 254 270 252 z m 272 290 b 269 292 267 294 264 296 b 265 301 265 306 265 312 b 268 309 270 307 272 305 b 272 300 272 295 272 290 z m 273 323 b 271 325 269 327 267 329 b 267 332 267 335 267 339 b 269 337 272 335 274 333 b 274 330 273 327 273 323 z m 274 343 b 272 345 270 347 268 349 b 268 350 268 352 268 353 b 270 352 272 350 275 348 b 275 346 274 345 274 343 z m 271 392 b 282 514 298 619 299 628 b 299 628 298 620 297 605 b 295 591 293 571 291 546 b 286 503 281 447 277 388 b 275 389 273 391 271 392 z m 288 128 b 285 116 283 104 281 92 b 280 104 280 117 280 129 b 280 129 280 136 280 147 b 281 159 281 174 281 194 b 282 209 282 227 283 246 b 288 242 292 238 296 235 b 294 189 292 151 288 128 z m 297 268 b 293 271 289 275 285 278 b 285 283 286 288 286 293 b 290 290 294 286 298 283 b 298 278 297 273 297 268 z m 299 301 b 295 305 291 308 287 311 b 288 314 288 317 288 320 b 292 317 295 314 299 311 b 299 308 299 305 299 301 z m 300 322 b 296 325 292 328 289 331 b 289 331 289 332 289 332 b 289 334 289 335 289 336 b 293 333 296 330 300 327 b 300 325 300 323 300 322 z m 303 401 b 303 390 302 379 302 367 b 299 369 296 372 293 374 b 296 410 300 443 303 470 b 308 508 311 533 311 533 b 311 525 310 509 308 487 b 307 464 305 434 303 401 z m 306 28 b 309 90 313 152 317 215 b 321 211 324 208 328 205 b 348 185 367 165 383 145 b 398 125 412 102 416 85 b 419 77 419 70 418 65 b 417 60 414 54 409 48 b 407 46 406 45 404 43 b 403 42 401 41 399 39 b 397 38 395 37 393 36 b 391 34 389 33 387 32 b 378 28 368 26 356 24 b 350 24 340 23 327 24 b 321 25 314 26 306 28 z m 463 39 b 453 18 436 5 419 -4 b 402 -12 386 -15 372 -16 b 358 -17 347 -16 339 -15 b 330 -14 325 -13 323 -13 b 323 -13 326 -13 332 -14 b 335 -14 338 -15 342 -15 b 346 -16 351 -16 357 -16 b 367 -16 381 -15 395 -11 b 410 -7 426 0 440 13 b 447 20 453 27 458 36 b 463 45 467 56 468 66 b 470 88 463 111 452 132 b 442 153 428 173 412 192 b 396 212 378 230 359 248 b 347 259 335 270 322 281 b 322 284 323 287 323 290 b 341 274 359 257 376 240 b 395 221 414 200 429 179 b 437 168 444 157 450 146 b 457 134 462 123 466 111 b 470 99 472 86 472 74 b 472 62 469 50 463 39 z"},"?":{"x_min":0,"x_max":613,"ha":613,"o":"m 563 741 b 562 750 561 759 559 768 b 557 777 554 786 550 794 b 543 811 533 826 522 838 b 511 851 498 862 484 870 b 477 875 470 879 463 882 b 459 884 455 885 451 887 b 448 888 444 890 440 891 b 411 900 381 903 354 901 b 326 900 300 894 275 886 b 268 884 258 880 246 875 b 234 870 220 864 206 856 b 177 841 146 818 119 792 b 105 779 93 765 82 750 b 72 736 64 720 58 706 b 52 692 49 678 51 667 b 51 662 54 657 57 654 b 59 650 63 648 65 647 b 70 644 75 645 78 646 b 81 647 83 648 84 649 b 85 650 85 650 84 650 b 83 651 80 651 76 652 b 73 654 68 658 68 665 b 68 666 67 668 68 670 b 68 672 68 673 69 675 b 70 679 72 684 75 689 b 87 711 109 734 134 752 b 159 770 188 784 212 793 b 237 802 258 806 268 807 b 311 813 356 815 391 805 b 399 803 408 799 415 796 b 422 792 429 787 434 782 b 446 772 454 759 457 747 b 460 736 459 720 455 700 b 451 680 444 659 436 639 b 428 618 419 596 409 574 b 399 552 389 530 379 507 b 358 462 336 416 317 369 b 297 322 279 273 266 224 b 253 174 244 124 241 73 b 240 55 252 45 256 69 b 264 117 280 162 299 205 b 319 248 342 288 367 329 b 392 369 419 408 445 449 b 458 469 471 490 484 511 b 496 532 508 554 520 577 b 531 601 541 625 549 652 b 553 665 557 678 560 693 b 562 708 564 724 563 741 z m 463 619 b 472 642 483 673 488 701 b 491 715 492 728 491 739 b 490 750 488 758 486 763 b 485 766 484 768 484 769 b 483 771 483 771 484 771 b 484 770 485 769 486 767 b 487 765 488 764 488 762 b 489 760 490 758 491 756 b 491 756 491 755 491 754 b 491 753 492 751 492 749 b 493 745 494 739 494 731 b 494 724 494 715 492 705 b 491 695 488 684 485 673 b 474 629 452 586 449 583 b 447 581 454 596 463 619 z m 343 366 b 343 366 348 376 357 393 b 366 410 379 434 395 463 b 411 492 430 526 449 562 b 468 599 486 640 497 682 b 502 703 506 725 503 746 b 501 766 491 785 478 801 b 465 816 449 828 432 836 b 415 844 397 848 380 850 b 346 855 317 851 296 848 b 275 845 262 841 259 840 b 259 840 261 841 265 842 b 267 843 270 843 273 844 b 276 845 280 846 284 847 b 300 850 324 855 354 855 b 368 855 384 854 401 850 b 418 846 435 840 451 831 b 467 821 482 807 493 790 b 498 782 503 773 506 763 b 509 753 510 743 511 732 b 511 711 507 690 501 670 b 496 650 488 630 480 611 b 464 572 445 537 427 505 b 409 473 392 444 377 420 b 363 396 351 378 343 366 z m 533 688 b 530 677 528 666 525 655 b 512 612 493 573 476 542 b 458 510 442 485 430 470 l 403 436 l 424 474 b 424 475 428 481 435 493 b 442 505 451 522 462 542 b 472 562 485 586 496 613 b 507 640 518 669 523 700 b 526 716 528 733 525 750 b 523 767 517 783 509 797 b 501 811 491 822 480 832 b 469 842 458 849 447 855 b 424 866 404 871 390 873 b 383 875 377 875 373 876 b 370 876 368 876 368 876 b 373 876 381 876 391 875 b 401 874 413 871 426 867 b 441 863 458 855 474 844 b 491 832 507 816 519 796 b 525 785 530 774 533 761 b 536 749 537 736 537 724 b 536 711 535 700 533 688 z m 288 -53 b 284 -50 276 -45 268 -38 b 260 -32 253 -25 251 -23 b 250 -21 239 -18 238 -19 b 238 -21 233 -24 228 -28 b 223 -32 217 -36 214 -37 b 208 -39 205 -42 203 -46 b 199 -52 197 -59 198 -67 b 199 -74 206 -82 214 -90 b 221 -97 230 -104 234 -110 b 234 -111 247 -112 249 -110 b 258 -104 268 -98 277 -93 b 286 -88 294 -83 298 -78 b 301 -73 303 -69 298 -63 b 296 -60 293 -56 288 -53 z m 231 -73 b 230 -74 229 -69 229 -64 b 230 -60 231 -57 233 -60 b 233 -60 233 -64 233 -67 b 233 -70 233 -73 231 -73 z m 238 -90 b 238 -90 240 -78 242 -67 b 244 -55 247 -44 248 -43 b 248 -43 249 -54 249 -64 b 249 -75 247 -87 238 -90 z m 266 -83 l 258 -85 l 259 -83 b 259 -83 260 -81 261 -78 b 262 -75 263 -72 264 -68 b 267 -61 270 -54 270 -54 b 271 -55 271 -56 272 -58 b 275 -65 281 -80 266 -83 z"},"<":{"x_min":0,"x_max":384,"ha":384,"o":"m 328 193 b 292 201 256 210 222 221 b 205 226 188 231 173 237 b 166 239 160 242 155 245 b 154 246 154 246 154 246 b 154 247 154 247 154 247 b 154 248 154 248 154 249 b 154 250 155 251 156 251 b 156 252 158 256 160 260 b 161 262 162 265 164 268 b 166 271 168 275 170 278 b 178 291 186 304 194 319 b 199 328 212 350 231 370 b 249 390 273 407 282 412 b 290 416 290 428 280 425 b 270 423 243 418 217 409 b 203 405 190 399 179 395 b 168 390 159 386 154 384 b 135 375 118 363 103 348 b 99 344 95 341 92 337 b 88 333 85 329 81 324 b 73 315 66 305 60 291 b 53 275 49 257 50 239 b 52 221 58 204 69 190 b 80 176 96 166 113 160 b 115 159 117 158 119 157 b 121 157 123 156 125 156 b 128 155 131 154 135 154 b 141 153 147 152 153 152 b 159 152 165 152 169 153 b 175 153 180 153 185 154 b 195 155 205 156 214 158 b 254 164 291 173 328 178 b 335 179 337 192 328 193 z m 150 297 b 147 293 144 288 141 283 b 138 278 136 273 133 268 b 133 266 132 265 132 264 b 131 262 131 261 130 260 b 130 258 130 256 129 254 b 129 250 129 246 130 243 b 132 235 138 230 144 227 b 146 225 151 222 155 220 b 159 218 163 216 166 214 b 170 211 175 208 180 205 b 175 205 170 206 165 207 b 164 207 162 208 157 209 b 155 209 152 210 149 211 b 146 212 143 213 140 214 b 134 217 128 221 123 227 b 119 234 116 242 118 250 b 118 254 119 258 121 261 b 122 265 125 269 127 273 b 132 281 137 287 143 293 b 145 296 148 299 150 301 b 152 304 154 306 156 307 b 159 310 161 312 161 312 b 160 309 156 304 150 297 z m 110 196 b 107 197 102 201 98 205 b 94 210 89 216 86 223 b 83 231 82 239 82 247 b 82 255 84 262 86 269 b 88 275 90 280 92 283 b 95 288 95 288 92 277 b 92 277 91 276 90 274 b 90 271 89 268 88 264 b 86 255 85 244 87 233 b 90 222 96 212 102 205 b 109 199 114 195 115 194 b 115 193 113 194 110 196 z m 201 183 b 194 184 183 185 171 186 b 164 187 158 188 150 190 b 147 191 143 192 139 193 b 135 194 131 196 127 198 b 119 202 111 207 105 214 b 100 222 96 231 95 240 b 94 250 96 259 99 268 b 100 270 101 272 102 274 b 103 276 104 278 105 280 b 107 284 109 288 111 291 b 116 298 121 304 126 310 b 128 313 131 315 133 318 b 135 321 138 323 140 325 b 159 344 174 355 176 357 b 176 357 175 356 174 355 b 172 354 171 352 168 350 b 163 346 157 339 149 331 b 142 323 133 313 125 301 b 116 290 108 276 104 261 b 102 253 101 245 103 237 b 104 230 108 222 113 217 b 124 205 139 200 152 197 b 159 195 166 194 172 193 b 178 191 183 190 188 189 b 199 187 207 185 212 182 b 212 182 208 183 201 183 z"},"'":{"x_min":0,"x_max":267,"ha":267,"o":"m 205 836 b 183 819 160 803 139 784 b 118 766 99 745 84 722 b 70 699 58 673 53 645 b 52 639 51 632 50 625 b 50 618 50 610 51 603 b 52 595 54 573 58 551 b 59 541 61 530 62 521 b 64 512 65 505 65 501 b 65 495 76 491 78 498 b 79 501 81 507 84 514 b 88 520 92 529 96 537 b 101 545 105 552 110 559 b 114 565 118 570 120 573 b 129 583 135 594 141 605 b 153 627 164 650 172 673 b 181 697 186 723 193 749 b 199 776 206 803 217 826 b 219 831 210 840 205 836 z m 83 639 b 78 627 75 620 75 620 b 75 622 76 628 78 634 b 79 642 82 651 85 662 b 88 672 92 684 97 694 b 106 716 117 735 129 741 b 133 743 137 746 141 748 b 139 744 137 741 135 738 b 135 738 134 736 132 733 b 130 729 127 725 124 719 b 121 714 118 708 114 701 b 110 694 106 687 103 679 b 99 672 95 665 92 658 b 89 651 86 644 83 639 z m 144 688 b 142 682 139 674 135 666 b 129 651 123 639 126 652 b 126 652 127 655 129 659 b 130 664 132 670 135 675 b 140 687 145 698 147 699 b 148 699 147 695 144 688 z m 166 753 b 163 748 160 742 155 734 b 147 719 136 698 126 676 b 115 654 106 632 99 615 b 96 606 93 599 91 593 b 89 588 87 584 87 584 b 87 584 88 586 89 591 b 90 595 92 601 94 609 b 99 624 105 645 114 666 b 130 708 155 751 170 760 b 170 760 168 757 166 753 z"},"=":{"x_min":0,"x_max":539,"ha":539,"o":"m 486 311 b 431 344 367 373 306 383 b 275 389 241 392 208 386 b 192 384 175 380 159 372 b 154 370 146 366 136 361 b 127 355 116 349 105 342 b 83 329 63 316 55 312 b 48 308 48 297 57 298 b 64 300 87 301 108 301 b 130 301 151 299 158 297 b 173 293 187 291 201 290 b 230 287 260 284 291 283 b 323 283 355 289 387 293 b 418 297 451 300 481 296 b 487 295 493 307 486 311 z m 207 359 b 225 361 254 363 282 362 b 309 361 335 357 347 349 l 360 340 l 346 342 b 345 342 336 343 321 345 b 306 347 287 349 268 351 b 248 353 228 355 214 356 b 199 357 189 357 189 357 b 192 358 198 359 207 359 z m 267 316 b 247 317 231 319 247 320 b 247 320 262 320 277 320 b 292 319 307 318 309 316 b 310 314 287 315 267 316 z m 352 322 b 331 324 302 326 274 329 b 245 331 216 332 194 332 b 172 332 156 331 154 331 b 154 331 157 331 163 332 b 168 333 176 334 185 335 b 204 336 230 337 257 336 b 284 336 312 334 336 331 b 359 328 378 323 387 318 b 387 318 373 320 352 322 z m 463 190 b 435 202 407 215 378 225 b 349 235 318 242 288 244 b 257 246 226 244 196 235 b 182 230 168 224 155 216 b 147 211 127 199 107 187 b 87 175 66 164 58 161 b 52 159 50 148 58 148 b 66 148 87 147 109 145 b 130 144 151 142 158 141 b 174 138 188 137 202 138 b 230 138 258 140 286 143 b 314 147 342 154 372 161 b 401 168 431 175 461 175 b 466 175 470 187 463 190 z m 199 207 b 215 212 242 218 268 220 b 293 222 318 221 330 214 b 334 212 339 209 343 206 b 339 207 334 207 330 207 b 330 207 327 207 323 207 b 319 207 313 208 306 208 b 292 208 274 208 256 207 b 237 207 219 206 205 205 b 192 204 182 203 182 203 b 185 204 191 206 199 207 z m 260 173 b 242 171 227 170 241 174 b 241 174 245 174 250 175 b 255 176 262 177 268 177 b 282 179 297 179 298 178 b 300 176 278 174 260 173 z m 361 187 b 355 187 347 187 337 187 b 317 188 291 187 264 186 b 211 183 157 175 153 175 b 153 175 164 177 182 181 b 199 184 223 189 248 191 b 273 194 299 195 321 195 b 344 194 361 191 370 186 b 370 186 367 186 361 187 z"},"a":{"x_min":0,"x_max":443,"ha":443,"o":"m 472 218 b 469 220 465 219 459 210 b 452 200 445 190 437 180 b 433 175 429 171 425 166 l 419 159 b 417 157 415 155 414 153 b 407 147 400 140 391 138 b 387 137 383 137 379 139 b 374 141 371 144 368 147 b 363 154 360 162 359 169 b 358 169 358 170 358 171 l 358 172 l 357 174 b 357 177 356 179 355 182 b 354 187 354 192 354 198 l 353 204 l 352 212 b 352 217 351 222 351 227 b 350 237 349 246 346 255 b 344 264 341 272 337 279 b 333 286 328 292 321 297 b 317 300 311 303 306 304 b 300 305 295 306 290 306 b 285 305 280 304 275 303 b 272 302 270 301 267 300 b 265 299 262 298 260 297 l 252 293 l 250 292 b 249 291 249 291 248 290 l 244 287 b 239 283 234 280 229 274 l 222 267 l 218 263 l 215 259 b 210 254 205 248 200 243 l 197 238 l 195 236 b 194 234 192 232 191 231 l 183 220 l 175 210 l 168 200 b 159 187 150 175 141 163 b 138 159 135 156 132 152 b 130 149 127 146 124 143 b 121 140 118 136 115 134 l 111 129 b 109 128 108 127 107 126 b 102 122 97 119 94 119 b 94 119 94 119 94 119 b 94 119 94 119 94 119 b 94 119 94 119 94 119 b 94 119 94 119 94 118 b 94 118 94 119 93 119 b 91 121 88 126 85 131 b 79 142 74 156 72 170 b 68 200 75 235 85 271 b 88 282 94 301 104 322 b 109 333 116 345 123 357 b 131 368 140 379 151 390 b 171 410 197 427 223 432 b 229 434 235 434 242 434 b 248 433 253 432 258 431 b 269 428 276 422 281 418 b 289 411 295 405 298 406 b 300 406 301 407 300 411 b 300 414 298 419 293 425 b 288 431 281 438 270 444 b 265 447 259 450 252 452 b 248 453 245 454 241 454 b 237 455 233 455 230 456 b 214 457 198 454 182 450 b 174 447 167 444 159 441 b 155 440 152 438 148 436 l 142 433 l 137 430 b 122 422 109 413 97 403 b 85 392 74 382 65 372 b 47 351 34 333 28 324 b 21 314 15 305 10 294 b 4 284 -1 274 -6 263 b -15 241 -21 217 -24 191 b -27 161 -24 130 -12 99 b -10 91 -6 83 -2 76 b 2 68 7 61 14 53 b 17 50 20 46 24 42 b 29 38 33 34 38 31 b 48 24 59 19 70 17 b 79 15 88 14 97 14 b 106 14 114 16 123 18 b 127 20 131 21 135 23 b 139 24 142 26 145 28 b 151 31 157 35 162 38 b 173 46 182 55 189 62 b 196 70 203 78 209 87 b 234 119 250 152 266 180 l 270 186 l 270 186 l 270 186 l 270 187 l 270 187 b 270 188 270 189 271 190 b 271 191 272 193 273 195 b 274 197 275 200 277 202 b 279 204 282 206 285 205 b 288 205 289 202 291 199 b 293 195 294 192 297 186 b 299 179 301 172 304 165 b 305 162 307 158 309 155 l 311 150 b 312 148 314 145 315 143 b 324 127 335 113 350 104 b 357 100 365 97 373 96 b 381 95 390 96 397 99 b 412 106 423 119 433 132 b 435 136 438 139 440 143 l 445 151 b 448 156 451 162 454 167 b 461 179 466 190 472 201 b 475 208 475 215 472 218 z m 71 103 b 73 101 74 100 76 98 b 77 98 78 97 79 96 b 82 94 85 93 88 92 b 91 92 94 92 97 92 b 98 93 100 93 101 94 b 102 94 103 94 103 94 l 106 95 b 113 99 120 105 127 111 b 142 126 155 143 167 160 b 179 177 190 193 201 207 b 203 211 206 214 209 218 b 210 219 211 221 213 222 b 214 224 215 225 217 227 b 220 231 223 234 226 237 b 229 240 232 243 235 245 b 247 256 258 263 269 268 b 258 260 248 250 238 238 b 234 234 231 229 227 224 b 223 219 220 215 217 211 b 211 203 206 194 200 186 b 189 169 178 152 167 137 b 164 133 161 129 158 126 l 153 120 l 148 115 b 145 112 142 108 138 105 b 135 102 132 99 128 96 b 121 91 114 86 107 84 b 100 82 93 81 86 83 b 81 84 76 86 73 90 b 72 91 71 91 70 92 b 69 93 68 94 67 95 b 65 97 63 100 62 102 b 55 112 50 124 46 137 b 43 149 42 162 42 175 b 42 188 44 201 47 214 b 47 207 44 192 45 172 b 46 158 49 141 57 125 b 61 117 66 109 71 103 z m 178 98 b 175 95 172 91 169 88 b 166 85 163 82 160 78 b 153 72 146 66 137 60 b 133 57 128 55 124 53 b 119 51 113 49 108 48 b 97 45 87 46 78 48 b 67 51 58 56 52 61 b 50 62 49 63 48 64 b 46 65 45 67 44 67 b 43 69 41 71 41 72 b 39 74 39 74 41 72 b 42 71 44 70 47 68 b 49 65 53 63 57 60 b 57 60 59 59 63 57 b 66 55 71 52 78 51 b 85 49 93 49 102 50 b 110 51 120 55 128 59 b 136 63 143 69 150 74 b 157 80 163 87 168 93 b 179 105 188 117 195 126 b 202 135 206 141 208 142 b 210 144 198 123 178 98 z m 312 228 b 311 230 311 232 310 236 b 309 238 308 240 307 242 b 306 245 305 248 302 250 b 302 250 300 252 296 253 b 294 254 291 254 288 254 b 285 253 282 252 279 250 b 275 248 272 245 269 242 b 267 240 265 238 263 237 b 262 235 260 233 258 231 b 256 229 254 227 253 225 b 251 222 249 220 247 218 b 243 213 240 209 235 202 b 218 177 201 146 178 117 b 175 113 172 110 169 106 b 166 102 163 99 159 95 b 156 92 153 89 149 85 b 146 82 142 79 138 76 b 130 70 121 65 111 62 b 106 60 101 59 96 59 b 91 59 86 59 81 61 b 71 63 62 68 55 75 b 48 81 42 89 38 96 b 29 112 24 128 21 144 b 18 160 18 175 19 189 b 20 204 22 217 26 229 b 32 253 40 271 46 285 b 49 291 52 297 54 301 b 56 305 58 307 58 308 b 58 308 54 301 49 288 b 43 275 35 256 29 232 b 23 207 19 177 25 146 b 28 130 34 114 43 99 b 47 92 52 85 59 79 b 66 73 73 69 82 67 b 90 65 97 65 105 67 b 112 69 119 72 126 76 b 132 80 138 85 144 90 b 146 93 149 96 152 98 b 154 101 157 104 159 107 b 179 129 195 155 210 178 b 218 190 226 201 234 212 b 241 222 249 232 257 240 b 261 244 265 247 269 251 b 272 254 277 257 281 259 b 285 261 289 262 294 262 b 298 261 302 259 305 256 b 309 251 310 244 311 238 b 312 233 313 228 313 224 b 313 224 312 224 312 228 z"},"L":{"x_min":0,"x_max":441,"ha":441,"o":"m 62 -304 b 64 -302 68 -299 73 -295 b 78 -292 85 -288 93 -285 b 101 -281 111 -277 121 -273 b 131 -269 141 -265 152 -261 b 173 -254 194 -247 213 -242 b 231 -237 245 -233 253 -232 b 260 -230 267 -229 275 -227 b 283 -248 290 -265 296 -272 b 299 -276 302 -278 305 -279 b 308 -279 311 -279 312 -278 b 313 -277 313 -275 312 -273 b 312 -271 310 -269 308 -266 b 306 -263 303 -257 301 -248 b 299 -244 298 -238 297 -232 b 296 -229 295 -226 295 -223 b 312 -219 329 -215 346 -210 b 408 -195 470 -180 531 -168 b 593 -155 656 -142 720 -137 b 752 -135 785 -135 817 -138 b 849 -141 880 -148 905 -164 b 910 -167 915 -167 918 -165 b 921 -163 922 -159 916 -153 b 904 -141 891 -131 876 -123 b 861 -114 846 -108 830 -102 b 799 -90 766 -81 733 -74 b 667 -61 598 -58 530 -66 b 463 -73 395 -89 333 -113 b 315 -120 298 -127 281 -135 b 281 -130 280 -126 280 -121 b 274 -55 275 11 276 34 b 278 58 279 81 280 105 b 281 129 281 152 282 176 b 284 270 288 366 291 460 b 294 556 295 654 299 752 b 302 851 309 949 323 1045 b 326 1062 315 1073 309 1050 b 283 959 258 867 237 773 b 217 680 201 585 192 489 b 183 393 179 294 185 198 b 186 186 186 174 187 162 b 188 150 190 138 191 126 b 193 102 196 79 200 55 b 205 28 218 -44 237 -114 b 240 -127 244 -140 248 -153 b 246 -154 245 -155 243 -156 b 226 -165 183 -192 143 -220 b 122 -234 102 -249 86 -262 b 78 -268 71 -274 65 -280 b 60 -286 56 -290 53 -294 b 49 -299 49 -305 52 -307 b 54 -309 57 -309 62 -304 z m 251 320 b 251 320 252 331 252 348 b 252 365 252 388 253 411 b 254 434 255 458 256 476 b 258 494 259 507 260 509 b 261 512 260 495 259 470 b 259 458 258 443 258 428 b 257 413 256 397 256 382 b 255 351 254 324 253 310 b 253 296 252 295 251 320 z m 226 465 b 224 437 222 408 221 378 b 219 348 218 318 217 290 b 217 262 216 236 216 214 b 215 192 215 173 215 160 b 215 147 215 140 215 140 b 214 149 213 168 212 194 b 210 248 208 336 211 419 b 214 503 222 582 232 619 b 236 633 240 647 244 661 b 242 646 241 632 239 618 b 239 617 238 609 237 596 b 236 583 234 564 232 542 b 230 519 228 493 226 465 z m 240 155 b 240 86 242 38 242 32 b 242 32 239 69 237 128 b 235 186 233 265 235 348 b 237 431 242 517 249 589 b 256 661 265 719 273 747 b 273 747 272 736 270 717 b 268 708 267 696 266 683 b 264 670 263 655 261 639 b 255 574 248 487 244 400 b 240 312 239 223 240 155 z m 472 -147 b 452 -152 434 -156 425 -158 b 416 -160 415 -159 431 -154 b 431 -154 439 -152 450 -149 b 455 -148 462 -146 469 -144 b 476 -143 484 -141 491 -139 b 522 -133 553 -128 557 -129 b 560 -130 513 -138 472 -147 z m 338 -140 b 355 -134 378 -126 404 -118 b 430 -110 459 -103 487 -97 b 515 -91 543 -87 567 -85 b 592 -83 612 -83 626 -86 b 636 -88 646 -90 655 -92 b 645 -92 635 -93 626 -93 b 625 -93 620 -93 611 -94 b 606 -94 601 -95 594 -95 b 588 -96 581 -96 573 -97 b 542 -100 502 -106 462 -114 b 421 -122 382 -132 352 -139 b 338 -143 325 -147 317 -149 b 308 -152 303 -153 303 -153 b 309 -150 321 -146 338 -140 z m 302 -177 b 339 -163 391 -147 445 -133 b 473 -127 501 -121 528 -116 b 542 -114 556 -112 569 -110 b 582 -109 595 -107 608 -107 b 657 -104 697 -107 716 -112 b 716 -112 714 -112 710 -112 b 707 -112 702 -111 696 -111 b 683 -111 665 -111 643 -112 b 621 -113 595 -115 567 -118 b 540 -122 511 -127 481 -132 b 452 -138 423 -145 395 -152 b 368 -160 342 -167 320 -174 b 308 -177 297 -181 288 -184 b 287 -183 287 -183 287 -182 b 292 -180 297 -178 302 -177 z m 257 -193 b 259 -193 260 -192 261 -192 b 261 -192 261 -192 262 -193 b 250 -197 243 -199 241 -200 b 241 -200 247 -198 257 -193 z"},"3":{"x_min":0,"x_max":442,"ha":442,"o":"m 366 330 b 359 343 350 356 340 367 b 331 379 320 388 310 397 b 291 414 272 427 257 439 b 249 446 243 451 240 455 b 239 455 239 456 239 456 b 239 456 239 456 238 456 b 238 456 238 456 238 456 b 238 456 237 457 237 457 b 237 457 237 458 236 458 b 236 458 237 460 237 461 b 238 463 239 465 240 467 b 242 472 244 477 247 482 b 252 491 258 501 263 511 b 275 531 288 553 298 576 b 300 580 302 585 304 590 b 305 593 307 597 309 601 b 309 603 310 605 311 607 b 312 610 313 612 314 615 b 317 624 320 635 320 646 b 320 656 318 668 312 678 b 308 685 302 691 295 695 b 288 699 280 702 272 704 b 263 706 254 706 246 706 b 237 706 228 705 220 703 b 206 699 193 693 181 687 b 169 681 157 674 147 667 b 125 653 107 637 94 623 b 87 616 81 609 76 604 b 70 598 67 593 65 589 b 62 585 62 581 62 578 b 63 575 64 573 66 572 b 67 571 68 571 70 573 b 71 574 72 577 75 580 b 76 583 79 586 85 591 b 90 596 97 601 105 607 b 121 618 140 630 163 639 b 174 644 185 648 197 652 b 203 653 208 654 214 655 b 217 656 219 656 222 656 b 223 657 225 657 226 657 l 228 657 b 228 657 228 657 229 657 b 234 657 239 656 243 654 b 246 652 249 649 250 645 b 250 641 248 637 247 635 b 246 634 245 633 244 632 b 244 632 243 631 243 630 l 241 629 l 241 629 l 241 628 l 240 628 l 235 621 b 232 617 229 612 225 608 b 219 599 211 590 204 581 b 189 562 173 542 159 519 b 157 516 155 512 153 508 b 152 506 150 504 149 502 l 148 498 b 147 497 147 496 146 494 b 141 482 137 468 137 455 b 137 445 139 435 142 425 b 144 420 146 416 148 411 b 149 409 151 406 152 404 b 153 403 153 402 154 401 l 156 398 b 161 391 166 385 171 380 b 175 374 180 370 185 366 b 203 350 220 337 235 325 b 249 313 261 302 268 291 b 277 279 283 266 287 251 b 290 243 291 233 293 224 b 294 214 294 205 294 194 b 293 174 290 153 285 131 b 282 120 279 109 276 98 b 272 87 268 77 264 67 b 256 46 246 28 232 13 b 229 9 226 6 222 3 b 219 0 215 -3 211 -6 b 203 -11 194 -15 185 -17 b 166 -23 148 -21 131 -11 b 113 -1 99 16 88 35 b 78 55 71 78 66 102 b 62 119 48 126 50 101 b 52 77 55 53 63 29 b 70 5 83 -18 102 -37 b 107 -42 113 -46 119 -50 b 124 -54 131 -58 138 -60 b 151 -66 166 -69 181 -69 b 210 -69 238 -60 263 -44 b 275 -36 286 -27 296 -17 b 306 -6 315 4 322 16 b 330 27 337 38 343 50 b 350 62 355 73 360 85 b 371 109 380 134 386 162 b 388 175 390 189 391 204 b 392 218 392 233 390 248 b 387 275 379 303 366 330 z m 284 322 b 275 333 264 342 255 349 b 245 357 237 364 232 368 b 226 373 223 376 225 375 b 226 374 231 371 241 364 b 241 364 244 362 248 359 b 251 356 257 352 263 346 b 276 336 292 321 303 303 b 314 285 321 264 324 248 b 327 231 327 218 326 216 b 325 215 325 218 324 225 b 324 231 322 241 320 252 b 317 263 313 276 307 288 b 301 301 293 312 284 322 z m 280 26 b 271 14 262 6 255 1 b 255 1 256 2 258 4 b 260 6 263 9 266 13 b 272 21 281 33 290 50 b 299 66 308 87 316 110 b 324 134 331 160 334 188 b 337 216 335 245 326 273 b 322 287 316 300 308 312 b 301 324 291 334 281 344 b 260 363 237 379 218 396 b 209 404 199 413 192 423 b 185 433 181 445 181 456 b 181 465 184 473 187 481 b 190 488 194 494 198 500 b 205 512 212 523 219 532 b 232 552 243 567 251 579 b 259 591 265 601 269 607 b 270 609 271 610 271 612 b 272 613 273 614 273 615 b 274 617 275 618 275 619 b 275 619 275 618 274 616 b 273 614 271 611 269 607 b 265 599 258 587 249 574 b 240 560 229 543 216 524 b 210 515 204 504 198 493 b 195 488 192 482 189 476 b 187 470 185 463 185 456 b 186 450 187 444 190 438 b 192 432 196 427 200 422 b 208 412 218 404 228 395 b 248 379 270 364 289 345 b 309 327 324 304 332 278 b 341 253 344 226 343 201 b 342 175 336 151 330 129 b 323 107 315 87 306 70 b 298 52 289 37 280 26 z m 367 182 b 362 147 351 120 342 104 b 335 91 327 78 319 66 b 325 79 331 93 336 107 b 347 140 356 174 356 210 b 357 246 350 282 332 315 b 323 331 311 346 298 358 b 286 371 272 382 259 392 b 252 397 246 403 240 408 b 236 411 233 413 230 416 b 227 419 225 421 222 424 b 219 427 217 429 215 432 b 214 434 213 435 212 436 b 211 438 210 439 209 440 b 207 445 205 451 205 456 b 205 460 206 465 208 469 b 208 469 208 470 208 470 l 209 472 b 210 473 210 474 211 475 b 212 478 214 480 215 483 b 222 494 228 504 236 514 b 234 510 230 504 226 496 b 223 493 221 488 219 484 b 216 479 214 474 212 470 b 210 465 209 461 209 456 b 210 452 211 448 214 444 b 214 443 215 442 216 441 b 216 440 217 439 218 438 b 220 435 223 433 225 430 b 230 425 237 420 244 415 b 251 409 258 404 266 398 b 281 387 298 374 313 359 b 321 351 329 342 335 332 b 342 323 347 313 352 302 b 361 282 366 260 368 240 b 370 219 369 200 367 182 z"},";":{"x_min":0,"x_max":272,"ha":272,"o":"m 155 245 b 155 248 144 254 140 250 b 113 225 80 201 64 171 b 56 156 50 139 50 121 b 50 113 51 104 55 94 b 59 83 77 36 79 25 b 80 21 90 17 92 22 b 95 29 118 62 126 69 b 133 75 138 82 142 90 b 149 105 156 120 159 136 b 165 170 151 211 155 245 z m 91 142 b 83 123 75 103 75 103 b 75 105 75 109 76 113 b 77 132 83 175 100 183 l 110 188 l 107 181 b 107 181 99 161 91 142 z m 119 123 b 119 123 125 154 129 155 b 132 155 118 105 119 123 z m 113 139 b 103 110 94 80 93 78 b 93 78 97 105 104 133 b 111 161 122 190 134 197 b 134 197 123 168 113 139 z m 222 419 b 220 422 213 426 206 431 b 199 436 192 441 189 446 b 189 446 177 450 175 450 b 165 449 154 448 145 446 b 135 444 127 441 123 437 b 119 433 117 428 122 423 b 124 420 128 418 134 415 b 137 413 146 409 155 406 b 164 403 173 400 175 399 b 177 398 188 397 188 398 b 189 399 192 401 197 403 b 201 405 206 407 208 408 b 214 409 216 410 218 411 b 222 413 223 416 222 419 z m 161 436 b 161 436 160 434 159 433 b 158 431 157 429 156 426 b 153 422 151 417 151 417 b 150 418 149 418 149 420 b 145 424 140 437 154 437 l 162 437 z m 178 424 b 176 418 175 411 174 410 b 174 410 171 416 171 423 b 171 429 173 436 182 436 b 182 436 180 430 178 424 z m 187 420 b 187 420 187 421 187 423 b 187 425 187 426 189 426 b 192 426 191 416 187 420 z"},"J":{"x_min":0,"x_max":873,"ha":873,"o":"m 797 619 b 793 614 789 609 785 605 b 782 628 779 652 775 675 b 774 681 773 688 772 694 l 767 714 b 766 720 765 727 763 733 l 758 752 b 755 765 750 778 746 790 b 742 803 738 816 733 828 b 729 836 726 845 721 855 b 716 865 710 876 702 888 b 694 900 685 912 672 924 b 660 936 645 948 628 956 b 610 965 590 970 570 972 b 551 974 531 972 511 969 b 492 966 473 961 454 955 b 445 952 436 950 427 946 b 418 943 408 940 399 936 b 327 908 259 871 204 836 b 177 819 152 803 131 790 b 110 776 93 764 81 756 b 43 731 36 713 84 742 b 106 756 149 781 202 809 b 255 836 319 867 386 888 b 395 891 403 893 411 896 b 420 898 428 901 436 903 b 445 905 453 907 461 909 b 470 911 478 912 486 913 b 502 916 517 918 531 918 b 545 918 559 916 570 913 b 593 907 609 896 620 882 b 632 869 639 856 644 846 b 653 826 660 804 665 781 b 668 769 671 757 673 745 b 675 733 678 722 680 709 b 688 661 692 612 693 563 b 693 539 693 515 692 491 b 664 453 638 414 613 374 b 558 287 511 195 472 98 l 458 62 b 454 50 450 38 445 25 b 437 0 429 -25 424 -52 b 418 -78 413 -106 412 -134 b 411 -148 411 -162 412 -177 b 414 -192 416 -208 422 -225 b 424 -229 425 -233 427 -237 b 428 -239 429 -242 430 -244 l 434 -250 b 439 -258 445 -266 452 -273 b 466 -286 484 -298 507 -303 b 512 -304 518 -305 524 -305 b 530 -305 535 -305 541 -304 b 552 -303 563 -299 572 -295 b 591 -286 605 -274 616 -262 b 622 -257 627 -250 632 -244 b 637 -239 641 -233 645 -227 b 654 -215 661 -202 668 -190 b 682 -165 693 -139 702 -113 b 721 -62 735 -9 746 43 b 756 96 764 148 770 200 b 783 304 794 411 791 517 b 790 538 789 559 787 581 b 793 589 799 597 806 605 b 829 634 832 657 797 619 z m 761 577 b 760 577 760 576 759 575 b 759 583 758 591 758 598 b 757 605 757 612 757 617 b 756 623 756 627 755 631 b 755 639 754 643 754 643 b 756 629 759 607 761 577 z m 733 610 b 727 683 715 744 702 788 b 690 832 676 858 673 864 b 673 864 674 862 675 860 b 676 858 678 855 680 851 b 684 842 689 830 695 813 b 707 779 720 729 729 667 b 734 632 738 593 739 551 b 738 550 737 548 736 547 b 735 568 734 589 733 610 z m 690 436 b 686 379 680 320 673 262 b 667 211 660 160 652 111 b 644 61 635 12 622 -35 b 615 -58 608 -82 599 -105 b 591 -127 581 -148 569 -168 b 566 -173 563 -177 560 -182 l 555 -189 b 554 -191 552 -193 551 -195 b 545 -202 539 -208 534 -211 b 529 -214 527 -215 525 -215 b 523 -215 518 -214 514 -210 b 511 -209 509 -206 507 -204 b 506 -202 504 -198 502 -195 b 499 -188 496 -179 494 -168 b 494 -163 493 -157 493 -151 b 492 -146 492 -140 492 -134 b 492 -122 492 -110 493 -98 b 497 -49 509 1 523 51 b 562 185 618 316 690 436 z m 707 256 b 707 256 705 231 700 195 b 696 159 689 110 680 62 b 672 13 659 -36 647 -72 b 635 -109 623 -134 620 -138 b 617 -142 632 -111 648 -60 b 655 -35 663 -5 670 27 b 676 59 682 92 687 124 b 692 157 696 188 699 214 b 703 241 706 263 708 278 b 710 293 711 300 711 298 b 711 295 710 282 707 256 z m 454 -135 b 455 -119 456 -104 458 -89 b 462 -60 469 -35 475 -13 b 482 9 488 27 494 41 b 494 41 492 35 489 25 b 486 14 481 -1 476 -20 b 471 -40 466 -64 463 -92 b 461 -106 460 -120 460 -136 b 460 -152 460 -168 463 -185 b 466 -201 472 -217 483 -230 b 494 -243 510 -253 527 -252 b 544 -252 561 -241 575 -227 b 582 -220 589 -211 595 -203 b 601 -194 606 -185 612 -176 b 633 -138 649 -96 662 -51 b 675 -7 686 39 694 85 b 702 132 708 179 714 225 b 720 272 725 318 729 362 b 734 413 736 463 736 509 b 737 511 739 513 740 515 b 740 494 740 472 739 450 b 737 370 728 283 717 195 b 706 106 692 16 665 -68 b 652 -110 636 -151 614 -187 b 609 -196 603 -205 597 -213 b 591 -221 584 -229 577 -236 b 569 -243 561 -249 552 -254 b 548 -256 543 -257 538 -258 b 534 -260 529 -260 524 -260 b 514 -260 505 -256 497 -252 b 489 -247 482 -241 476 -233 b 465 -219 459 -202 456 -185 b 454 -168 454 -151 454 -135 z m 763 526 b 763 518 764 511 764 503 b 764 495 764 487 764 478 b 764 470 764 461 763 452 b 763 443 763 434 763 425 b 761 388 758 347 755 305 b 751 263 746 219 740 175 b 735 131 728 85 720 40 b 711 -4 700 -48 686 -90 b 672 -131 655 -171 633 -205 b 628 -213 622 -221 616 -229 b 610 -237 604 -245 596 -251 b 589 -258 581 -265 572 -270 b 564 -275 554 -279 544 -281 b 533 -284 523 -284 513 -282 b 503 -280 495 -276 488 -272 b 473 -263 464 -252 457 -241 b 447 -225 443 -208 441 -192 b 439 -175 439 -159 440 -144 b 440 -159 441 -176 444 -192 b 448 -208 454 -225 464 -239 b 465 -239 468 -244 474 -250 b 481 -256 491 -265 507 -270 b 516 -272 526 -273 536 -272 b 546 -270 557 -266 566 -260 b 585 -249 601 -230 615 -209 b 629 -189 642 -165 653 -139 b 665 -113 674 -85 683 -56 b 701 3 713 66 723 130 b 728 162 733 193 737 225 b 741 256 745 287 748 317 b 754 377 758 433 760 481 b 760 504 760 525 760 544 b 761 545 762 546 763 548 b 763 541 763 533 763 526 z"},"V":{"x_min":0,"x_max":842,"ha":842,"o":"m 54 894 b 57 892 62 889 69 883 b 72 881 75 877 79 871 b 83 866 87 859 91 851 b 94 842 98 833 101 822 b 104 811 107 799 110 786 b 115 761 120 733 123 703 b 127 673 129 642 132 610 b 134 579 136 547 139 516 b 141 485 144 455 148 428 b 154 375 160 331 164 308 b 177 218 198 127 226 39 b 230 28 233 16 237 5 b 241 -5 245 -16 249 -27 b 257 -49 264 -71 274 -94 b 284 -116 296 -140 312 -163 b 319 -174 329 -185 339 -196 b 350 -207 362 -217 379 -226 b 387 -230 397 -234 407 -236 b 412 -237 418 -238 423 -239 b 426 -239 428 -239 431 -239 l 435 -239 l 439 -239 b 444 -238 450 -238 455 -237 b 458 -236 460 -235 463 -235 b 465 -234 468 -233 470 -232 b 472 -231 475 -230 477 -229 l 484 -226 b 488 -224 492 -221 496 -219 b 512 -209 523 -197 533 -185 b 542 -173 550 -161 557 -149 l 562 -140 l 566 -131 l 573 -114 b 578 -103 583 -92 587 -80 b 596 -58 603 -35 610 -13 b 624 33 635 79 645 125 b 655 170 665 215 676 260 b 687 305 698 350 710 395 b 722 439 735 484 749 528 b 777 616 810 702 850 785 l 858 801 l 866 816 b 871 827 876 837 881 847 b 893 867 904 887 916 907 b 939 945 966 981 1001 1008 b 1004 1010 1007 1012 1010 1015 b 1010 1015 1010 1015 1011 1015 b 1011 1015 1011 1016 1011 1016 b 1011 1016 1011 1016 1012 1017 b 1012 1017 1013 1018 1013 1018 b 1014 1018 1014 1019 1014 1019 b 1015 1021 1015 1023 1015 1023 b 1016 1024 1016 1024 1016 1024 b 1016 1024 1017 1024 1017 1024 b 1018 1025 1018 1026 1017 1027 b 1016 1029 1013 1030 1009 1029 b 1007 1029 1005 1028 1003 1027 b 1001 1026 998 1024 996 1023 b 977 1011 959 996 943 980 b 927 964 913 946 899 928 b 892 919 885 910 879 901 l 860 873 l 850 859 l 841 844 b 835 835 829 825 823 816 b 812 796 800 777 789 757 b 784 747 778 737 773 727 l 757 697 b 736 656 716 615 698 574 l 691 558 l 685 542 l 672 511 b 664 490 655 468 647 447 b 631 405 616 361 602 318 b 588 275 575 231 563 188 b 551 144 539 101 526 59 b 514 17 500 -25 482 -64 b 480 -69 478 -74 476 -78 l 473 -86 b 471 -88 471 -90 469 -92 b 465 -100 461 -108 456 -114 b 451 -121 446 -126 442 -130 b 438 -133 434 -134 433 -135 b 433 -135 433 -135 433 -135 b 432 -135 432 -135 432 -135 b 432 -135 431 -135 431 -135 b 430 -135 430 -135 429 -134 b 426 -134 421 -131 416 -126 b 413 -124 411 -121 408 -118 b 405 -115 402 -112 399 -109 b 394 -102 389 -94 384 -86 b 374 -70 365 -51 357 -31 b 348 -11 340 10 332 30 b 300 112 272 195 247 280 b 239 304 226 348 213 403 b 200 458 186 523 175 590 b 170 623 164 657 157 689 b 151 721 143 751 135 778 b 133 785 131 792 129 798 b 127 805 125 811 123 817 b 120 823 118 829 116 834 b 114 840 112 845 109 850 b 100 870 89 884 80 891 b 73 897 65 900 60 901 b 59 901 58 901 56 901 b 55 901 54 901 54 900 b 52 900 51 900 50 899 b 49 898 50 896 54 894 z m 584 12 b 578 -11 569 -38 558 -66 b 553 -80 547 -94 541 -108 l 536 -118 b 535 -122 533 -125 531 -129 b 528 -136 523 -143 519 -149 b 510 -163 500 -175 487 -186 b 475 -196 460 -204 444 -206 b 440 -206 436 -207 432 -207 b 428 -207 425 -207 421 -206 b 414 -205 407 -203 402 -201 b 390 -196 382 -190 376 -186 b 364 -176 360 -170 362 -172 b 363 -172 365 -175 371 -180 b 376 -184 384 -190 397 -196 b 397 -196 399 -197 401 -198 b 404 -199 409 -201 415 -202 b 420 -204 428 -204 436 -204 b 445 -203 454 -201 463 -197 b 482 -188 498 -173 511 -155 b 517 -146 523 -136 529 -126 b 534 -115 538 -105 543 -95 b 560 -54 574 -10 584 23 b 594 57 601 81 603 85 b 605 90 598 58 584 12 z m 283 86 b 288 70 295 51 303 28 b 313 5 323 -23 336 -52 b 349 -81 364 -110 385 -134 b 391 -140 397 -146 403 -150 b 409 -155 415 -158 420 -160 b 423 -161 426 -162 429 -162 b 430 -162 431 -162 433 -162 b 434 -161 435 -161 437 -161 b 442 -160 448 -158 453 -154 b 465 -146 476 -133 484 -118 b 487 -114 489 -110 491 -106 b 493 -102 495 -98 497 -94 l 502 -81 l 508 -68 b 537 3 555 77 573 141 b 581 172 590 202 597 228 b 605 253 613 275 619 292 b 624 304 629 317 634 330 l 649 367 l 637 328 b 633 314 629 301 626 288 b 625 287 621 273 615 249 b 611 237 607 222 603 205 b 598 188 593 169 588 149 b 577 107 565 59 549 10 b 541 -15 532 -41 522 -66 b 519 -72 516 -79 514 -85 b 511 -91 508 -97 505 -104 b 499 -116 492 -127 485 -137 b 483 -140 481 -143 479 -145 l 476 -148 l 472 -152 b 470 -154 468 -156 466 -158 l 462 -160 b 461 -161 460 -162 459 -163 l 455 -165 l 451 -167 b 451 -167 450 -168 449 -168 l 447 -168 b 446 -169 445 -169 444 -170 b 441 -170 439 -171 436 -171 b 435 -171 434 -171 432 -171 l 429 -171 b 419 -171 409 -166 399 -159 b 390 -152 382 -143 374 -133 b 359 -114 348 -93 338 -71 b 329 -50 321 -28 314 -9 b 299 30 288 63 281 87 b 277 98 274 108 273 114 b 271 120 270 123 270 123 b 273 115 277 102 283 86 z m 208 268 b 215 237 226 193 242 140 b 258 86 279 24 306 -42 b 319 -74 334 -109 357 -139 b 368 -154 382 -169 399 -178 b 407 -183 417 -187 427 -187 b 436 -188 446 -186 455 -183 b 464 -179 473 -173 480 -166 b 487 -159 493 -152 499 -144 b 505 -136 510 -127 514 -118 b 519 -109 523 -100 527 -91 b 542 -55 555 -18 566 20 b 578 57 587 94 596 130 b 606 166 615 201 624 234 b 642 300 660 360 677 409 b 685 434 693 455 701 474 b 704 484 708 492 711 500 b 714 508 717 515 720 521 b 720 521 718 516 715 507 b 712 498 707 485 701 468 b 700 463 698 459 697 454 b 695 449 694 445 692 439 b 689 429 685 418 681 406 b 677 394 673 381 669 368 b 665 354 661 340 657 325 b 639 266 621 196 602 121 b 583 45 561 -36 525 -113 b 516 -132 504 -151 489 -166 b 481 -174 473 -181 462 -186 b 452 -192 441 -194 429 -194 b 417 -194 406 -190 397 -184 b 387 -179 379 -172 371 -164 b 356 -149 344 -132 334 -115 b 314 -80 301 -43 288 -9 b 275 26 264 59 254 90 b 217 211 201 299 197 316 b 198 314 198 310 200 304 b 202 296 204 284 208 268 z"},"\"":{"x_min":0,"x_max":384,"ha":384,"o":"m 181 849 b 161 834 141 818 122 800 b 103 783 85 763 73 740 b 61 718 52 693 50 668 b 50 661 50 655 50 649 b 51 642 52 635 53 629 b 55 621 60 601 66 582 b 69 572 72 563 74 555 b 77 547 79 541 80 537 b 81 532 92 529 93 535 b 93 538 95 543 97 550 b 100 556 103 564 106 572 b 110 579 113 587 117 593 b 120 599 123 604 125 606 b 133 616 138 626 142 636 b 151 657 159 678 165 699 b 171 721 174 745 177 769 b 180 794 184 819 194 841 b 195 845 186 853 181 849 z m 88 682 b 85 675 83 669 81 663 b 77 653 75 646 75 646 b 74 648 75 653 76 659 b 77 666 79 675 80 685 b 83 695 85 706 89 716 b 95 736 105 754 115 760 b 119 762 123 765 127 767 b 125 764 123 760 121 757 b 121 757 121 755 119 752 b 118 749 115 745 113 740 b 110 735 108 729 105 722 b 102 716 99 709 96 702 b 93 695 90 688 88 682 z m 136 712 b 134 706 132 699 129 692 b 125 678 120 666 122 678 b 122 678 123 681 124 685 b 125 689 126 694 128 700 b 130 705 132 711 133 715 b 135 719 137 721 138 722 b 139 722 138 718 136 712 z m 150 772 b 148 768 145 762 142 754 b 135 740 126 720 119 700 b 111 680 104 659 100 643 b 97 635 95 628 94 623 b 93 617 92 614 91 613 b 91 613 92 616 92 620 b 93 624 94 630 95 637 b 98 651 102 670 108 690 b 120 730 140 770 154 778 b 154 778 152 776 150 772 z m 321 792 b 285 766 244 740 220 704 b 207 686 197 666 193 644 b 192 633 191 622 193 610 b 193 607 194 600 195 593 b 197 585 198 576 199 567 b 201 558 203 549 205 541 b 207 534 209 529 210 526 b 212 521 223 520 223 525 b 224 527 225 530 228 535 b 230 540 234 545 238 551 b 246 561 256 573 260 577 b 269 584 275 593 280 601 b 291 618 301 636 308 655 b 315 675 318 697 321 719 b 324 741 327 764 334 784 b 336 787 326 795 321 792 z m 216 621 b 215 623 216 627 218 633 b 221 644 226 663 234 680 b 241 697 250 712 260 716 l 272 721 l 267 713 b 266 713 263 707 258 698 b 253 690 246 679 240 667 b 227 644 216 621 216 621 z m 272 653 b 267 641 262 632 264 642 b 264 642 265 645 266 648 b 268 651 269 656 271 661 b 275 670 280 679 282 679 b 284 680 278 665 272 653 z m 262 662 b 245 628 230 592 228 590 b 228 590 231 598 235 610 b 239 622 244 638 251 655 b 265 688 284 722 298 729 b 298 729 279 696 262 662 z"},"7":{"x_min":0,"x_max":424,"ha":424,"o":"m 371 413 b 343 426 314 441 285 450 b 287 462 289 475 290 487 b 292 505 293 524 292 543 b 291 563 288 583 281 602 b 277 614 268 634 251 654 b 242 664 231 674 218 681 b 205 688 190 693 176 694 b 148 697 122 691 101 684 b 81 677 66 668 58 663 b 52 659 49 654 50 651 b 51 648 55 647 63 650 b 70 653 83 658 101 660 b 118 662 140 662 158 656 b 167 653 174 649 180 644 b 186 640 191 634 194 628 b 201 617 203 605 204 599 b 207 575 203 549 197 519 b 194 504 190 487 186 472 b 185 464 183 456 181 448 l 179 442 b 175 440 172 437 168 434 b 163 430 150 419 137 408 b 124 397 111 387 106 384 b 102 382 103 370 108 371 b 112 371 126 369 140 367 b 147 366 153 364 159 363 b 156 351 153 339 150 327 b 118 195 97 50 86 -89 b 85 -101 97 -109 101 -92 l 108 -68 b 110 -60 113 -52 116 -44 b 121 -28 126 -12 132 3 b 144 35 156 65 169 96 b 194 158 221 219 243 284 b 251 308 258 332 265 357 b 300 366 335 390 371 398 b 374 399 376 411 371 413 z m 283 427 l 292 419 l 283 420 b 283 420 282 420 280 420 b 280 422 281 425 281 428 b 282 427 283 427 283 427 z m 239 385 b 237 385 236 385 234 385 b 235 386 235 387 235 388 b 238 389 241 389 244 389 b 245 389 245 390 246 390 b 246 388 245 387 245 386 b 243 385 241 385 239 385 z m 190 354 b 191 354 193 354 194 353 b 194 353 194 353 194 352 b 190 337 185 321 182 308 b 178 296 175 287 174 286 b 172 283 181 318 190 354 z m 253 423 b 252 422 252 421 252 420 b 249 420 246 420 244 420 b 245 424 246 428 247 432 b 249 433 252 433 254 433 b 254 430 253 426 253 423 z m 209 425 b 209 426 209 426 210 426 b 210 424 209 422 209 420 b 208 420 208 420 207 419 b 207 421 207 422 208 422 b 208 424 208 425 209 425 z m 222 403 b 222 401 221 399 221 397 b 219 397 216 396 214 396 b 215 398 215 400 216 402 b 218 402 220 403 222 403 z m 226 420 b 224 420 222 420 220 420 b 221 423 221 426 222 429 b 224 429 226 429 228 430 b 228 427 227 423 226 420 z m 202 400 b 203 400 204 400 205 400 b 205 399 204 397 204 396 b 203 396 202 395 201 395 b 201 397 201 398 202 400 z m 241 398 b 240 398 239 398 238 398 b 239 400 239 403 240 405 b 243 405 246 406 249 406 b 249 403 248 401 248 398 b 246 398 243 398 241 398 z m 265 519 b 266 529 267 535 267 535 b 267 527 267 513 264 495 b 263 485 261 474 259 462 b 259 460 259 458 258 455 b 257 456 256 456 254 456 b 254 456 253 456 252 456 b 254 465 256 473 258 481 b 261 497 264 510 265 519 z m 238 606 b 239 603 240 599 242 593 b 244 582 246 565 246 545 b 245 525 242 501 237 475 b 236 469 235 463 234 457 b 232 457 230 456 228 456 b 234 482 239 506 241 527 b 244 550 244 571 242 585 b 240 599 237 608 236 610 b 236 610 237 609 238 606 z m 136 121 b 136 121 138 129 141 142 b 145 155 150 173 157 195 b 169 238 187 295 203 353 b 205 353 208 352 210 352 b 199 308 186 265 174 228 b 159 179 145 139 136 121 z m 187 203 l 171 176 l 180 205 b 181 206 187 226 197 257 b 205 283 215 317 225 352 b 229 352 233 352 237 353 b 236 347 235 342 234 337 b 219 280 201 227 187 203 z m 289 400 b 285 400 280 400 276 400 b 276 402 277 404 277 407 b 292 407 305 405 311 401 b 311 401 302 400 289 400 z"},"S":{"x_min":0,"x_max":1086,"ha":1086,"o":"m 443 -285 b 462 -286 481 -284 499 -280 b 504 -279 508 -278 513 -277 b 517 -276 522 -275 526 -273 l 539 -270 b 543 -268 547 -267 552 -265 b 585 -254 618 -238 648 -219 b 678 -201 706 -179 733 -156 b 759 -133 783 -108 806 -82 b 818 -69 829 -55 839 -42 b 850 -28 860 -14 870 0 b 890 29 909 60 924 94 b 931 111 938 128 943 147 b 948 165 952 185 954 204 b 958 243 955 284 941 323 b 935 343 926 363 913 381 b 902 398 887 414 872 428 b 840 455 804 474 768 487 b 750 494 732 499 713 503 l 686 508 b 677 510 668 511 659 512 b 623 517 586 518 551 517 b 515 517 481 514 446 510 b 378 503 313 493 249 487 l 225 485 b 217 484 210 484 203 484 b 197 484 190 484 184 484 b 178 485 172 486 167 487 b 163 488 159 490 156 492 b 153 493 150 495 148 497 b 146 499 145 502 143 505 b 142 508 141 513 140 518 b 139 528 140 540 143 553 b 143 556 144 559 145 563 b 146 566 147 570 148 573 b 150 580 153 587 155 593 b 166 620 181 646 198 671 b 208 686 223 706 244 729 b 264 752 290 778 321 803 b 337 816 354 828 372 840 b 391 852 410 863 431 873 b 472 894 517 911 564 919 b 611 927 660 926 704 912 b 748 897 785 869 811 836 b 837 803 851 767 857 734 b 863 702 861 674 858 655 b 855 640 852 627 850 618 b 849 613 848 609 848 607 b 848 604 848 601 848 600 b 849 598 851 600 855 607 b 859 614 865 627 869 646 b 871 655 873 666 875 679 b 876 692 876 706 875 723 b 874 739 871 757 866 775 b 860 793 853 812 842 831 b 821 868 787 904 744 928 b 722 940 698 949 673 955 b 648 961 623 963 598 963 b 547 963 498 953 453 938 b 408 922 367 903 331 883 b 296 862 265 840 241 821 b 216 801 197 784 185 771 b 160 747 137 720 116 691 b 95 661 76 629 64 592 b 62 588 61 583 59 578 b 58 574 56 569 55 564 b 53 553 51 543 50 532 b 50 521 50 509 52 497 b 54 485 57 472 64 459 b 65 456 67 453 69 450 b 71 447 73 444 75 441 b 77 439 79 436 81 433 b 84 431 86 428 89 426 b 99 417 110 409 122 404 b 145 394 167 390 187 388 b 197 388 207 387 216 388 b 219 388 221 388 223 388 l 230 388 l 243 389 b 260 390 277 391 294 392 b 328 395 362 399 395 402 b 461 409 525 415 588 414 b 616 413 644 410 671 405 b 633 376 596 343 561 309 b 514 262 470 212 431 158 b 426 151 421 144 417 138 b 412 131 407 124 402 117 b 393 103 384 89 376 74 b 359 45 343 15 331 -17 b 325 -34 320 -50 315 -67 b 311 -84 308 -102 307 -120 b 305 -137 304 -156 308 -176 b 311 -195 318 -216 331 -234 b 344 -252 363 -265 383 -273 b 403 -281 423 -284 443 -285 z m 548 -223 b 540 -226 532 -229 524 -232 b 516 -234 508 -237 500 -239 b 497 -239 493 -240 489 -241 b 486 -242 482 -242 478 -243 b 450 -247 425 -244 408 -239 b 408 -239 410 -239 413 -240 b 415 -240 417 -241 419 -241 b 422 -241 425 -242 428 -242 b 431 -242 435 -243 439 -243 b 443 -243 448 -243 453 -243 b 462 -242 474 -241 486 -238 b 511 -233 541 -223 574 -207 b 606 -191 641 -169 675 -140 b 692 -126 709 -110 726 -92 b 743 -75 760 -56 776 -36 b 792 -16 808 6 823 28 b 838 51 853 74 865 100 b 877 125 887 152 892 180 b 898 208 900 237 896 266 b 892 295 882 323 865 347 b 849 372 826 391 801 407 b 781 419 759 428 737 436 b 738 437 739 438 740 439 b 741 440 742 440 742 441 b 746 440 749 439 752 438 b 780 428 806 414 829 397 b 852 379 871 356 884 330 b 897 305 903 276 905 248 b 907 219 904 191 897 164 b 890 136 879 111 867 86 b 854 62 840 39 825 18 b 810 -4 795 -25 779 -44 b 763 -64 746 -82 730 -99 b 713 -116 695 -132 678 -146 b 643 -174 608 -196 574 -212 b 565 -216 557 -220 548 -223 z m 744 423 b 771 414 799 400 822 381 b 834 372 844 361 853 350 b 862 338 869 326 875 312 b 886 286 889 259 890 235 b 890 211 886 191 883 176 b 879 161 876 151 874 148 b 873 145 876 154 880 172 b 882 181 884 192 885 205 b 886 218 887 233 886 249 b 884 265 881 283 875 300 b 870 317 861 333 850 348 b 838 363 823 377 807 388 b 790 399 772 409 754 416 b 744 420 735 423 725 426 b 726 427 727 428 728 428 b 734 427 739 425 744 423 z m 157 463 b 167 460 179 458 193 457 b 207 457 222 457 239 459 b 276 462 319 467 366 473 b 413 479 465 486 520 489 b 548 490 576 491 606 490 b 609 490 613 490 617 490 b 620 489 624 489 628 489 b 635 488 642 488 650 487 b 664 485 679 483 694 480 b 709 478 724 474 739 470 b 754 465 769 460 783 454 b 812 441 840 424 863 402 b 875 391 886 378 895 364 b 904 351 911 336 917 321 b 928 290 933 259 932 229 b 932 199 926 169 918 143 b 910 116 899 91 886 69 b 874 46 861 26 848 7 b 842 -2 835 -11 829 -20 b 822 -28 816 -36 809 -44 b 784 -75 760 -100 739 -117 b 709 -144 677 -168 643 -189 b 677 -166 708 -139 736 -110 b 737 -110 741 -106 748 -98 b 752 -95 756 -90 761 -85 b 766 -79 771 -73 777 -66 b 789 -51 804 -34 819 -13 b 834 8 851 32 867 59 b 883 87 898 119 908 155 b 918 190 922 230 916 271 b 915 281 913 292 910 302 b 907 312 903 322 899 332 b 890 351 877 370 862 385 b 855 394 847 401 838 408 b 830 414 821 421 811 426 b 793 437 773 447 753 454 b 732 461 712 467 691 470 b 686 471 680 472 675 473 b 670 474 665 475 660 476 b 654 476 649 477 644 478 b 639 478 634 479 628 479 b 587 483 546 482 507 480 b 428 476 357 465 296 460 b 280 459 266 458 252 456 b 238 456 225 455 213 455 b 189 454 169 457 155 462 b 148 465 143 468 138 471 b 136 472 134 474 133 475 b 132 476 131 477 131 477 b 130 478 129 479 129 480 b 128 480 128 481 127 482 b 127 482 126 483 126 483 b 125 484 124 485 124 486 b 123 488 123 489 123 489 b 125 484 129 480 134 475 b 140 471 147 466 157 463 z m 452 453 b 394 447 338 440 285 435 b 271 434 258 433 245 432 b 238 432 232 431 225 431 b 218 431 212 430 205 430 b 192 430 180 431 167 434 b 154 436 142 440 131 446 b 120 453 110 462 104 472 b 97 483 93 495 92 506 b 90 518 91 529 92 540 b 93 550 95 561 98 571 b 101 580 105 589 108 598 b 112 607 115 615 119 623 b 127 639 136 653 144 666 b 161 691 176 710 188 724 b 194 731 199 736 203 741 b 207 745 210 748 211 749 b 211 749 210 748 208 746 b 206 744 203 740 199 735 b 194 731 189 725 184 718 b 178 711 171 703 164 693 b 150 674 134 650 120 620 b 112 606 106 589 101 571 b 96 553 92 533 94 512 b 95 502 97 491 102 481 b 107 471 114 462 123 455 b 132 448 143 443 154 440 b 165 437 177 435 189 435 b 213 433 237 436 262 437 b 287 439 312 442 338 445 b 390 451 444 458 499 462 b 527 464 555 465 583 465 b 590 465 597 465 604 464 l 615 464 l 626 463 b 633 462 640 462 647 461 b 654 460 661 459 669 458 l 674 457 l 679 456 l 690 454 b 697 453 704 452 711 450 b 717 449 723 447 728 445 b 727 444 725 443 723 442 b 722 441 721 441 721 440 b 720 441 719 441 718 441 b 704 445 689 448 674 451 b 659 453 644 455 629 456 b 614 458 599 458 584 459 b 570 459 555 459 540 459 b 525 458 510 457 496 456 b 481 455 467 454 452 453 z m 698 433 b 688 435 679 437 670 438 b 661 440 653 441 644 442 b 627 444 612 445 598 445 b 585 446 573 446 563 446 b 554 447 547 446 542 446 b 538 446 536 447 538 447 b 540 447 545 447 554 448 b 558 448 563 448 570 448 b 576 448 583 449 592 448 b 592 448 599 448 613 447 b 619 447 628 446 637 446 b 642 445 646 445 652 444 b 657 443 662 442 668 442 b 674 441 680 440 686 439 b 692 437 698 436 705 435 b 706 434 708 434 710 433 b 709 433 708 432 707 431 b 704 432 700 432 698 433 z m 381 -196 l 380 -194 b 379 -193 378 -192 377 -191 b 376 -190 376 -189 375 -188 b 369 -178 365 -165 363 -151 b 363 -144 362 -137 362 -129 b 362 -126 363 -122 363 -118 b 363 -114 363 -110 364 -106 b 365 -90 368 -75 371 -59 b 375 -44 379 -28 385 -13 b 390 2 397 18 404 33 b 417 62 434 92 451 120 b 469 149 488 177 508 204 b 528 231 549 257 571 282 b 593 307 616 331 641 354 b 658 370 676 386 694 401 b 703 399 713 396 721 393 b 735 389 748 384 761 378 b 786 366 807 350 822 331 b 830 322 836 312 841 301 b 846 290 849 278 852 265 b 856 239 856 211 850 183 b 844 156 833 128 819 100 b 805 73 788 46 769 19 b 751 -8 731 -33 709 -57 b 667 -106 618 -148 563 -178 b 549 -185 535 -192 520 -198 b 517 -200 513 -201 509 -202 l 498 -206 b 491 -208 484 -210 477 -212 b 463 -215 448 -217 435 -216 b 431 -216 428 -216 425 -216 l 420 -215 l 415 -214 l 413 -214 l 411 -213 l 407 -212 l 403 -210 l 401 -210 l 399 -209 l 395 -207 b 394 -206 393 -206 391 -205 l 390 -204 l 388 -203 l 385 -200 b 384 -199 383 -198 382 -197 z"},"}":{"x_min":0,"x_max":511,"ha":511,"o":"m 461 373 b 460 377 460 381 459 385 b 458 389 456 393 454 397 l 452 401 b 452 402 451 403 451 404 l 447 410 b 445 412 444 414 442 417 l 437 423 b 431 431 424 439 417 447 b 409 456 402 464 394 473 b 388 480 382 488 376 495 b 373 499 370 503 367 507 l 362 514 b 361 516 360 518 358 520 b 353 529 348 539 343 549 b 333 569 325 591 317 613 b 312 626 303 651 293 681 b 282 712 267 749 247 782 b 237 799 226 815 213 829 b 200 842 187 854 173 862 b 159 871 146 876 134 879 b 123 882 113 882 107 882 b 104 882 102 882 100 881 b 97 880 96 880 94 879 b 92 877 90 875 90 874 b 90 872 91 871 93 870 b 94 870 96 870 98 869 b 99 869 100 869 101 869 b 102 869 103 869 104 869 b 109 869 116 868 125 865 b 133 861 143 856 153 848 b 158 844 163 840 168 834 b 172 829 177 824 181 817 b 190 805 198 791 204 776 b 217 747 224 714 229 686 b 231 672 233 659 235 648 b 236 637 237 628 238 622 b 241 596 245 570 251 544 b 255 530 259 517 264 503 b 269 490 274 477 281 463 b 288 450 297 437 305 426 b 313 414 322 403 330 393 l 336 386 b 336 386 336 386 336 386 b 336 385 336 385 336 385 b 335 385 335 385 335 385 b 335 385 335 385 335 385 l 335 385 b 335 385 335 385 335 385 l 333 384 l 330 383 b 327 382 323 380 319 378 b 304 371 289 361 275 347 b 268 340 262 332 256 323 b 251 315 247 306 244 298 b 237 280 234 263 233 247 b 232 231 232 216 233 202 b 235 175 238 148 242 123 b 245 97 249 72 251 48 b 252 35 252 23 253 11 b 253 5 253 -1 253 -6 b 253 -9 252 -12 252 -15 b 252 -18 252 -21 251 -24 b 251 -35 249 -46 246 -57 b 245 -63 243 -68 241 -74 b 239 -79 237 -85 235 -90 b 233 -95 230 -100 228 -105 l 223 -112 b 222 -114 220 -116 219 -118 b 212 -127 205 -135 196 -141 b 194 -143 191 -144 189 -145 b 188 -146 187 -147 186 -147 l 182 -149 b 178 -151 173 -153 167 -155 b 157 -158 146 -159 135 -159 b 112 -158 89 -151 69 -138 b 62 -134 55 -132 52 -134 b 50 -135 49 -136 50 -139 b 51 -142 54 -145 59 -149 b 78 -166 101 -178 127 -184 b 140 -187 154 -188 167 -187 b 171 -187 174 -186 178 -186 l 188 -184 b 195 -182 202 -180 208 -177 b 215 -175 221 -171 227 -168 l 236 -162 b 239 -160 241 -157 244 -155 b 255 -146 265 -136 273 -124 b 282 -113 289 -101 295 -89 b 298 -83 301 -76 304 -70 b 306 -63 309 -57 311 -50 b 313 -44 315 -37 316 -30 b 318 -23 320 -16 321 -10 b 323 4 325 17 326 30 b 329 57 329 83 329 108 b 329 134 329 159 329 183 b 329 195 329 207 330 217 b 330 228 332 238 333 246 b 336 256 339 264 343 268 b 344 271 346 273 349 275 b 351 277 354 279 358 281 b 361 283 366 285 371 287 b 372 288 372 288 376 290 b 380 291 383 292 387 293 b 394 296 401 297 408 300 l 413 301 b 415 302 416 303 418 304 b 421 305 424 306 427 308 b 429 310 432 311 434 313 b 436 315 439 317 440 319 b 444 322 448 326 451 331 b 452 334 454 336 455 339 b 456 341 457 344 458 347 b 459 352 460 356 461 360 b 461 365 461 369 461 373 z m 271 267 b 269 257 267 249 267 243 b 266 236 265 232 265 231 b 264 229 264 238 265 253 b 266 261 268 270 271 280 b 275 291 280 302 288 313 b 296 324 307 334 318 341 b 324 344 329 347 335 350 b 341 353 348 356 350 356 b 356 359 362 361 368 362 b 371 363 374 364 376 365 b 378 367 380 369 381 371 b 382 375 381 378 380 380 b 379 382 379 383 379 384 b 379 384 380 383 381 381 b 382 380 383 379 383 377 b 384 375 385 373 384 370 b 384 370 384 370 384 370 b 384 369 383 366 379 364 b 376 361 371 360 365 358 b 362 357 359 356 356 355 b 354 354 352 354 350 353 b 350 353 349 352 348 352 b 346 351 345 351 344 350 b 333 345 321 339 310 330 b 299 322 290 311 284 300 b 277 288 273 277 271 267 z m 287 51 b 286 20 282 -5 277 -19 b 277 -19 277 -18 278 -16 b 278 -14 278 -12 279 -8 b 279 -1 281 10 281 23 b 282 37 282 53 281 71 b 280 89 279 110 277 132 b 276 154 274 178 274 203 b 274 215 274 228 275 241 b 276 254 279 267 284 280 b 289 293 296 305 306 315 b 316 325 327 332 339 338 b 352 344 361 347 372 350 b 377 352 383 353 388 355 b 392 357 397 360 399 365 b 400 370 399 375 397 379 b 395 383 392 386 390 390 b 384 397 379 403 373 410 b 367 417 361 425 355 432 b 350 439 344 446 338 454 b 328 468 319 483 312 498 b 304 512 299 526 295 539 b 286 565 281 586 277 602 b 274 617 272 627 271 630 b 271 630 273 621 277 606 b 281 590 287 568 296 541 b 301 528 307 514 314 499 b 322 485 331 470 343 455 b 354 441 366 426 379 412 b 385 405 391 397 397 390 b 400 386 403 382 406 377 b 408 373 409 368 408 363 b 406 357 401 353 396 351 b 391 349 385 347 380 346 b 369 342 358 339 347 334 b 337 329 327 323 318 316 b 313 312 309 308 306 304 b 302 299 299 295 296 289 b 285 269 282 246 282 224 b 281 202 282 180 283 160 b 285 119 288 81 287 51 z m 432 355 b 431 350 428 346 425 343 b 422 339 419 336 415 334 b 408 329 398 324 388 321 b 382 319 377 317 371 315 b 369 314 366 313 363 312 b 362 312 360 311 359 310 b 353 308 347 305 342 301 b 338 298 333 294 330 291 b 326 287 323 283 320 278 b 315 269 312 258 310 246 b 308 234 307 222 307 209 b 307 197 307 185 307 174 b 307 152 307 132 305 118 b 304 103 302 88 300 73 b 300 89 299 104 298 119 b 297 145 295 171 294 196 b 294 209 294 222 295 234 b 296 246 298 258 302 269 b 306 280 312 289 319 297 b 326 305 336 312 346 317 b 349 318 351 319 354 320 b 357 322 359 323 364 324 b 372 327 380 329 388 332 b 396 335 403 338 409 341 b 412 343 415 345 418 348 b 419 349 420 351 421 352 b 422 354 423 356 424 358 b 425 362 425 367 424 372 b 424 376 422 380 420 384 b 419 386 418 388 417 390 b 415 392 414 395 413 397 l 409 403 b 407 405 406 407 404 409 b 401 413 398 417 394 421 l 385 432 b 380 439 375 445 370 451 b 361 463 352 475 344 488 b 337 501 330 514 325 528 b 329 520 337 503 351 483 b 361 470 373 455 389 438 b 391 435 393 433 395 430 b 398 427 401 424 403 421 b 406 418 409 414 412 411 b 413 409 414 407 416 406 b 417 404 418 402 420 400 b 422 397 424 393 426 390 b 428 386 430 383 431 379 b 432 375 433 372 434 367 b 434 363 433 359 432 355 z"},"Z":{"x_min":0,"x_max":830,"ha":830,"o":"m 943 -99 b 933 -90 921 -85 908 -83 b 896 -80 883 -79 871 -79 l 853 -79 b 847 -79 841 -79 834 -79 b 785 -80 736 -87 688 -97 b 592 -117 500 -150 408 -175 b 385 -182 362 -188 339 -193 b 327 -196 316 -198 304 -201 l 295 -203 l 291 -203 l 287 -204 b 282 -205 277 -206 271 -206 b 261 -207 251 -208 243 -207 b 239 -206 235 -205 231 -204 b 228 -203 225 -202 223 -201 b 221 -199 219 -198 218 -196 b 217 -195 215 -193 214 -191 b 214 -189 213 -187 213 -185 b 213 -183 212 -182 212 -180 l 212 -178 l 212 -175 b 212 -169 214 -160 217 -151 b 218 -146 220 -142 221 -137 b 222 -135 223 -132 224 -130 l 226 -126 b 226 -125 227 -124 227 -122 b 237 -102 246 -80 258 -60 l 266 -45 l 270 -38 l 275 -30 l 293 0 b 296 5 299 9 302 14 l 312 29 b 318 38 325 48 332 58 b 441 211 589 349 705 513 l 716 529 b 719 534 723 539 726 544 b 734 555 741 566 747 578 b 760 602 772 628 778 659 b 781 674 782 690 781 706 b 780 722 776 738 769 753 b 768 757 766 761 764 764 b 762 768 760 771 758 775 b 754 781 750 788 744 794 b 740 800 734 805 729 810 b 723 815 718 820 712 824 b 698 834 678 845 653 855 b 641 859 627 864 612 867 b 605 869 597 870 589 871 b 582 872 574 873 566 874 b 549 876 532 877 515 877 b 498 876 480 876 462 874 b 426 870 389 863 353 853 b 282 835 213 806 161 774 b 134 758 112 741 94 725 b 90 721 85 718 81 714 b 78 710 74 707 71 704 b 67 700 64 697 62 694 b 59 691 57 688 55 686 b 53 681 51 677 50 674 b 50 670 50 666 51 663 b 53 658 57 655 58 655 b 59 655 60 655 60 656 b 60 656 60 657 60 659 b 60 661 60 663 61 666 b 61 667 62 669 62 671 b 63 672 64 674 65 676 b 67 679 71 684 76 688 b 76 689 77 690 78 690 b 79 691 79 692 80 693 b 82 694 84 695 86 697 b 89 700 93 703 97 706 b 114 719 135 733 159 746 b 208 773 271 794 336 807 b 353 811 369 813 385 816 b 401 818 417 819 433 820 b 449 821 464 821 479 821 b 493 821 507 820 521 818 b 527 818 534 817 540 816 b 546 814 552 814 558 812 b 564 811 569 810 575 808 b 577 808 580 807 582 806 b 585 806 587 805 589 804 b 608 798 622 792 630 787 l 634 785 l 637 783 b 639 781 641 780 643 779 b 647 776 652 773 655 770 b 659 767 662 764 666 761 b 669 757 672 754 675 751 b 678 748 680 744 682 741 b 684 737 687 734 688 730 b 690 727 690 723 692 720 b 692 716 693 712 693 709 b 694 701 694 694 692 686 b 691 678 688 669 684 660 b 677 643 666 625 653 606 b 650 602 646 597 643 593 l 632 579 b 625 569 618 560 610 550 b 595 532 580 513 565 495 b 534 458 501 422 469 385 b 436 348 403 311 371 273 b 355 254 339 235 323 215 b 316 205 308 196 300 186 b 293 175 285 165 278 155 l 272 147 l 266 139 l 256 123 b 248 113 241 102 234 91 b 227 80 220 69 214 58 b 207 46 201 35 195 23 b 192 17 188 12 185 6 l 177 -12 l 168 -30 b 166 -36 163 -42 160 -48 b 155 -61 150 -73 146 -85 b 144 -88 143 -91 142 -95 b 141 -98 140 -101 138 -105 b 136 -112 134 -119 132 -127 b 129 -142 126 -158 127 -176 b 127 -180 127 -185 128 -189 b 129 -192 129 -194 129 -197 l 131 -204 b 134 -213 137 -223 143 -232 b 146 -237 149 -241 152 -245 b 154 -247 156 -249 158 -251 b 160 -253 161 -255 163 -257 b 167 -260 172 -263 176 -266 b 178 -267 180 -269 183 -270 l 190 -273 b 192 -274 194 -275 196 -276 b 199 -277 201 -278 203 -278 b 208 -279 212 -281 217 -281 l 223 -283 b 225 -283 228 -283 230 -283 b 234 -284 238 -284 242 -284 b 259 -284 273 -282 288 -279 b 295 -277 302 -276 308 -274 l 327 -268 l 346 -263 l 364 -257 l 383 -251 l 401 -244 b 498 -209 590 -167 684 -138 b 731 -123 779 -111 827 -106 b 833 -105 839 -104 845 -104 l 863 -103 b 870 -102 876 -102 882 -102 b 888 -102 893 -102 899 -102 b 910 -103 920 -105 928 -110 b 932 -113 935 -115 938 -119 b 940 -122 942 -126 943 -131 b 944 -137 944 -142 944 -145 b 943 -149 942 -152 943 -154 b 943 -156 944 -157 949 -155 b 951 -154 953 -152 955 -148 b 957 -144 959 -139 959 -133 b 958 -120 953 -107 943 -99 z m 741 625 b 742 628 744 631 744 633 b 745 635 745 636 745 636 b 742 626 736 611 726 594 b 717 577 704 557 688 536 b 672 513 653 488 631 460 b 609 432 584 403 559 372 b 507 311 449 246 396 181 b 370 148 344 115 321 83 b 316 75 310 67 305 59 b 299 51 294 43 289 35 b 286 31 284 27 281 23 b 279 20 276 16 274 12 b 269 4 265 -4 260 -11 b 251 -26 244 -41 236 -55 b 234 -58 232 -62 231 -65 b 229 -68 227 -72 225 -75 b 222 -82 219 -88 216 -95 b 210 -107 204 -119 200 -129 b 196 -140 192 -149 190 -157 b 187 -170 186 -182 187 -193 b 188 -199 190 -204 193 -209 b 196 -214 200 -219 204 -222 b 194 -216 187 -205 184 -193 b 182 -187 182 -181 182 -174 b 182 -168 182 -161 184 -154 b 184 -154 184 -150 186 -143 b 188 -136 191 -127 196 -114 b 201 -102 207 -87 215 -70 b 217 -66 219 -62 221 -58 b 223 -53 226 -49 228 -44 b 230 -39 233 -35 235 -30 b 238 -25 240 -20 243 -15 b 265 24 294 69 328 114 b 362 160 401 206 441 252 b 481 297 521 342 559 385 b 597 428 632 469 660 505 b 667 514 674 523 680 531 b 686 539 692 547 698 555 b 709 570 718 584 726 596 b 733 608 738 618 741 625 z m 293 122 b 297 128 301 133 305 139 b 309 144 314 150 318 156 b 322 162 327 168 332 174 b 336 180 341 186 346 193 b 351 199 356 205 361 211 b 366 218 371 224 376 230 b 387 242 397 255 407 267 b 448 314 486 357 505 378 b 525 399 525 399 493 361 b 493 361 478 343 455 317 b 443 303 430 288 416 271 b 401 254 386 236 371 218 b 363 208 356 199 349 190 b 345 185 341 180 338 176 b 334 171 330 167 327 162 b 313 144 300 127 289 111 b 267 80 253 57 249 53 b 246 49 263 80 293 122 z m 373 -227 b 370 -228 366 -229 361 -230 b 356 -232 350 -234 343 -236 b 335 -238 327 -240 317 -242 b 299 -247 275 -253 246 -253 b 239 -253 231 -252 224 -251 b 216 -249 208 -247 200 -243 b 193 -239 186 -233 180 -226 b 174 -219 169 -211 166 -202 b 163 -193 162 -184 162 -174 b 162 -165 163 -156 165 -146 b 169 -128 175 -110 183 -92 b 187 -83 191 -74 195 -65 b 196 -63 197 -61 198 -58 b 199 -56 200 -54 201 -52 b 204 -47 206 -43 208 -38 b 213 -29 218 -20 222 -10 b 227 -2 233 8 238 17 b 248 35 260 53 272 71 l 276 78 l 281 85 b 284 89 287 94 291 98 b 297 107 303 117 310 125 b 316 134 323 143 330 152 b 333 157 337 161 340 165 l 351 179 b 358 187 365 196 372 205 b 379 214 386 222 394 231 b 452 300 513 367 569 432 b 583 448 596 464 609 480 b 623 496 635 512 647 527 b 659 543 671 558 682 573 b 693 588 702 603 710 619 b 727 649 736 680 734 708 b 731 735 719 758 705 774 b 691 790 676 800 665 807 b 654 813 647 817 644 818 b 644 818 645 818 647 817 b 649 816 652 814 656 812 b 664 808 675 802 688 791 b 692 788 695 785 698 782 b 702 779 705 775 708 772 b 710 770 711 768 713 766 b 714 765 715 764 715 762 b 716 761 717 760 717 759 b 719 757 720 755 722 752 b 723 750 724 747 726 744 b 730 734 734 722 736 709 b 737 696 736 682 733 667 b 726 639 711 609 692 581 b 682 567 671 552 660 538 b 650 523 638 508 626 493 b 620 485 614 478 608 470 b 602 463 596 455 589 447 b 577 432 564 417 550 401 b 524 370 496 339 468 307 b 454 291 440 275 427 259 b 413 243 399 226 385 210 b 379 202 372 193 365 185 b 359 177 352 168 345 160 b 339 152 333 143 326 135 b 320 126 313 118 308 109 b 259 41 217 -29 189 -98 b 181 -115 175 -132 171 -150 b 168 -167 167 -185 173 -201 b 178 -217 190 -231 204 -238 b 211 -242 218 -244 226 -246 b 230 -247 233 -247 237 -247 b 241 -248 244 -248 248 -248 b 277 -249 302 -242 323 -238 b 328 -237 333 -236 338 -235 b 343 -234 348 -232 352 -231 b 361 -229 369 -228 376 -226 b 376 -226 375 -226 373 -227 z"},"x":{"x_min":0,"x_max":403,"ha":403,"o":"m 422 220 b 405 197 388 175 369 155 b 360 145 350 136 341 127 b 331 118 321 110 310 103 b 300 95 290 89 279 84 b 268 78 258 74 249 72 b 239 70 231 70 226 71 b 220 73 215 76 209 80 b 206 82 203 84 200 87 b 197 90 194 93 191 97 b 185 104 179 113 173 123 b 163 141 154 160 144 179 b 163 207 181 236 197 265 b 202 275 208 285 213 296 b 218 306 223 317 228 328 b 233 340 247 373 263 406 b 279 438 297 470 305 481 b 311 490 306 500 296 491 b 288 483 262 461 236 438 b 211 415 185 391 176 383 b 157 368 140 349 125 331 b 113 316 102 302 91 287 b 82 304 71 328 61 352 b 44 390 30 430 26 446 b 22 458 11 461 12 445 b 14 431 16 391 19 351 b 22 312 27 272 27 257 b 29 237 32 217 36 196 b 16 156 0 112 -12 67 b -26 18 -36 -33 -43 -82 b -44 -91 -33 -98 -28 -87 b -10 -43 16 -3 43 35 b 54 51 66 67 77 82 b 84 69 92 56 102 42 b 113 28 127 14 143 2 b 160 -9 180 -18 203 -21 b 214 -23 226 -23 237 -21 b 248 -20 258 -17 268 -13 b 287 -5 302 5 315 16 b 328 28 339 39 349 52 b 360 65 369 78 377 91 b 385 104 392 118 399 131 b 412 158 423 185 435 211 b 439 221 430 231 422 220 z m 174 79 b 187 65 203 55 216 52 b 229 48 243 49 253 49 b 260 48 268 49 276 51 b 269 47 262 44 255 42 b 254 42 253 41 252 41 b 250 40 247 40 244 39 b 237 38 228 36 217 38 b 206 40 194 46 182 54 b 171 63 160 75 152 89 b 143 102 135 117 129 131 b 126 136 124 141 122 146 b 123 147 123 147 123 148 b 124 149 125 151 126 153 b 130 146 133 139 137 132 b 148 113 160 94 174 79 z m 176 283 b 165 264 148 235 131 206 b 129 210 127 213 125 217 b 156 264 189 305 189 305 b 188 301 183 293 176 283 z m 165 314 b 186 342 201 360 203 363 b 203 363 200 359 195 352 b 191 345 184 335 175 323 b 159 300 138 268 117 234 b 116 236 115 239 114 241 b 132 268 150 294 165 314 z m 109 252 b 109 252 109 252 109 252 b 108 252 108 253 107 254 b 114 263 116 265 109 252 z m 108 192 b 110 189 111 186 112 183 b 113 181 114 180 114 178 b 114 176 113 175 112 174 b 110 179 108 184 107 189 b 107 190 108 191 108 192 z m 102 208 b 101 208 101 208 101 207 b 100 210 100 211 100 211 b 101 210 101 209 102 208 z m 12 61 b 12 61 21 80 36 109 b 41 118 47 129 53 139 b 54 136 55 133 56 130 b 56 129 55 129 55 128 b 37 97 22 72 12 61 z m 65 106 l 49 92 l 59 110 b 59 110 60 112 62 115 b 63 112 64 109 65 107 b 65 107 65 107 65 106 z m 65 248 b 62 258 61 264 61 266 b 61 266 62 260 65 251 b 65 250 65 249 65 249 b 65 248 65 248 65 248 z m 78 200 b 77 201 77 203 76 205 b 77 206 78 207 78 208 b 79 206 79 205 80 203 b 79 202 79 201 78 200 z m 85 179 b 83 183 82 186 81 189 b 82 190 83 192 84 193 b 85 190 86 187 87 184 b 86 182 85 181 85 179 z m 96 148 b 94 153 92 158 90 163 b 91 165 92 166 93 168 b 95 163 97 158 99 153 b 98 151 97 150 96 148 z m 167 25 b 159 29 151 36 144 43 b 137 50 130 58 125 66 b 113 82 106 97 102 105 b 100 109 100 111 100 110 b 101 110 103 107 107 100 b 107 100 110 94 116 85 b 121 77 129 65 139 53 b 144 48 150 43 155 38 b 161 33 167 29 172 26 b 182 19 190 16 192 14 b 193 13 181 16 167 25 z m 315 55 b 306 48 293 37 275 29 b 266 24 255 20 243 18 b 232 16 219 16 206 20 b 180 26 158 44 141 65 b 133 75 126 87 120 98 b 115 107 111 115 107 124 b 108 126 109 127 111 129 b 116 118 123 106 130 94 b 142 74 158 54 178 41 b 188 34 199 29 210 27 b 221 24 232 24 243 26 b 264 29 282 39 296 47 b 299 49 303 51 306 53 b 307 53 309 54 310 55 b 312 56 313 57 315 58 b 317 60 320 61 322 63 b 324 64 327 65 328 66 b 328 66 324 62 315 55 z"},")":{"x_min":0,"x_max":513,"ha":513,"o":"m 448 472 b 439 519 423 564 404 607 b 384 649 361 689 333 726 b 324 736 309 755 288 776 b 267 797 239 820 209 837 b 193 845 177 852 162 858 b 146 863 131 866 117 868 b 103 870 90 870 80 869 b 75 869 70 868 66 867 b 62 865 59 864 57 862 b 53 860 51 857 50 854 b 50 851 50 848 51 847 b 52 845 53 845 54 846 b 56 846 58 848 61 850 b 65 851 69 852 76 852 b 80 852 84 852 89 851 b 92 850 94 850 97 849 b 100 848 102 848 105 847 b 116 843 128 839 140 833 b 152 826 164 819 175 810 b 197 793 216 771 230 752 b 243 732 253 715 257 705 b 266 687 275 668 283 648 l 289 634 l 295 619 b 299 610 303 600 306 590 b 321 551 333 511 342 470 b 351 429 358 388 362 347 b 365 305 367 262 365 219 b 363 176 357 133 347 90 b 338 48 324 5 305 -35 b 301 -45 296 -55 291 -65 b 288 -70 285 -74 283 -79 b 280 -84 277 -89 274 -94 b 263 -112 250 -131 236 -148 b 226 -160 230 -175 247 -160 b 279 -129 309 -96 335 -59 b 361 -23 385 17 404 59 b 423 100 438 145 448 190 b 458 236 463 283 463 330 b 463 377 458 425 448 472 z m 371 494 b 371 493 373 488 376 477 b 376 477 377 474 378 470 b 379 466 380 459 382 452 b 384 444 386 435 387 426 b 388 421 389 416 390 411 b 391 406 391 400 392 395 b 393 390 394 385 394 380 b 395 374 395 369 396 364 b 397 354 397 345 397 336 b 398 328 398 321 398 316 b 398 310 397 307 397 306 b 397 305 396 308 396 314 b 396 317 395 321 395 326 b 395 330 394 336 394 341 b 393 353 392 366 390 380 b 390 386 389 393 388 400 b 387 407 386 414 384 421 b 380 449 374 473 372 486 b 371 492 370 495 371 494 z m 407 209 b 406 201 404 193 403 186 b 400 171 397 157 393 145 b 392 139 390 133 388 128 b 386 123 385 118 383 113 b 380 104 376 96 373 90 b 373 90 374 93 375 97 b 376 99 377 102 378 105 b 379 109 380 112 381 117 b 382 121 383 125 385 131 b 386 136 387 141 389 147 b 392 159 394 172 397 187 b 402 217 405 252 406 289 b 407 327 405 367 400 407 b 394 448 385 487 375 524 b 364 561 351 595 338 624 b 332 639 326 652 320 664 b 314 675 308 686 303 694 b 294 711 287 722 285 725 b 285 725 290 717 299 704 b 303 698 308 690 313 680 b 316 675 318 670 321 665 b 324 659 327 654 330 648 b 355 600 382 531 398 456 b 406 418 411 379 413 341 b 415 303 414 266 410 233 b 409 225 408 216 407 209 z m 439 283 b 439 278 439 274 439 270 b 438 266 438 262 437 259 b 436 251 436 244 434 237 b 433 230 432 224 431 219 b 430 216 429 213 429 211 b 428 208 427 206 426 204 l 420 185 b 417 178 415 172 412 166 b 414 172 415 179 416 186 l 420 206 b 420 206 420 208 420 211 b 421 215 421 220 422 226 b 424 238 425 256 426 277 b 427 288 427 299 427 311 b 427 317 427 324 427 330 b 427 336 427 343 426 349 b 425 376 423 404 418 432 b 410 487 395 542 381 581 b 377 591 374 600 371 608 b 368 616 365 623 363 629 b 360 635 358 639 357 642 b 356 645 355 647 355 647 b 357 643 361 637 364 629 b 368 621 373 612 377 601 b 388 577 400 546 411 510 b 421 474 430 434 435 395 b 440 355 442 316 439 283 z"},"&":{"x_min":0,"x_max":682,"ha":682,"o":"m 632 179 b 631 185 629 189 628 190 b 626 192 624 191 622 186 b 622 184 621 182 620 178 b 619 174 618 170 616 165 b 610 144 599 125 586 109 b 573 92 558 77 541 63 b 509 36 471 15 432 1 b 393 -13 352 -18 312 -14 b 302 -14 292 -12 283 -9 b 274 -7 265 -4 257 0 b 240 7 227 18 218 31 b 210 44 205 60 203 77 b 202 94 205 111 211 127 b 222 161 246 191 274 220 b 314 260 359 296 407 326 b 427 335 447 344 466 355 b 474 360 483 365 491 370 l 443 459 b 427 451 412 443 396 434 b 375 423 353 414 331 406 b 322 403 312 399 303 396 b 293 393 284 391 275 388 b 256 383 239 381 224 381 b 220 381 216 381 212 381 b 209 381 205 382 202 382 b 195 384 189 386 183 388 b 177 391 172 394 168 398 b 166 399 164 401 162 403 b 161 405 160 407 158 409 b 153 417 150 429 150 443 b 151 451 152 458 153 466 b 155 474 157 481 160 489 l 163 495 l 165 501 b 167 505 169 509 172 513 b 176 521 181 529 186 536 b 197 552 209 567 223 580 b 250 608 282 633 316 655 b 326 661 341 669 358 678 b 376 687 398 695 423 703 b 436 706 449 709 463 712 b 469 713 477 714 484 714 b 491 715 497 716 504 715 b 518 715 532 713 544 708 b 549 705 554 702 558 697 b 562 693 566 688 568 682 b 571 670 570 655 565 641 b 563 634 560 627 557 620 b 555 616 553 613 551 610 b 549 607 547 603 545 600 b 527 575 505 554 483 538 b 472 530 460 523 449 517 b 444 515 438 512 433 510 b 430 509 427 507 425 506 b 422 506 419 505 417 504 b 412 502 406 501 402 499 b 397 498 392 497 388 496 b 379 494 371 494 364 494 b 359 495 353 495 349 497 b 345 498 341 500 338 501 b 331 505 328 508 327 508 b 326 508 325 507 325 506 b 326 504 326 502 328 499 b 332 493 341 485 358 482 b 365 480 373 480 383 481 b 385 481 388 481 390 481 b 392 482 395 482 397 482 b 402 483 407 484 412 485 b 423 487 434 491 446 495 b 458 499 470 504 483 510 b 495 517 508 525 520 534 b 533 543 545 553 556 565 b 562 571 567 577 573 583 b 575 587 578 590 580 593 b 583 597 585 600 588 604 b 597 619 605 636 609 657 b 611 667 611 678 609 690 b 607 701 602 712 596 722 b 589 731 581 740 572 746 b 563 752 554 756 545 759 b 536 763 527 765 518 766 b 510 768 501 769 493 769 b 489 769 485 769 481 769 b 477 769 473 769 470 769 b 462 769 455 769 448 768 b 391 764 348 749 325 741 b 303 734 281 724 260 713 b 239 702 219 690 199 676 b 160 648 123 613 95 571 b 88 560 81 549 75 537 b 69 525 64 512 60 499 b 56 486 53 472 51 457 b 50 443 49 428 52 412 b 54 396 58 380 66 365 b 68 361 70 357 72 354 b 74 350 77 347 79 343 b 84 336 90 330 96 324 b 108 312 122 303 136 296 b 150 289 164 284 179 281 b 190 279 201 277 211 277 b 199 263 188 248 177 232 b 164 211 151 188 143 163 b 141 156 140 150 138 143 b 137 140 137 137 136 133 b 135 130 135 127 134 123 b 133 110 133 96 134 82 b 136 55 144 28 161 4 b 169 -8 179 -19 190 -28 b 201 -37 213 -44 226 -49 b 251 -59 276 -63 300 -64 b 349 -66 397 -55 440 -36 b 483 -17 522 9 555 41 b 571 57 587 74 600 93 b 613 112 624 133 630 157 b 632 165 632 173 632 179 z m 271 250 b 251 233 233 216 217 197 b 231 218 248 237 267 256 b 277 267 288 277 299 287 b 308 289 317 292 325 294 b 303 277 285 262 271 250 z m 454 429 l 451 436 b 451 436 451 436 452 436 l 455 430 b 456 430 456 430 457 431 l 475 397 b 474 397 474 396 473 396 l 477 389 b 477 389 476 389 476 389 l 472 396 b 446 380 413 362 376 347 b 382 351 389 355 395 360 b 423 372 450 386 471 398 l 470 401 b 470 401 470 401 471 401 l 472 399 b 472 399 473 400 473 400 l 458 428 b 458 427 457 427 457 427 l 458 425 b 458 425 457 425 457 424 l 456 426 b 427 413 407 401 403 400 b 399 398 420 412 454 429 z m 461 420 b 461 420 462 420 462 421 l 469 407 b 469 407 469 406 468 406 l 465 413 b 465 413 464 413 464 413 l 468 406 b 468 406 467 406 467 405 l 463 412 b 463 412 463 412 463 412 b 463 412 463 412 463 412 l 460 419 b 460 420 460 420 461 420 l 464 413 b 464 413 465 413 465 413 z m 363 363 b 380 370 396 377 412 385 b 397 376 382 367 368 357 b 366 356 365 356 363 355 b 355 352 348 349 340 347 b 347 352 355 358 363 363 z m 318 330 b 326 332 333 335 341 338 b 338 335 334 333 331 330 b 324 328 318 326 311 324 b 313 326 316 328 318 330 z m 167 554 b 165 551 162 547 160 544 b 157 540 155 536 152 532 b 148 524 143 516 138 506 b 132 493 128 479 125 463 b 124 455 123 447 123 439 b 123 431 124 423 126 415 b 130 399 139 386 152 375 b 166 365 184 358 203 355 b 222 352 243 354 264 359 b 278 362 293 366 307 371 b 300 365 293 359 286 353 b 273 350 260 347 247 346 b 235 344 223 344 211 345 b 199 346 188 348 177 352 b 156 360 137 374 128 393 b 118 412 116 436 119 458 b 121 470 124 481 129 492 b 133 504 138 514 145 525 b 157 545 172 565 190 582 b 184 576 176 567 167 554 z m 113 373 b 99 393 94 417 94 439 b 94 462 99 483 107 503 b 123 543 148 575 174 602 b 200 628 226 648 250 663 b 274 679 294 690 310 697 b 326 705 336 709 340 710 b 340 710 333 708 321 702 b 310 697 293 688 272 676 b 252 663 228 647 203 625 b 178 604 153 577 132 542 b 126 534 122 525 117 516 b 113 506 109 496 106 486 b 103 476 101 465 100 454 b 99 443 98 432 100 421 b 103 399 113 377 130 361 b 148 345 170 335 193 331 b 216 326 240 328 263 332 b 260 329 258 327 255 324 b 249 323 243 322 236 322 b 225 321 213 321 202 323 b 190 324 179 327 168 331 b 157 335 147 341 137 348 b 128 355 119 363 113 373 z m 207 309 b 198 310 190 312 183 314 b 168 317 158 322 153 324 b 150 326 149 326 149 327 b 149 327 150 326 153 325 b 158 323 169 318 189 315 b 189 315 189 314 191 314 b 192 314 195 314 198 313 b 204 312 212 311 223 312 b 229 312 236 312 244 313 b 243 312 242 311 241 309 b 239 309 237 309 235 309 b 225 308 216 309 207 309 z m 189 179 b 184 170 180 161 177 153 b 173 144 171 136 168 128 b 164 111 163 96 163 82 b 163 68 165 56 167 46 b 167 46 167 49 165 54 b 164 60 162 69 161 81 b 160 92 160 107 164 124 b 165 132 167 141 171 150 b 174 159 178 169 183 179 b 193 198 207 219 224 239 b 233 249 242 259 252 270 b 256 273 259 276 262 279 b 263 280 263 280 264 280 b 267 280 271 281 274 282 b 256 264 240 247 225 230 b 211 213 199 196 189 179 z"},"_":{"x_min":0,"x_max":521,"ha":521,"o":"m 467 -15 b 409 4 351 28 292 34 b 262 37 232 38 202 32 b 188 29 173 26 159 19 b 142 11 72 -21 56 -26 b 49 -28 47 -39 55 -39 b 70 -39 138 -51 153 -56 b 168 -61 182 -63 197 -65 b 226 -67 256 -69 285 -66 b 344 -62 406 -37 466 -30 b 471 -30 474 -17 467 -15 z m 201 5 b 235 10 309 18 332 3 l 345 -5 l 332 -4 b 332 -4 323 -3 309 -3 b 295 -2 276 -1 258 0 b 222 1 185 2 185 2 b 188 4 194 4 201 5 z m 241 -33 b 241 -33 255 -32 269 -31 b 283 -31 298 -31 299 -32 b 302 -36 211 -37 241 -33 z m 265 -23 b 211 -22 156 -22 152 -22 b 152 -22 198 -17 249 -16 b 300 -14 355 -15 373 -24 b 373 -24 319 -23 265 -23 z"},"v":{"x_min":0,"x_max":475,"ha":475,"o":"m 488 205 b 460 190 431 177 401 171 b 394 169 386 168 379 168 b 371 167 364 167 357 168 b 356 168 356 168 355 168 b 355 169 356 169 356 170 b 359 186 362 203 365 219 b 368 236 370 252 372 269 b 377 302 380 336 380 371 b 380 380 380 389 379 398 b 379 403 379 407 378 412 l 378 419 b 377 422 377 426 377 430 l 373 454 l 372 460 b 372 462 372 463 371 465 l 369 477 l 366 488 b 365 491 364 495 363 498 l 360 508 b 359 512 358 515 357 518 l 349 536 l 348 538 l 347 539 l 344 543 l 340 549 b 338 551 337 553 335 555 b 334 557 332 558 330 560 b 327 563 323 566 320 568 b 316 571 312 573 307 575 b 302 577 297 578 292 579 b 286 580 281 580 275 580 b 270 579 264 578 260 576 b 251 573 244 568 236 561 b 229 554 222 545 217 535 b 211 524 206 513 201 500 b 197 487 194 473 191 459 b 190 452 189 445 188 438 b 187 431 186 422 186 419 b 185 410 185 401 184 392 b 184 375 184 357 186 338 b 190 302 198 266 214 232 b 221 216 231 199 244 184 b 246 182 248 179 251 176 b 241 131 228 88 210 50 l 205 40 b 203 37 202 34 200 31 l 197 27 l 195 23 b 193 20 192 17 190 15 b 183 5 176 -3 170 -7 b 167 -10 164 -11 161 -12 b 159 -13 156 -14 152 -14 b 144 -14 134 -11 125 -6 b 120 -2 112 3 104 12 b 96 22 88 35 80 51 b 73 68 66 88 61 110 b 55 132 49 155 44 178 b 33 225 24 272 18 312 b 12 352 8 385 6 403 b 4 432 -7 441 -7 406 b -7 389 -7 359 -6 320 b -5 282 -3 236 0 191 b 2 168 4 145 6 123 b 9 101 11 80 15 60 b 17 49 19 40 22 30 b 24 21 27 12 30 5 b 36 -11 44 -24 49 -33 b 55 -42 61 -50 68 -58 l 74 -63 b 76 -65 78 -67 80 -69 b 84 -73 89 -76 94 -79 b 103 -85 114 -91 126 -94 b 138 -98 151 -100 164 -100 b 178 -99 192 -96 204 -91 b 216 -86 226 -79 235 -72 b 253 -58 266 -42 277 -26 b 287 -11 297 5 305 21 b 313 37 320 53 327 70 b 333 86 338 103 343 120 b 345 125 346 131 348 137 b 366 136 384 139 402 144 b 436 154 466 172 494 190 b 514 203 517 220 488 205 z m 251 325 b 250 354 254 383 260 412 l 260 413 l 260 414 l 261 415 l 261 416 b 262 417 262 418 262 419 b 263 421 264 423 265 424 b 267 427 269 429 270 430 b 271 431 272 431 273 431 b 275 432 276 431 277 430 b 279 427 280 423 280 421 b 280 418 280 416 279 414 b 279 413 279 413 279 412 b 279 412 279 412 278 411 b 278 411 278 411 278 411 l 279 411 l 279 409 l 279 407 b 279 405 279 403 279 401 b 279 372 277 343 274 312 b 272 297 269 282 267 266 b 266 259 265 252 264 245 b 255 271 251 297 251 325 z m 209 -2 b 213 2 216 7 220 13 b 223 19 227 25 231 32 b 239 47 247 65 254 86 b 262 107 268 130 274 154 b 274 155 274 156 275 157 b 277 156 279 154 282 153 b 281 151 281 148 280 146 b 271 111 259 79 246 54 b 240 41 233 29 227 20 b 221 10 215 2 210 -4 b 200 -16 194 -21 194 -21 b 197 -17 203 -11 209 -2 z m 295 114 b 287 87 277 61 265 37 b 262 32 259 26 255 20 b 254 17 252 15 251 12 b 249 9 247 6 246 4 b 239 -7 232 -17 224 -26 b 216 -35 207 -42 197 -48 b 188 -54 177 -58 167 -59 b 157 -61 147 -60 138 -57 b 129 -55 122 -52 115 -48 b 102 -41 93 -32 87 -25 b 84 -22 81 -19 80 -17 b 78 -14 77 -13 76 -12 b 76 -12 76 -12 77 -14 b 78 -15 80 -17 82 -19 b 84 -22 87 -24 90 -28 b 91 -29 93 -31 95 -33 b 97 -34 99 -36 101 -38 b 111 -45 123 -53 140 -56 b 148 -58 157 -59 166 -57 b 175 -56 185 -53 194 -47 b 211 -37 226 -20 238 -1 b 251 18 262 40 272 63 b 282 89 291 117 298 146 b 300 145 301 144 303 144 b 301 134 298 124 295 114 z m 303 259 b 300 238 296 217 292 196 b 289 198 287 201 285 204 b 285 204 284 205 284 205 b 285 214 287 223 288 232 b 292 260 296 287 299 314 b 301 341 303 368 302 393 b 302 399 302 405 301 411 l 301 414 b 301 415 301 416 301 417 b 301 418 301 420 301 422 b 300 428 299 434 298 440 b 298 443 297 447 297 450 b 296 453 296 456 295 459 b 293 465 292 471 288 476 b 284 481 279 484 274 485 b 270 485 266 483 264 482 b 256 477 249 469 243 457 b 247 472 253 486 262 498 b 262 498 263 500 266 502 b 267 503 269 505 272 506 b 274 507 277 507 281 507 b 284 506 288 504 291 502 b 294 499 297 495 299 491 b 301 487 303 482 304 477 b 305 471 307 466 308 460 b 311 449 312 437 314 424 b 314 421 314 417 314 414 b 314 410 315 405 315 401 b 315 397 315 392 315 388 b 315 383 315 379 315 374 b 314 338 310 298 303 259 z m 306 184 b 308 195 310 207 312 218 b 321 273 329 329 329 385 b 329 412 326 439 321 465 b 320 472 318 478 317 484 b 315 491 313 497 311 503 b 309 509 307 515 304 520 b 300 526 296 530 290 533 b 285 536 278 537 272 535 b 267 533 262 529 259 525 b 251 516 246 506 242 496 b 233 477 227 457 223 438 b 219 418 217 402 215 388 b 214 381 213 374 212 368 b 212 362 211 356 211 351 b 211 351 210 355 211 362 b 211 366 211 370 211 375 b 211 380 212 386 212 392 b 213 399 214 406 215 414 b 215 416 215 418 215 420 b 216 422 216 424 217 427 b 217 431 218 436 219 441 b 223 462 229 484 239 505 b 244 515 250 525 258 534 b 262 538 267 542 274 543 b 280 544 287 542 293 539 b 299 536 304 532 307 526 b 311 521 314 515 316 509 b 317 505 319 502 320 499 b 321 495 322 492 323 488 b 324 485 325 481 326 478 b 327 474 328 470 328 467 b 332 451 334 435 335 419 b 335 415 335 412 336 408 b 336 404 336 401 336 397 b 336 390 336 382 336 375 b 336 346 333 316 330 286 b 325 251 319 215 312 181 b 310 182 308 183 306 184 z m 346 324 b 345 303 342 282 339 261 b 334 227 328 196 324 175 b 323 176 322 176 322 176 b 322 177 322 178 322 178 b 322 178 323 182 324 189 b 325 195 327 205 329 216 b 332 239 337 270 340 302 b 344 333 345 365 345 391 b 344 397 344 403 344 408 b 344 411 344 414 344 416 b 344 419 343 422 343 424 b 342 435 342 442 342 444 b 342 446 343 440 345 428 b 345 424 346 421 346 417 b 346 414 347 411 347 407 b 347 400 348 392 348 383 b 348 366 348 345 346 324 z"},"O":{"x_min":0,"x_max":808,"ha":808,"o":"m 379 968 b 346 965 314 956 285 943 b 256 930 230 913 207 893 b 183 873 163 851 146 827 b 110 780 85 727 69 673 b 65 657 59 634 55 606 b 51 578 49 545 51 509 b 53 473 59 434 75 395 b 79 385 83 376 89 367 b 91 362 94 357 97 353 b 100 348 102 344 105 340 b 118 323 132 306 148 293 l 154 288 l 161 283 b 165 280 169 276 173 273 b 182 268 190 262 199 257 b 217 247 236 239 254 232 b 266 228 277 225 289 222 b 287 210 285 198 284 186 b 280 159 278 132 277 105 b 277 78 277 50 280 23 b 280 16 282 9 282 2 l 284 -8 l 286 -18 b 287 -25 288 -32 290 -39 b 291 -45 293 -52 295 -59 b 298 -73 303 -87 310 -100 b 314 -107 318 -114 322 -120 b 326 -126 331 -133 337 -138 b 348 -150 362 -160 377 -167 b 385 -170 393 -172 402 -174 b 411 -175 420 -176 429 -175 b 447 -173 463 -167 477 -160 b 491 -153 504 -143 515 -134 b 527 -125 538 -114 548 -103 b 553 -98 557 -92 562 -87 b 566 -81 571 -75 575 -69 b 592 -46 607 -20 619 5 b 631 31 642 57 651 83 b 657 96 661 109 665 122 b 670 135 673 149 677 162 b 692 216 703 271 710 327 b 716 382 719 439 716 495 b 716 509 715 523 714 537 l 712 558 b 711 566 710 573 710 580 b 709 587 708 594 707 601 l 704 622 b 702 636 699 650 696 664 b 690 693 683 722 672 750 b 662 779 648 807 631 834 b 613 861 592 886 567 907 b 542 928 512 946 479 957 b 447 967 412 971 379 968 z m 492 -68 b 484 -77 476 -86 466 -94 b 457 -102 448 -109 439 -114 b 430 -118 421 -120 413 -120 b 404 -120 395 -117 386 -112 b 377 -107 368 -100 361 -92 b 354 -83 348 -73 343 -62 b 332 -40 325 -13 320 12 b 309 65 306 119 309 173 b 309 188 310 203 312 217 b 329 214 347 212 363 212 b 397 211 428 215 453 222 b 478 228 498 238 510 246 b 513 247 515 249 517 250 b 520 252 521 253 523 255 b 527 258 530 261 532 264 b 537 269 539 273 539 275 b 538 277 536 277 531 274 b 526 271 519 266 507 259 b 505 258 502 256 499 254 b 497 254 495 253 493 252 b 491 251 490 250 488 249 b 484 248 479 246 474 245 b 470 243 465 242 459 240 b 438 235 411 232 381 234 b 360 235 337 239 315 245 b 318 275 323 306 328 336 b 335 375 326 397 314 344 b 307 318 302 292 297 265 b 296 261 295 256 294 251 b 292 252 289 253 287 254 b 283 255 279 257 275 258 b 271 260 267 262 263 263 b 259 265 255 267 251 269 l 245 272 l 240 275 b 236 278 232 280 229 282 l 218 289 l 212 293 b 211 294 209 296 207 297 l 197 305 l 188 313 l 183 318 b 181 319 180 321 178 322 l 170 332 b 167 335 164 338 162 341 l 158 346 l 154 351 b 152 355 150 358 147 362 b 145 365 143 369 141 372 l 138 377 b 137 379 137 381 136 383 b 122 411 116 442 114 471 b 112 500 113 526 116 549 b 119 571 123 588 127 600 b 140 648 160 693 187 733 b 214 774 248 810 286 834 b 305 846 326 856 347 861 b 367 867 389 869 410 868 b 430 866 449 860 467 850 b 486 841 503 827 518 811 b 525 803 532 794 539 785 l 543 778 l 548 771 b 551 766 554 761 556 756 b 567 735 576 713 583 690 b 597 643 606 591 612 540 b 618 488 620 435 619 382 b 617 329 612 276 603 223 b 594 171 580 119 563 68 b 546 18 524 -30 492 -68 z m 513 860 b 515 859 526 852 545 833 b 545 833 549 829 555 821 b 562 813 571 800 581 785 b 590 769 600 749 608 727 b 616 705 623 681 629 656 b 640 606 647 554 650 513 b 650 503 651 493 651 485 b 652 476 652 468 652 462 b 652 449 652 440 651 437 b 651 436 651 437 651 441 b 650 445 650 450 650 458 b 650 466 649 476 648 487 b 648 498 647 511 645 525 b 644 539 643 554 640 570 b 638 585 635 602 633 618 b 627 652 619 686 608 717 b 597 749 583 777 568 799 b 561 810 553 820 546 827 b 543 832 539 835 536 838 b 533 842 530 845 527 847 b 525 849 522 852 520 853 b 518 855 517 857 515 858 b 513 860 512 861 513 860 z m 595 51 b 583 22 571 -2 558 -22 b 546 -43 533 -58 523 -70 b 523 -70 524 -69 526 -66 b 527 -65 528 -64 529 -62 b 530 -60 532 -58 533 -56 b 540 -47 549 -33 559 -15 b 569 4 580 27 591 54 b 594 61 596 69 599 76 b 601 83 604 91 607 99 b 609 107 612 115 614 124 b 617 132 620 140 622 149 b 642 220 657 305 660 397 b 662 443 660 491 656 539 b 655 545 655 551 654 557 b 653 563 652 569 652 575 b 650 588 648 600 646 612 b 642 636 637 660 631 684 b 625 708 617 731 607 754 b 597 776 586 798 571 817 b 543 856 504 887 461 902 b 418 917 371 914 330 902 b 289 889 254 866 226 841 b 198 816 175 788 158 761 b 141 734 128 709 119 687 b 109 665 103 646 99 632 b 99 629 98 625 97 623 b 96 620 96 617 95 615 b 94 610 93 607 93 605 b 93 605 93 607 94 609 b 94 612 95 616 96 620 b 97 625 99 631 101 638 b 102 642 103 645 104 649 b 105 653 107 658 108 662 b 114 680 123 701 135 725 b 147 748 162 774 183 800 b 203 825 229 851 260 872 b 292 894 330 910 372 915 b 382 917 393 917 403 917 b 414 917 425 916 436 914 b 457 910 478 902 498 891 b 537 869 570 835 594 794 b 618 754 633 709 644 663 b 646 651 649 640 651 628 b 653 617 655 605 657 594 b 659 582 660 570 661 559 b 663 547 664 536 665 524 b 673 432 667 341 654 260 b 640 179 618 108 595 51 z m 528 903 b 568 875 602 836 625 792 b 649 747 664 699 674 651 b 683 604 689 557 692 511 b 695 465 695 422 693 381 b 690 341 685 304 680 272 b 674 240 667 213 660 192 l 653 169 l 645 146 l 641 135 l 636 123 l 628 101 l 635 124 l 639 136 l 642 148 b 644 156 646 164 648 172 l 654 196 b 654 197 658 214 664 244 b 669 274 676 317 679 368 b 680 381 681 394 681 408 b 682 415 681 422 682 429 b 682 436 682 443 682 451 b 681 480 680 511 677 543 b 676 559 673 575 671 591 b 670 600 669 608 667 616 b 666 624 665 632 663 641 b 657 674 649 707 637 740 b 625 773 609 804 588 832 b 567 860 542 885 513 902 b 499 911 484 919 468 924 b 453 929 437 933 421 934 b 390 938 360 934 334 928 b 308 921 285 911 267 900 b 248 890 232 878 220 869 b 209 859 200 850 194 845 b 188 839 185 836 185 836 b 192 844 204 857 220 871 b 237 885 259 901 286 914 b 316 928 354 940 396 941 b 418 942 440 939 463 933 b 474 930 485 925 496 920 b 507 915 517 909 528 903 z"},"(":{"x_min":0,"x_max":552,"ha":552,"o":"m 500 900 b 499 902 497 903 494 904 b 491 906 488 907 484 909 b 476 911 465 913 451 913 b 438 912 422 910 406 905 b 398 903 390 900 382 896 b 374 893 366 889 358 885 b 342 876 326 865 311 853 b 281 829 256 802 236 778 b 231 772 226 766 222 761 b 218 755 213 751 210 746 b 203 736 197 729 193 723 b 162 682 136 635 116 586 b 75 488 53 382 50 277 b 50 250 50 224 52 197 b 53 183 54 170 56 157 b 57 143 59 130 61 116 b 70 63 86 7 115 -42 b 129 -67 147 -90 167 -110 b 187 -130 211 -147 236 -160 b 262 -173 290 -180 318 -182 b 345 -184 374 -180 400 -170 b 402 -170 404 -169 406 -167 b 408 -166 409 -165 410 -164 b 413 -161 414 -159 414 -157 b 414 -155 413 -154 410 -153 b 408 -153 407 -153 405 -153 b 404 -154 402 -154 401 -154 b 400 -154 398 -155 397 -155 b 373 -161 349 -161 325 -157 b 302 -152 280 -143 261 -130 b 242 -118 225 -102 212 -84 b 205 -75 198 -66 193 -56 b 187 -46 182 -36 178 -26 b 160 16 152 61 149 107 b 148 130 147 154 148 178 b 148 190 148 202 148 213 l 150 249 b 155 344 172 440 199 531 b 212 576 228 620 245 664 b 248 670 251 679 256 690 b 261 700 267 713 274 726 b 288 754 306 785 329 813 b 340 827 352 840 366 852 b 379 863 393 873 407 881 b 421 888 435 893 447 895 b 459 898 470 897 478 896 b 490 894 499 893 501 895 b 503 896 503 898 500 900 z m 83 225 b 83 224 82 227 82 235 b 82 239 82 243 82 249 b 82 254 82 260 82 267 b 82 274 82 281 82 288 b 83 296 83 304 84 312 b 85 328 87 345 89 361 b 90 370 91 377 92 385 b 94 392 95 400 96 406 b 99 419 101 430 103 438 b 106 452 107 452 103 426 b 103 426 93 379 89 330 b 85 281 85 230 83 225 z m 185 575 b 184 571 182 566 180 561 b 178 555 176 550 174 544 b 172 537 170 530 168 522 b 167 519 166 515 165 511 b 163 507 162 502 161 498 b 159 490 157 481 155 472 b 153 463 151 453 149 443 b 141 404 135 361 131 319 b 124 235 127 154 125 115 b 124 100 124 86 124 71 b 121 86 119 100 118 115 b 118 116 117 124 116 137 b 115 151 114 170 113 193 b 112 240 115 302 124 362 b 133 423 149 482 164 525 b 168 536 171 546 175 554 b 178 563 181 570 184 576 b 185 579 186 582 187 585 b 188 587 189 589 190 591 b 191 594 192 595 192 595 b 191 591 188 584 185 575 z m 219 700 b 217 696 214 690 209 682 b 205 675 200 665 195 654 b 190 643 183 630 177 616 b 174 609 171 602 168 594 b 165 586 162 578 159 570 b 157 565 156 561 154 557 b 153 553 151 548 150 544 b 147 535 144 526 141 516 b 130 479 121 437 114 395 b 107 352 103 308 101 265 b 99 222 100 181 103 143 b 105 105 110 70 116 42 b 119 28 122 15 125 5 b 128 -6 131 -16 133 -23 b 133 -23 132 -20 130 -15 b 128 -10 125 -3 121 7 b 115 26 107 54 101 88 b 91 157 89 249 99 342 b 105 388 113 434 125 476 b 136 519 150 558 164 591 b 167 600 171 607 174 615 b 178 623 181 630 184 637 b 188 643 191 650 194 656 b 197 661 200 667 202 672 b 208 682 213 690 216 695 b 219 701 222 705 223 706 b 223 706 222 704 219 700 z"},"C":{"x_min":0,"x_max":700,"ha":700,"o":"m 441 593 b 437 573 431 554 424 534 b 411 496 392 459 369 426 b 360 414 356 403 357 399 b 358 397 360 397 363 399 b 367 401 372 405 379 413 b 431 477 468 553 486 636 b 490 657 492 678 492 701 b 492 723 488 746 480 768 b 479 770 478 773 477 776 l 473 784 l 468 792 b 467 795 465 797 463 800 b 456 810 448 819 439 827 b 421 844 397 856 370 861 b 357 863 342 862 329 859 b 315 856 303 851 292 845 b 280 839 270 832 261 824 b 252 817 244 809 236 801 b 203 768 179 730 158 692 b 118 616 89 534 72 450 b 54 365 47 277 51 190 b 51 185 51 179 52 174 l 53 158 l 54 141 l 56 125 b 58 103 61 81 65 60 b 73 16 85 -27 102 -69 b 110 -90 120 -110 132 -129 b 143 -149 156 -168 171 -186 b 187 -204 205 -220 226 -234 b 247 -247 270 -257 295 -261 b 310 -264 331 -266 356 -262 b 381 -257 407 -245 431 -227 b 454 -209 475 -187 493 -162 b 511 -138 528 -111 543 -84 b 573 -28 595 29 611 79 b 627 128 638 169 645 192 b 655 228 649 242 634 200 b 627 180 613 143 594 99 b 585 77 574 53 561 29 b 549 5 535 -20 520 -43 b 505 -67 488 -89 471 -108 b 467 -113 462 -118 458 -123 b 454 -127 449 -132 445 -136 b 436 -145 428 -153 419 -159 b 402 -173 386 -181 373 -186 b 360 -191 349 -191 342 -191 b 329 -191 314 -187 301 -181 b 294 -177 287 -174 281 -169 b 275 -165 269 -160 263 -154 b 240 -132 221 -101 206 -67 b 176 1 163 78 157 157 b 151 236 154 316 164 393 b 175 472 194 551 223 626 b 238 664 254 700 276 731 b 281 739 287 746 293 754 b 299 761 305 768 311 774 b 324 786 337 794 350 797 b 356 799 362 799 369 798 b 376 797 384 795 391 792 b 405 785 418 774 427 760 b 432 753 436 745 439 737 b 442 729 445 720 447 711 b 450 693 451 673 450 653 b 448 633 445 613 441 593 z m 156 -119 b 148 -105 139 -87 130 -66 b 121 -44 111 -17 104 12 b 100 27 96 43 93 59 b 90 75 87 91 85 108 b 83 126 81 143 80 161 b 78 179 77 197 76 215 b 75 252 76 289 79 325 b 81 362 85 398 92 433 b 98 467 106 499 115 529 b 132 588 154 636 171 665 b 184 686 197 707 212 727 b 199 706 187 683 177 660 b 177 659 171 647 162 626 b 153 604 141 573 130 536 b 119 498 108 454 100 405 b 93 357 88 305 87 253 b 86 201 88 149 94 101 b 100 52 109 7 121 -31 b 133 -68 147 -99 158 -119 b 163 -130 168 -138 171 -143 b 175 -148 176 -151 176 -151 b 171 -144 164 -134 156 -119 z m 321 813 b 314 810 304 803 292 793 b 286 788 279 782 273 775 b 266 768 259 760 252 751 b 239 734 225 712 212 688 b 206 675 199 662 193 649 b 190 642 187 635 184 628 b 181 620 178 613 175 606 b 164 576 153 544 144 510 b 135 476 127 440 122 404 b 116 367 112 329 110 292 b 107 216 111 140 122 69 b 125 52 128 34 132 18 b 136 1 141 -16 146 -31 b 152 -47 157 -62 164 -76 b 170 -90 177 -104 184 -117 b 198 -142 215 -163 232 -180 b 241 -188 250 -195 259 -201 b 267 -206 276 -211 284 -214 b 301 -221 315 -224 326 -225 b 337 -226 344 -225 346 -225 b 346 -225 345 -225 343 -226 b 341 -226 339 -226 335 -226 b 328 -226 317 -225 303 -222 b 289 -218 273 -212 256 -201 b 240 -191 223 -175 207 -156 b 191 -136 177 -113 164 -87 b 152 -61 141 -32 132 -1 b 115 62 106 131 103 203 b 102 238 102 274 104 310 b 106 346 110 382 116 417 b 122 452 129 486 138 518 b 143 534 148 550 153 566 b 158 581 164 596 170 611 b 181 640 194 667 207 691 b 220 716 235 738 249 756 b 264 774 280 788 294 799 b 308 809 322 816 332 818 b 332 818 328 817 321 813 z m 122 224 b 122 212 123 200 123 190 b 123 179 124 169 125 161 b 125 152 125 145 126 139 b 127 127 127 121 127 123 b 126 125 124 135 122 156 b 122 156 122 161 121 169 b 121 178 120 190 119 204 b 118 233 118 272 120 312 b 122 351 128 391 133 421 b 136 437 139 450 141 460 b 143 469 145 476 146 478 b 148 481 141 454 135 412 b 134 406 133 401 132 395 b 132 390 131 384 130 378 b 129 366 128 353 126 340 b 124 314 122 287 122 261 b 122 255 122 249 122 242 b 122 236 122 230 122 224 z"},"W":{"x_min":0,"x_max":1109,"ha":1109,"o":"m 685 364 l 678 379 b 678 380 677 382 676 383 b 676 384 675 385 674 386 b 673 388 671 390 670 392 b 663 399 656 405 648 410 b 636 416 622 420 608 419 b 594 418 581 414 569 408 b 563 404 557 400 551 395 b 545 390 540 385 535 379 b 532 376 530 373 527 370 b 525 366 523 363 520 359 l 514 350 b 513 348 512 346 510 344 b 491 313 476 281 464 249 b 439 185 423 124 399 69 b 389 46 378 24 366 4 b 360 -5 354 -13 350 -16 l 348 -17 b 348 -18 347 -18 347 -18 b 346 -19 345 -19 344 -19 b 344 -19 343 -19 343 -19 b 343 -19 342 -19 342 -19 b 341 -19 341 -19 340 -19 b 340 -18 339 -18 338 -18 b 335 -17 332 -15 329 -13 b 326 -10 322 -7 319 -4 b 316 -1 313 3 309 8 b 296 25 285 47 276 70 b 271 83 264 103 257 128 b 250 153 243 183 235 216 b 219 282 205 362 191 442 b 177 522 164 603 149 671 b 142 704 132 734 120 758 b 114 769 108 779 101 787 b 94 795 87 799 81 802 b 71 806 62 805 57 802 b 51 800 50 797 50 795 b 50 794 51 794 52 793 b 52 793 54 793 55 793 b 57 793 59 793 62 793 b 65 793 68 793 73 791 b 77 789 81 787 86 782 b 91 777 96 769 101 760 b 103 755 105 749 107 743 b 109 738 112 731 114 725 b 117 712 121 698 123 682 b 126 667 129 651 131 634 b 133 617 134 599 136 580 b 140 544 143 506 147 467 b 153 390 160 313 168 248 b 176 184 185 131 190 103 b 195 76 201 47 212 18 b 217 4 223 -11 231 -25 b 233 -29 235 -32 237 -36 b 239 -39 241 -43 243 -46 b 248 -54 254 -61 260 -68 b 267 -74 274 -81 282 -87 b 290 -93 300 -99 311 -103 b 314 -104 316 -105 320 -106 b 323 -107 326 -107 329 -108 b 332 -108 335 -109 339 -109 b 342 -109 345 -110 348 -109 b 361 -109 374 -106 386 -101 b 399 -95 408 -88 416 -81 b 423 -74 430 -67 435 -60 b 438 -57 440 -53 443 -50 b 445 -47 447 -44 449 -40 l 456 -31 l 459 -26 l 462 -21 b 482 14 498 50 512 85 b 526 120 538 155 550 188 b 563 221 577 252 593 280 l 599 290 l 602 295 l 602 295 b 602 294 602 295 602 294 b 602 294 602 294 602 294 l 602 294 l 602 294 l 602 294 b 602 294 602 294 602 294 b 608 278 613 262 617 245 b 626 211 633 176 641 140 b 644 127 647 114 650 101 l 656 82 l 658 72 l 661 62 b 663 56 665 49 668 43 l 675 23 b 677 16 680 10 683 3 l 687 -6 l 692 -16 l 697 -26 b 699 -29 700 -32 702 -35 l 714 -54 b 718 -61 722 -66 726 -72 b 729 -76 731 -78 733 -82 b 734 -83 737 -86 739 -88 b 741 -90 743 -93 745 -95 b 762 -112 783 -125 805 -129 b 808 -129 810 -130 813 -130 b 816 -130 818 -130 821 -130 b 824 -130 827 -130 829 -130 b 832 -129 835 -129 837 -129 b 840 -128 843 -127 845 -126 b 848 -125 851 -124 853 -123 b 855 -122 858 -121 860 -119 b 863 -118 865 -116 867 -115 b 874 -109 880 -102 886 -94 b 891 -87 895 -78 898 -68 b 900 -63 901 -58 903 -53 l 905 -49 b 905 -47 905 -46 906 -44 l 910 -27 b 916 -4 921 18 924 41 b 931 87 933 132 935 176 l 937 242 b 937 263 938 285 939 306 b 941 350 944 393 948 436 b 956 522 969 607 989 690 b 994 711 1000 731 1006 752 b 1009 762 1012 772 1016 783 l 1021 798 l 1026 813 b 1040 853 1057 892 1076 930 b 1094 965 1093 989 1065 942 b 1062 937 1059 933 1057 928 l 1049 913 l 1041 899 b 1038 894 1036 889 1034 884 l 1019 855 b 1017 850 1014 845 1012 840 l 1006 825 b 996 805 989 784 980 764 l 969 733 l 964 717 l 959 701 b 944 660 933 617 922 574 l 915 542 b 913 531 910 520 908 509 b 903 488 900 466 896 444 b 888 401 882 357 877 313 b 874 291 871 269 869 247 l 862 182 b 858 139 852 97 844 56 b 839 36 834 16 828 -3 l 823 -18 b 823 -19 823 -20 822 -21 l 821 -25 l 820 -26 b 819 -27 818 -29 817 -30 b 816 -30 814 -30 813 -30 b 811 -29 810 -28 809 -27 b 809 -27 808 -26 808 -25 b 808 -25 808 -25 808 -25 b 808 -25 808 -25 808 -25 l 807 -24 l 804 -19 l 796 -8 b 794 -4 792 0 790 4 b 781 20 774 37 768 55 b 762 73 756 91 751 111 b 741 152 734 197 724 243 b 721 254 718 266 715 278 l 710 296 b 709 302 707 307 705 313 l 699 334 b 694 344 690 354 685 364 z m 701 44 b 700 48 697 55 694 64 b 688 83 681 110 673 143 b 666 175 659 212 649 249 b 648 253 647 258 646 262 l 642 276 b 639 285 636 294 633 303 l 632 306 b 632 307 632 307 631 308 l 630 312 b 629 315 628 317 627 320 b 625 326 622 331 618 335 b 615 338 610 340 605 339 b 601 338 597 336 593 334 b 586 329 581 322 578 316 b 576 314 575 313 574 311 b 573 309 571 307 570 304 b 567 300 565 296 563 292 b 560 288 558 285 557 281 b 555 278 553 275 552 272 b 551 270 549 268 548 266 b 547 264 547 263 546 262 b 545 260 545 260 546 262 b 546 263 547 264 548 266 b 549 268 550 271 551 274 b 553 277 555 281 557 285 b 559 290 562 294 565 300 b 565 300 566 302 568 307 b 570 309 571 311 573 314 b 575 316 576 319 578 321 b 581 327 586 333 593 338 b 597 341 601 343 606 344 b 611 344 616 343 620 339 b 624 336 626 331 629 326 b 631 320 633 315 635 309 b 637 302 640 294 642 287 b 645 279 647 270 650 262 b 659 228 666 193 673 161 b 679 130 686 101 692 79 b 695 68 697 59 700 53 b 702 46 703 41 703 39 b 704 38 703 39 701 44 z m 882 30 b 889 65 894 97 897 127 b 901 157 903 184 905 207 b 908 230 910 249 912 265 b 912 265 912 260 911 249 b 910 238 909 221 907 195 b 907 182 906 166 904 149 b 903 131 901 111 898 88 b 895 65 891 39 884 11 b 881 -3 877 -18 872 -33 b 871 -37 870 -40 868 -45 b 867 -50 865 -54 863 -58 b 860 -67 855 -76 848 -83 b 848 -83 844 -87 835 -91 b 831 -92 825 -93 818 -92 b 812 -92 804 -90 797 -86 b 790 -82 782 -76 775 -69 b 771 -66 767 -62 764 -57 b 761 -53 758 -49 756 -45 b 743 -28 733 -7 723 16 b 703 62 690 119 678 179 b 671 209 665 239 657 270 b 654 277 652 285 650 292 l 646 304 l 645 309 b 644 311 643 313 643 314 l 635 334 b 633 340 630 346 625 351 b 621 355 616 357 611 357 b 606 357 601 356 596 353 b 587 349 580 341 574 333 b 571 329 568 325 565 320 b 564 318 562 316 560 313 l 556 306 b 553 301 550 296 547 291 b 545 286 542 281 540 276 b 529 255 520 234 512 213 b 504 192 497 171 489 151 b 475 109 460 69 442 33 b 440 28 438 23 435 19 b 433 15 430 10 428 6 b 425 2 423 -3 421 -7 b 418 -11 415 -15 413 -19 b 408 -27 402 -35 396 -42 b 389 -49 382 -56 374 -61 b 369 -63 365 -65 360 -66 b 358 -67 355 -68 353 -68 b 351 -68 348 -68 346 -68 b 337 -69 327 -66 319 -62 b 303 -55 291 -44 282 -32 b 272 -20 265 -8 259 4 b 253 15 248 27 244 37 b 236 58 232 75 229 88 b 225 101 223 110 223 113 b 223 113 224 107 227 97 b 229 86 234 70 240 50 b 247 31 257 7 273 -17 b 281 -30 292 -42 306 -52 b 312 -57 320 -61 329 -63 b 337 -66 347 -67 356 -65 b 365 -63 374 -58 382 -52 b 389 -45 395 -38 401 -30 b 404 -26 407 -22 409 -18 b 412 -14 415 -9 417 -5 b 420 -1 422 4 425 8 b 427 13 430 17 432 22 b 451 59 466 100 481 142 b 489 164 496 186 504 208 b 512 230 521 252 532 273 b 542 295 554 316 568 336 b 575 346 583 355 594 362 b 599 365 605 367 611 367 b 613 367 614 366 616 366 b 617 366 619 365 620 365 b 623 364 626 362 628 360 b 632 356 635 351 638 346 b 640 341 642 335 644 330 b 646 325 648 320 650 314 l 656 298 b 657 295 658 292 658 290 l 661 281 l 665 265 b 668 254 671 243 674 232 b 684 187 692 143 703 99 b 709 78 715 57 723 36 b 725 31 727 26 729 21 b 730 18 731 16 732 13 l 735 6 b 738 1 740 -4 742 -8 b 745 -13 748 -18 750 -22 b 755 -32 762 -40 768 -49 b 773 -58 781 -65 789 -72 b 797 -78 806 -83 817 -85 b 822 -85 827 -85 832 -84 b 834 -83 836 -82 838 -81 b 841 -79 842 -78 844 -76 b 851 -69 855 -59 859 -50 b 860 -46 862 -41 863 -36 b 865 -32 866 -27 868 -23 b 871 -14 873 -5 875 4 b 878 13 880 22 882 30 z m 734 87 b 735 82 737 77 738 71 b 740 66 742 61 743 56 b 747 46 751 37 754 27 b 756 22 758 18 760 13 b 761 11 763 9 764 7 b 765 5 766 2 767 0 b 769 -4 771 -8 774 -12 b 775 -14 776 -16 777 -18 b 778 -20 780 -22 781 -24 b 783 -28 786 -31 788 -35 b 789 -37 791 -39 791 -39 b 792 -40 793 -41 794 -42 b 797 -46 801 -49 805 -52 b 809 -55 814 -57 818 -57 b 823 -57 827 -56 831 -53 b 835 -49 837 -45 839 -40 b 840 -38 841 -36 842 -34 l 843 -32 b 843 -32 843 -32 844 -31 l 844 -30 b 845 -29 846 -27 846 -25 b 858 3 867 34 875 65 b 869 33 862 1 852 -30 l 849 -39 b 848 -42 847 -45 846 -48 b 844 -53 841 -59 837 -63 b 834 -66 830 -68 826 -69 b 822 -70 817 -70 813 -69 b 805 -67 798 -62 791 -57 b 788 -54 785 -51 783 -48 l 781 -45 b 780 -44 779 -43 778 -42 l 774 -35 b 771 -31 768 -27 765 -22 l 757 -9 b 756 -6 755 -4 753 -2 l 750 6 b 748 10 745 15 743 20 l 737 35 l 734 42 l 732 50 l 727 65 l 722 80 b 719 91 717 101 714 112 b 704 154 696 197 686 240 b 681 262 676 284 669 305 b 667 311 666 315 663 322 l 655 342 l 651 351 b 650 354 648 357 647 360 b 643 366 639 371 634 375 b 629 378 623 381 616 382 b 610 383 603 382 597 380 b 585 376 574 367 565 357 b 560 353 556 347 552 341 l 546 332 b 544 330 542 327 541 325 l 532 311 b 531 308 529 306 528 303 l 524 296 l 517 281 l 509 266 l 506 258 l 503 251 l 496 235 b 488 215 480 194 473 174 b 458 133 444 93 426 54 b 424 49 421 45 419 40 b 417 36 414 31 412 26 b 407 17 402 8 396 0 b 393 -5 390 -9 387 -13 b 384 -17 381 -21 378 -25 b 372 -32 366 -38 359 -41 b 362 -39 366 -36 371 -32 b 375 -27 380 -21 385 -13 b 396 3 409 24 420 49 b 430 71 440 96 449 124 b 459 152 469 183 481 216 b 493 248 506 283 525 316 b 528 321 530 325 533 329 b 534 331 535 333 537 335 l 542 343 b 546 349 550 355 554 360 b 558 365 563 370 568 374 b 578 383 589 389 601 392 b 608 393 614 393 620 392 b 627 391 633 388 638 385 b 645 380 650 374 655 367 b 656 366 657 364 658 362 b 659 360 660 358 661 356 l 667 343 l 672 331 b 674 326 676 322 677 318 l 683 300 b 691 275 697 250 702 226 b 713 177 722 130 734 87 z"},"A":{"x_min":0,"x_max":1323,"ha":1323,"o":"m 1247 -206 b 1250 -219 1254 -229 1257 -234 b 1261 -262 1274 -274 1273 -233 b 1267 -67 1267 100 1262 267 b 1259 351 1255 435 1249 518 b 1246 561 1242 602 1237 645 b 1232 688 1225 731 1213 775 b 1211 781 1209 787 1207 794 b 1205 800 1203 806 1201 812 b 1199 819 1196 825 1194 831 b 1191 837 1188 844 1185 851 b 1182 858 1178 865 1173 873 b 1168 880 1162 887 1155 894 b 1154 896 1152 898 1150 900 b 1148 901 1146 903 1144 905 b 1142 906 1139 908 1137 910 b 1134 912 1132 913 1129 914 b 1118 920 1107 924 1095 926 b 1080 928 1065 927 1050 923 b 1037 919 1026 913 1016 907 b 1007 900 998 894 991 887 b 987 883 984 880 981 876 b 978 873 975 870 972 866 b 960 852 949 838 940 823 b 931 808 923 793 916 778 b 909 763 903 748 897 733 b 894 726 891 719 888 711 b 885 704 883 697 880 689 b 870 660 860 630 852 600 b 834 536 820 471 809 406 b 782 420 754 431 725 441 b 702 448 679 454 655 458 b 632 462 608 466 584 467 b 536 469 488 466 441 457 b 347 439 258 401 181 348 b 154 329 127 307 102 280 b 96 273 90 266 85 258 b 82 255 79 251 77 247 b 74 243 71 239 69 234 b 64 225 59 215 55 203 b 54 200 53 197 52 193 b 52 190 51 186 51 182 b 50 175 50 168 51 160 b 52 151 54 143 57 135 b 59 131 61 127 63 123 b 65 119 68 116 70 112 b 80 99 92 90 105 82 b 108 81 111 79 114 77 b 118 76 121 75 124 73 b 130 71 137 69 143 68 b 155 65 167 64 177 63 b 188 62 198 62 208 62 b 217 62 227 62 237 63 b 257 64 276 65 295 67 b 334 71 371 77 409 84 b 445 91 482 98 519 104 b 603 120 687 134 771 147 b 767 117 763 87 760 56 b 746 -69 736 -194 731 -242 b 728 -280 737 -293 744 -247 b 750 -206 771 -89 796 26 b 806 70 817 115 826 155 b 870 161 913 166 957 171 b 988 175 1003 189 960 187 b 917 185 875 183 833 181 b 834 184 834 186 835 189 b 845 227 853 260 860 281 b 867 277 875 272 883 267 b 888 264 894 260 901 256 b 908 251 915 246 924 240 b 928 237 932 234 937 231 b 941 228 946 224 950 221 b 955 217 960 213 965 209 b 970 205 975 201 980 197 b 1001 180 1022 160 1043 138 b 1064 116 1086 92 1105 67 b 1144 16 1177 -40 1201 -89 b 1225 -139 1239 -182 1247 -206 z m 876 585 b 888 629 906 685 932 746 b 945 776 960 808 983 838 b 989 846 995 853 1001 860 l 1006 865 b 1008 867 1010 869 1012 870 b 1016 874 1020 877 1024 880 b 1032 887 1042 893 1053 897 b 1059 899 1065 900 1072 901 b 1078 902 1085 902 1091 901 b 1099 900 1106 898 1112 895 b 1116 894 1119 892 1122 890 b 1125 888 1128 886 1131 884 b 1141 875 1149 865 1155 856 b 1161 846 1166 836 1170 826 b 1174 817 1178 808 1181 799 b 1194 762 1202 726 1208 693 b 1214 659 1217 629 1220 602 b 1222 575 1223 553 1224 535 b 1224 510 1224 485 1224 460 b 1222 485 1219 511 1216 536 b 1209 598 1203 661 1189 723 b 1185 738 1181 754 1177 769 b 1172 784 1167 799 1161 814 b 1155 829 1148 845 1137 859 b 1132 866 1125 873 1117 878 b 1109 884 1100 888 1090 890 b 1084 890 1077 890 1071 889 b 1068 889 1065 888 1062 888 b 1059 887 1056 886 1054 885 b 1043 880 1033 874 1025 867 b 1021 864 1017 860 1013 857 b 1009 853 1006 849 1002 845 b 995 838 989 830 983 822 b 959 788 942 752 927 716 b 896 643 873 568 852 493 b 855 509 863 542 876 585 z m 877 501 b 892 561 912 630 940 702 b 955 737 970 774 993 807 b 1004 824 1017 840 1032 854 b 1040 860 1048 866 1058 870 b 1067 874 1078 876 1088 875 b 1096 874 1103 871 1110 866 b 1117 861 1122 855 1127 849 b 1137 836 1144 821 1150 806 b 1162 776 1170 745 1177 715 b 1184 684 1189 654 1193 625 b 1197 596 1200 568 1203 541 b 1215 433 1220 347 1220 303 b 1220 303 1218 320 1216 351 b 1213 383 1208 428 1203 483 b 1201 497 1199 511 1198 526 b 1196 541 1194 557 1192 573 b 1188 605 1184 639 1177 674 b 1171 709 1163 746 1150 782 b 1149 787 1147 791 1145 796 b 1144 800 1142 805 1140 809 b 1136 818 1132 827 1127 835 b 1118 851 1104 865 1087 868 b 1079 869 1071 868 1063 865 b 1055 862 1048 857 1041 852 b 1034 846 1028 840 1022 833 b 1016 827 1010 820 1004 812 b 983 783 967 749 952 716 b 924 649 902 581 885 521 b 870 468 859 421 850 384 b 849 385 849 385 848 385 b 856 417 865 456 877 501 z m 1159 716 b 1159 712 1154 733 1143 766 b 1142 770 1141 775 1139 779 b 1137 783 1136 788 1134 793 b 1132 797 1130 802 1128 807 b 1126 812 1124 816 1122 821 b 1117 829 1112 838 1105 844 b 1104 845 1104 846 1103 847 l 1100 849 b 1099 850 1097 851 1095 852 b 1092 853 1089 855 1085 855 b 1080 856 1075 855 1071 854 b 1066 852 1061 850 1056 846 b 1051 843 1046 839 1041 835 b 1037 831 1032 826 1028 821 b 1011 802 1000 783 992 769 b 984 755 980 746 979 747 b 979 747 980 749 982 754 b 985 759 988 767 994 777 b 994 777 996 781 1000 787 b 1004 794 1009 803 1017 813 b 1021 818 1026 823 1031 829 b 1036 834 1041 840 1047 844 b 1053 849 1059 853 1066 856 b 1069 857 1072 858 1076 859 b 1079 859 1082 859 1085 859 b 1089 858 1093 857 1096 856 b 1098 855 1099 854 1101 853 b 1102 852 1104 850 1106 849 b 1112 843 1117 836 1122 828 b 1124 824 1126 820 1128 815 b 1130 811 1132 807 1134 802 b 1137 794 1141 785 1143 777 b 1154 745 1159 720 1159 716 z m 839 342 b 839 342 839 342 839 343 b 839 343 839 344 839 345 b 839 344 840 344 840 344 b 840 343 840 343 839 342 z m 186 312 b 191 316 196 319 201 323 b 207 326 212 330 218 334 b 221 335 223 337 226 339 b 229 341 232 343 235 344 b 241 348 247 352 254 355 b 279 369 306 382 333 393 b 346 397 359 403 372 406 b 379 408 385 411 391 412 b 397 414 403 415 409 417 b 432 423 451 426 464 428 b 477 430 484 430 482 430 b 479 429 468 427 445 423 b 445 423 440 421 431 419 b 426 418 421 417 415 416 b 408 414 401 412 394 410 b 363 401 323 386 284 366 b 245 347 208 324 180 304 b 152 283 134 265 130 262 b 126 259 148 285 186 312 z m 390 107 b 378 106 360 103 334 101 b 308 98 273 95 229 96 b 224 96 218 96 212 96 b 207 96 201 96 195 97 b 182 97 169 98 156 102 b 149 103 142 105 135 108 b 128 111 121 115 115 120 b 108 126 103 132 98 139 b 96 143 94 147 92 151 b 91 155 90 160 89 164 b 88 173 90 182 92 191 b 95 199 99 207 104 215 b 114 231 127 247 143 262 b 158 277 175 291 195 304 b 214 318 235 330 257 343 b 279 355 302 366 326 376 b 330 377 333 379 336 380 b 339 381 342 382 345 383 b 351 386 357 388 364 390 b 370 392 377 394 383 396 l 393 399 l 402 402 b 428 409 455 414 482 418 b 489 419 495 420 502 420 b 509 421 516 421 522 422 b 536 423 549 423 562 423 b 616 423 667 414 713 400 b 736 393 757 385 777 376 b 786 372 794 368 802 364 b 802 364 801 363 801 362 b 799 363 797 364 795 365 b 791 367 786 369 782 371 b 779 372 777 373 775 374 b 772 375 770 376 768 377 b 749 385 728 392 707 398 b 685 404 662 409 638 412 b 632 413 626 414 619 415 b 613 415 607 416 601 416 b 598 417 595 417 591 417 b 588 417 585 417 582 417 b 576 418 569 418 563 418 b 556 418 550 418 543 418 b 540 417 537 417 534 417 b 530 417 527 417 524 416 b 517 416 511 416 504 415 b 498 414 491 413 484 412 b 458 409 431 403 405 396 l 395 393 b 392 392 389 391 386 390 b 379 388 373 386 366 384 b 353 379 340 374 328 369 b 321 366 315 364 309 361 l 290 352 b 284 349 278 345 272 342 l 263 338 b 260 336 257 334 254 332 b 248 329 242 326 236 322 b 230 318 224 315 219 311 b 207 304 196 296 185 288 b 164 272 144 254 128 234 b 119 223 112 213 106 202 b 100 190 96 178 97 165 b 98 156 102 146 108 139 b 113 131 120 125 128 120 b 144 111 162 107 179 105 b 213 102 245 101 274 102 b 332 103 378 108 407 109 b 407 109 402 109 390 107 z m 123 160 b 124 158 125 155 127 153 b 130 148 134 144 139 140 b 143 137 149 134 154 132 b 160 130 165 128 170 126 b 182 123 194 121 206 119 b 219 118 232 116 244 115 b 231 115 218 115 205 116 b 192 117 180 117 168 120 b 153 122 139 127 129 135 b 124 139 119 144 116 149 b 112 155 110 160 110 167 b 109 173 110 179 112 185 b 115 192 118 198 122 204 b 130 217 140 229 151 240 b 172 262 197 281 224 298 b 251 316 279 331 307 344 b 336 357 366 368 396 377 b 426 386 457 392 489 396 b 496 396 504 398 512 398 l 536 400 l 559 400 b 563 400 567 400 571 399 l 583 399 b 614 397 645 393 675 385 b 705 378 735 367 764 355 b 748 360 717 373 674 382 b 635 391 586 396 532 392 b 478 388 419 376 363 354 b 306 333 252 303 206 270 b 183 253 163 236 147 217 b 140 208 132 198 128 189 b 126 185 124 181 123 177 b 122 174 122 171 122 168 b 122 165 122 163 123 160 z m 782 233 b 780 216 777 197 775 178 b 687 173 600 167 513 160 b 438 154 364 145 292 143 b 274 143 256 143 238 144 b 229 144 220 145 212 145 b 203 146 194 147 186 148 b 178 149 171 151 165 152 b 162 153 160 154 157 155 b 156 156 155 157 154 157 b 153 158 152 158 151 159 b 148 161 145 164 144 166 b 144 167 144 167 144 168 b 144 168 144 168 143 168 b 143 168 143 168 143 168 b 143 169 143 170 143 170 b 144 171 144 171 144 172 b 145 174 146 176 147 179 b 149 182 151 185 154 189 l 158 194 l 162 200 b 175 215 190 229 206 241 b 221 253 238 264 256 275 l 262 279 l 269 283 l 282 290 b 291 295 300 299 309 304 b 346 322 384 336 423 346 b 462 357 502 363 542 365 b 582 367 622 364 661 358 b 706 349 751 334 794 315 b 791 292 787 265 782 233 z m 938 277 b 934 279 929 283 923 288 b 911 297 894 309 872 323 b 872 324 872 324 872 325 b 913 298 938 277 943 273 b 943 273 941 274 938 277 z m 1047 215 b 1043 220 1039 225 1035 230 b 1030 234 1026 239 1022 243 b 1018 248 1014 252 1010 256 b 1006 260 1002 263 999 267 b 991 274 985 281 979 286 b 973 292 968 296 963 300 b 939 323 912 344 883 363 b 888 380 893 398 898 415 b 910 455 921 495 933 535 b 943 566 954 597 965 627 b 971 642 976 658 982 672 b 989 687 995 702 1001 717 b 1015 745 1029 771 1046 792 b 1050 798 1054 803 1059 807 b 1061 810 1063 812 1065 814 b 1067 815 1069 817 1071 818 b 1075 821 1078 822 1080 823 b 1080 823 1080 823 1080 823 b 1080 823 1080 823 1080 823 b 1080 823 1080 823 1080 823 b 1080 823 1080 823 1080 823 b 1080 823 1080 823 1080 823 b 1082 823 1084 820 1087 816 b 1090 813 1093 808 1096 802 b 1097 799 1098 796 1100 793 l 1104 782 b 1133 710 1146 627 1159 542 b 1173 457 1185 371 1197 285 b 1217 135 1234 -15 1250 -164 b 1244 -144 1237 -120 1228 -93 b 1210 -43 1184 14 1153 69 b 1121 124 1083 175 1047 215 z"},"f":{"x_min":0,"x_max":261,"ha":261,"o":"m 268 246 b 252 240 222 230 185 215 b 176 211 166 207 157 203 b 151 201 147 199 140 196 b 136 194 133 192 129 191 b 126 189 122 187 118 185 b 114 184 111 182 107 180 b 104 178 100 176 97 174 b 94 172 92 170 90 168 b 87 226 88 284 92 341 b 125 375 157 411 186 450 b 197 465 207 480 218 496 b 227 513 237 529 245 546 b 254 564 262 582 267 602 b 272 623 274 644 272 668 b 271 671 271 674 270 677 b 269 680 268 684 267 687 b 265 694 262 701 258 707 b 251 720 240 731 227 737 b 215 744 200 747 185 746 b 170 744 156 738 143 730 b 141 729 140 728 138 727 l 133 723 b 131 721 128 719 126 717 b 122 713 117 709 113 705 b 111 703 109 700 108 698 l 103 692 b 99 688 96 683 93 679 b 81 662 71 643 63 625 b 54 607 47 588 40 570 b 34 552 28 533 23 515 b 13 478 4 440 -2 402 b -14 326 -18 247 -15 169 b -13 130 -9 91 -3 53 b 3 14 11 -25 25 -64 b 31 -83 39 -103 52 -123 b 58 -133 65 -143 74 -152 b 82 -162 93 -171 105 -178 b 112 -181 118 -184 125 -187 b 129 -188 132 -189 136 -190 b 139 -191 143 -191 147 -192 b 162 -193 177 -192 191 -188 b 204 -183 216 -177 227 -169 b 237 -161 246 -152 253 -141 b 258 -134 263 -126 267 -114 b 268 -113 269 -112 269 -110 b 270 -109 270 -107 271 -106 b 271 -103 272 -100 273 -96 b 275 -89 275 -83 276 -76 b 277 -47 269 -16 252 12 b 244 25 233 38 222 50 b 210 62 197 72 184 81 b 155 102 137 109 113 124 b 111 126 109 128 108 130 b 107 133 107 135 107 138 b 109 142 112 146 115 149 b 123 154 131 159 139 164 b 148 170 156 175 165 180 b 174 185 183 190 191 195 b 225 213 253 226 269 233 b 285 239 294 246 295 249 b 296 253 287 253 268 246 z m 213 628 b 213 613 209 596 204 579 b 202 571 199 563 195 554 b 192 546 189 537 185 529 b 177 512 169 496 160 479 b 141 446 120 414 96 383 b 99 409 103 435 108 461 b 111 479 115 497 119 514 l 125 541 b 128 550 130 558 133 567 b 138 584 143 600 150 615 b 153 623 157 630 161 637 b 163 641 165 644 167 647 b 168 649 170 651 171 652 b 171 654 172 655 173 656 b 175 659 177 661 180 664 l 181 665 b 182 666 182 667 182 667 b 182 667 183 667 184 668 b 185 670 188 671 191 672 b 192 673 194 673 195 673 b 197 673 198 672 200 671 b 202 670 205 668 207 665 b 208 663 208 662 209 660 b 210 657 211 654 211 651 b 213 644 213 636 213 628 z m 128 656 b 135 666 141 675 148 682 b 152 686 156 689 160 692 b 163 695 167 697 171 699 b 178 703 186 705 194 705 b 201 705 207 702 212 699 b 217 695 220 691 223 687 b 223 687 222 688 221 689 b 220 690 218 692 216 694 b 213 696 210 699 205 700 b 201 702 195 703 189 702 b 183 701 177 698 171 694 b 169 694 167 692 166 691 b 165 691 164 690 164 690 b 163 689 162 688 161 687 b 158 685 155 681 151 678 b 145 671 139 662 133 653 b 127 643 121 633 116 622 b 105 599 96 574 88 546 b 80 519 72 489 66 458 b 57 414 50 367 46 320 b 44 316 41 313 38 310 b 40 331 42 353 44 373 b 48 405 53 436 59 466 b 66 495 73 524 82 551 b 90 578 99 603 110 625 b 116 636 122 647 128 656 z m 60 123 b 62 102 61 102 57 139 b 57 139 56 143 56 151 b 55 159 54 169 54 182 b 52 209 52 244 53 279 b 53 287 53 294 54 301 b 55 303 56 304 58 306 b 57 282 56 257 56 234 b 56 187 59 145 60 123 z m 60 336 b 58 334 57 333 56 331 b 57 348 59 364 61 378 b 62 385 63 392 64 397 b 64 403 65 408 66 413 b 68 422 69 427 70 429 b 71 431 70 426 69 415 b 68 410 67 403 66 395 b 65 388 64 379 63 369 b 62 359 61 348 60 336 z m 75 -112 b 71 -106 67 -98 63 -90 b 60 -81 56 -72 53 -62 b 45 -41 39 -17 33 10 b 27 36 23 65 19 96 b 15 126 12 159 11 191 b 9 224 9 258 11 291 b 13 356 22 421 35 475 b 38 488 42 501 45 513 b 47 519 49 525 50 531 b 52 536 54 542 56 547 b 63 568 71 586 78 600 b 88 620 100 640 113 658 b 101 638 92 617 84 596 b 83 595 79 584 72 564 b 69 554 66 542 62 528 b 60 521 58 514 56 506 b 54 498 52 490 50 481 b 42 447 34 406 29 363 b 26 340 24 316 23 291 b 14 279 13 269 22 273 b 21 258 21 242 21 226 b 21 179 23 133 28 89 b 32 46 38 5 47 -30 b 51 -47 56 -62 61 -76 b 66 -91 72 -103 77 -112 b 83 -122 88 -129 92 -134 b 94 -136 96 -138 97 -139 b 98 -141 99 -141 99 -141 b 92 -136 84 -126 75 -112 z m 231 -100 b 235 -92 237 -86 237 -83 b 237 -83 237 -84 237 -86 b 236 -87 236 -90 235 -93 b 232 -99 228 -108 220 -117 b 219 -119 218 -120 217 -121 b 216 -122 215 -124 214 -125 b 212 -127 209 -129 206 -132 b 200 -136 193 -141 185 -144 b 177 -147 167 -148 158 -147 b 148 -147 138 -143 129 -137 b 119 -132 111 -124 104 -114 b 97 -104 90 -93 85 -82 b 80 -70 75 -57 71 -44 b 67 -31 63 -17 60 -3 b 54 26 49 55 45 86 b 42 117 39 149 37 181 b 36 213 36 245 37 277 b 37 280 37 282 37 285 b 37 285 37 285 37 285 b 40 288 42 290 45 293 b 44 282 44 271 43 261 b 43 227 43 193 45 159 b 47 126 50 93 54 61 b 59 29 64 -2 72 -31 b 80 -59 89 -86 103 -108 b 110 -118 118 -127 128 -134 b 137 -140 147 -144 157 -145 b 167 -146 177 -145 185 -142 b 194 -139 201 -134 207 -129 b 220 -119 227 -108 231 -100 z m 107 81 l 120 72 l 127 67 l 130 64 l 132 63 b 137 59 142 54 147 50 b 166 33 182 16 192 -1 b 202 -18 207 -35 208 -48 b 208 -55 208 -60 207 -65 b 206 -67 206 -69 206 -71 b 205 -72 205 -73 205 -74 b 204 -75 204 -75 204 -76 b 202 -80 200 -85 196 -89 b 193 -93 189 -96 185 -99 b 181 -102 177 -104 173 -105 b 169 -106 166 -106 163 -106 b 162 -106 161 -105 159 -105 b 159 -105 158 -104 157 -104 b 156 -104 156 -103 155 -103 b 152 -101 149 -99 146 -95 b 139 -88 133 -76 127 -63 b 126 -59 125 -56 123 -52 b 123 -51 122 -49 121 -47 b 121 -45 120 -43 120 -41 b 117 -33 115 -25 113 -17 b 109 0 106 17 103 34 b 100 51 98 69 96 87 b 96 88 96 89 96 90 b 100 87 103 84 107 81 z"},"Q":{"x_min":0,"x_max":831,"ha":831,"o":"m 225 17 b 240 12 254 9 269 7 b 271 1 273 -4 276 -10 b 280 -18 286 -27 291 -34 b 303 -50 318 -63 336 -72 b 345 -77 354 -81 364 -84 l 372 -86 l 380 -87 b 385 -87 390 -88 395 -88 b 416 -88 436 -83 453 -76 b 471 -68 486 -59 500 -49 b 504 -46 507 -43 511 -41 l 521 -33 b 524 -30 527 -27 530 -24 b 533 -21 536 -19 539 -16 b 543 -12 546 -9 549 -6 b 564 -21 579 -37 595 -52 b 617 -75 640 -97 664 -118 b 687 -138 712 -159 739 -176 b 748 -183 757 -187 764 -190 b 771 -193 777 -194 779 -194 b 782 -193 781 -191 777 -187 b 775 -184 772 -182 768 -179 b 766 -177 763 -175 761 -173 b 758 -171 755 -169 752 -167 l 734 -153 b 729 -149 723 -144 717 -139 l 708 -131 l 700 -124 b 695 -119 689 -114 684 -108 b 662 -87 642 -65 621 -43 b 604 -23 587 -3 570 17 b 571 18 572 20 573 21 b 584 34 594 47 603 60 b 621 88 637 116 651 145 b 665 174 677 204 688 234 b 710 294 725 356 734 420 b 743 484 746 550 739 616 b 736 649 730 682 722 715 b 713 748 702 781 685 813 b 669 844 647 875 619 901 b 605 914 589 926 572 935 b 567 938 563 940 559 942 l 545 948 l 531 953 b 526 955 521 956 517 957 b 479 967 440 967 404 960 b 385 957 368 952 351 945 b 334 939 317 931 302 921 b 272 903 245 881 222 856 b 199 832 179 805 161 778 b 153 764 145 750 137 736 l 132 725 b 130 722 128 718 126 715 b 123 707 119 700 116 693 b 103 664 92 634 83 604 b 72 569 56 505 51 425 b 49 385 50 341 55 297 b 60 252 69 205 87 161 b 104 117 132 77 167 49 b 185 35 205 24 225 17 z m 317 84 b 317 98 318 111 322 122 b 324 127 326 132 329 137 b 331 141 335 145 338 148 b 342 151 346 153 350 155 b 354 156 358 157 362 156 b 370 155 381 150 392 141 b 398 137 404 132 410 127 b 416 122 422 117 428 112 l 445 97 l 462 82 b 457 78 452 73 444 68 b 433 60 415 49 391 41 b 373 34 352 30 328 28 b 321 44 317 64 317 84 z m 469 75 b 477 67 485 60 493 52 b 489 48 485 43 481 39 b 476 34 471 29 466 24 b 461 19 456 15 451 11 b 430 -6 408 -17 389 -16 b 380 -16 371 -14 361 -9 b 354 -4 346 2 340 9 b 357 12 372 16 386 21 b 400 26 412 32 422 38 b 432 44 441 49 448 54 b 457 62 464 69 469 75 z m 468 -21 b 454 -31 439 -38 425 -43 b 418 -45 411 -46 404 -47 b 397 -48 390 -48 384 -47 b 371 -45 360 -40 351 -35 b 342 -29 335 -23 330 -16 b 330 -16 331 -18 333 -20 b 335 -22 339 -25 344 -28 b 353 -35 369 -44 391 -44 b 402 -44 415 -42 428 -38 b 440 -33 454 -25 467 -16 b 483 -4 500 11 516 29 b 517 27 518 26 520 24 b 503 7 486 -9 468 -21 z m 527 12 b 528 13 528 14 529 15 b 529 15 529 15 529 15 b 529 14 528 13 527 12 z m 238 835 b 246 844 256 854 267 863 b 278 873 291 883 306 892 b 337 912 378 930 425 936 b 437 937 450 937 462 937 b 465 937 469 937 472 937 l 477 936 l 481 936 b 485 935 488 935 491 934 b 494 934 498 933 501 933 b 527 928 553 916 576 901 b 599 885 620 864 636 841 b 653 818 666 793 677 767 b 683 754 688 741 692 727 b 694 721 695 714 697 707 b 699 700 701 694 702 687 b 709 659 713 632 716 604 b 721 549 719 494 714 443 b 708 391 698 342 685 298 b 661 209 626 139 598 98 b 584 77 569 57 552 38 b 551 39 551 39 550 40 b 566 60 581 81 594 104 b 594 105 605 122 619 153 b 634 185 653 230 669 286 b 685 342 699 409 704 481 b 709 554 706 633 686 709 b 676 746 661 784 641 817 b 621 851 594 881 560 902 b 544 912 526 919 508 924 b 490 929 471 931 454 931 b 436 932 419 930 403 927 b 387 924 372 919 357 914 b 343 909 330 902 318 896 b 306 889 295 882 285 874 b 266 860 250 845 238 833 b 226 821 217 810 211 803 b 205 796 202 792 202 792 b 209 802 221 817 238 835 z m 103 530 b 103 530 103 531 104 534 b 104 535 105 537 105 539 b 106 541 106 544 107 546 b 109 552 111 559 113 566 b 115 574 118 583 122 594 b 124 599 126 604 128 609 b 130 615 132 621 134 627 b 137 633 140 639 142 645 b 145 652 148 658 151 665 b 164 692 180 722 201 753 b 222 784 247 816 280 844 b 297 858 315 872 335 882 b 355 893 377 902 400 907 b 412 910 424 911 436 912 b 448 913 460 913 472 912 b 497 910 522 903 544 891 b 567 879 587 861 603 842 b 620 822 634 799 645 775 b 657 751 665 726 672 700 b 679 674 684 648 687 621 b 694 568 694 515 689 462 b 680 358 652 258 614 173 b 596 131 574 92 549 59 b 547 56 544 53 542 50 b 540 51 539 53 537 55 b 540 58 542 61 544 64 b 569 97 590 136 609 180 b 628 224 645 272 657 322 b 670 373 679 426 683 481 b 687 536 685 592 676 647 b 672 674 665 702 657 728 b 652 741 647 754 642 767 b 636 779 630 792 623 803 b 616 815 608 826 600 837 b 591 847 582 857 571 865 b 551 882 527 895 502 901 b 477 908 451 909 426 906 l 421 906 l 417 905 b 414 905 411 904 407 904 b 401 902 395 901 389 899 b 377 896 366 892 355 887 b 344 882 333 877 323 871 b 313 864 303 858 294 851 b 276 837 260 821 245 805 b 230 789 218 772 206 756 b 203 752 201 748 198 744 b 195 740 193 736 190 732 b 185 724 180 715 176 708 b 158 676 144 647 134 622 b 123 597 116 575 111 560 b 109 552 107 545 106 540 b 104 535 103 532 103 530 z m 672 573 b 669 611 664 651 655 687 b 646 724 633 758 619 784 b 612 798 604 809 597 819 b 590 828 583 836 578 842 b 575 845 572 848 570 850 b 568 852 566 853 565 855 b 562 857 561 858 562 857 b 565 855 577 848 596 825 b 596 825 597 824 599 821 b 600 819 603 815 607 810 b 613 800 622 785 631 766 b 649 729 665 673 672 616 b 679 558 677 499 672 453 b 667 407 660 374 658 368 b 657 366 659 374 661 392 b 664 409 668 436 670 467 b 673 498 674 535 672 573 z m 137 147 b 121 183 113 222 110 261 b 106 300 106 338 108 373 b 109 381 110 390 111 398 b 112 406 113 414 114 421 b 115 429 116 436 117 443 b 118 450 120 457 121 463 b 126 489 132 509 136 523 b 145 550 155 578 167 604 b 178 630 191 656 206 681 b 214 693 221 705 229 717 b 237 729 245 740 254 751 b 271 773 290 793 311 809 b 331 826 353 840 376 849 b 399 858 424 863 448 864 b 471 864 494 859 514 849 b 524 845 533 838 542 831 b 551 824 559 815 567 805 b 575 796 582 785 588 774 b 594 763 600 751 605 738 b 610 726 614 713 618 700 b 622 687 626 673 628 659 b 634 632 637 604 639 575 b 641 547 641 518 640 489 b 637 431 628 372 613 314 b 606 285 597 257 587 228 b 577 200 566 173 553 146 b 547 133 540 120 532 108 b 527 99 521 90 515 81 b 511 85 506 90 502 95 l 495 103 l 487 112 b 481 117 476 123 471 128 b 460 139 449 150 438 161 b 432 166 426 171 420 177 b 414 182 407 187 399 192 b 392 197 382 201 372 203 b 362 206 350 206 340 204 b 330 201 320 197 311 192 b 303 186 295 180 289 172 b 276 156 269 138 264 121 b 260 103 258 86 258 69 b 258 57 259 46 262 34 b 242 39 223 47 206 59 b 192 69 178 83 166 97 b 155 112 145 129 137 147 z"},"w":{"x_min":0,"x_max":676,"ha":676,"o":"m 685 215 b 660 204 634 195 608 191 b 593 188 578 187 563 188 b 564 195 565 201 566 207 b 576 272 581 339 575 407 b 573 425 571 442 567 459 b 567 463 566 467 565 471 b 564 476 563 480 562 484 b 560 493 558 501 555 510 b 553 518 550 527 546 537 b 544 541 542 546 539 550 b 539 552 538 553 538 554 b 537 556 536 557 535 559 b 533 562 531 565 529 568 b 521 580 512 590 501 598 b 491 606 479 612 466 613 b 463 614 460 614 457 614 b 455 614 452 614 449 614 b 446 613 444 613 441 612 l 437 612 l 433 610 b 423 607 413 601 405 593 b 396 586 389 577 383 567 b 382 565 380 562 379 559 b 377 557 376 554 375 552 l 370 541 b 364 526 360 511 356 496 b 353 481 351 466 350 450 b 348 420 351 390 357 361 b 360 346 364 332 369 318 b 374 304 380 291 386 277 b 400 251 418 226 440 206 b 446 201 453 196 460 191 b 454 165 447 140 438 116 b 434 105 429 94 424 84 b 419 73 413 63 407 54 b 402 46 396 39 391 35 b 389 33 387 32 386 32 b 385 31 386 31 386 31 b 385 31 386 31 385 31 b 384 31 382 32 379 34 b 374 39 368 46 362 55 l 361 57 l 360 59 l 358 63 l 356 67 l 354 71 b 352 77 349 83 347 89 b 345 95 342 101 341 107 b 340 110 339 114 338 117 l 337 119 l 336 124 b 335 127 334 131 333 134 b 331 144 329 154 327 164 l 322 194 b 320 203 318 213 317 223 l 314 237 l 313 241 l 312 244 l 311 250 l 308 263 l 307 265 l 306 268 l 304 272 l 299 281 l 295 286 l 293 288 b 292 289 291 290 291 291 l 286 294 l 284 296 l 283 297 l 282 298 l 279 300 b 276 302 274 303 272 305 b 270 305 269 306 268 306 b 267 307 264 308 261 308 b 258 309 255 309 252 308 b 249 308 247 307 245 306 b 242 305 240 304 239 303 l 233 300 b 232 298 230 297 228 295 l 223 291 b 221 289 220 287 218 285 b 216 283 215 281 213 279 b 210 274 206 270 203 264 l 199 255 l 195 245 b 194 243 193 241 192 239 b 191 237 191 234 190 232 b 189 230 188 227 187 224 b 186 223 186 222 185 220 b 185 219 184 217 184 216 b 180 204 176 190 172 174 b 172 169 171 165 170 161 b 169 157 168 153 167 148 b 165 140 163 131 161 121 b 160 116 160 114 159 111 b 159 108 158 105 158 102 b 157 96 155 91 154 84 b 153 81 152 78 152 75 l 151 74 l 151 74 l 151 72 l 150 70 b 149 66 148 62 146 59 b 145 55 142 51 139 49 b 136 46 131 44 127 44 b 117 44 109 50 102 57 l 99 60 b 98 61 97 62 96 63 b 94 66 92 69 90 72 b 86 77 82 84 79 90 b 65 116 57 146 50 175 b 44 204 39 232 35 258 b 29 310 26 354 25 378 b 23 415 12 428 12 381 b 12 360 10 320 12 270 b 12 245 13 217 17 188 b 18 173 20 159 22 144 b 25 129 28 113 32 98 b 36 82 42 66 50 51 b 52 47 54 44 57 40 l 60 34 b 62 32 64 30 65 27 b 72 18 80 10 89 3 b 97 -3 107 -8 117 -11 b 127 -14 137 -14 147 -12 b 157 -10 166 -5 173 1 b 181 7 188 14 193 22 b 199 31 203 40 207 49 b 208 52 209 56 211 59 b 212 62 213 65 214 68 b 218 79 221 89 224 98 l 225 100 b 225 100 225 100 225 100 l 225 101 b 226 102 226 102 226 103 b 227 104 227 105 227 106 b 228 107 229 109 229 110 b 234 116 237 119 240 118 b 241 118 242 117 242 116 b 242 115 242 114 242 113 b 242 111 242 109 242 107 b 242 104 242 102 242 100 l 242 98 l 242 97 b 242 97 242 97 242 97 b 242 97 242 97 242 97 l 242 96 l 244 88 b 249 68 255 48 263 28 b 266 23 268 18 270 13 b 271 11 273 8 274 5 b 276 3 277 0 279 -3 b 285 -13 293 -23 302 -33 b 312 -43 323 -53 338 -60 b 342 -62 345 -64 349 -66 l 356 -68 b 358 -68 360 -69 362 -69 b 371 -72 380 -72 390 -72 b 401 -72 413 -69 423 -65 b 434 -61 443 -56 451 -50 b 466 -39 478 -26 487 -14 b 491 -8 496 -1 499 5 b 501 8 503 11 504 14 l 509 22 b 516 34 522 47 527 59 b 541 93 551 128 558 162 b 576 162 593 165 609 169 b 637 175 663 186 688 199 b 702 206 710 215 711 219 b 711 223 704 223 685 215 z m 428 296 b 418 319 413 344 410 369 b 408 382 408 394 408 407 b 408 419 409 431 411 444 b 413 456 416 467 420 479 b 424 490 428 501 434 512 l 438 519 l 438 520 b 439 520 439 520 439 521 b 439 521 440 522 440 522 b 441 524 443 525 445 526 b 448 529 452 530 456 528 b 459 527 462 523 463 520 b 463 519 464 518 464 517 b 464 517 464 517 464 517 b 464 517 464 517 464 517 l 464 516 l 466 512 b 468 508 469 502 471 497 b 472 491 473 485 474 479 b 475 473 477 466 477 460 b 479 447 481 434 481 421 b 483 395 483 369 481 342 b 480 316 477 289 473 262 b 471 252 469 242 467 231 b 467 231 467 232 467 232 b 450 250 437 272 428 296 z m 498 481 b 497 493 495 505 492 516 b 492 519 491 521 490 524 l 489 528 b 488 529 488 530 488 531 b 486 536 484 540 481 545 b 484 541 487 536 489 532 b 490 530 492 527 493 524 b 494 522 495 519 496 516 b 500 505 503 493 506 481 b 515 437 518 392 516 347 b 515 301 509 256 501 211 b 501 209 500 208 500 206 b 496 208 492 211 488 213 b 491 226 493 239 494 252 b 501 301 505 347 504 386 b 504 425 501 458 498 481 z m 284 235 b 285 232 286 229 288 225 b 288 223 289 222 289 219 b 290 217 290 215 291 212 b 295 192 299 164 306 134 b 307 130 308 125 309 121 b 309 119 310 116 310 114 b 311 113 311 111 312 109 b 312 106 313 103 314 100 b 315 97 316 94 317 90 b 321 78 327 64 333 51 b 337 45 340 39 344 33 b 348 27 352 22 357 17 b 362 13 367 9 372 7 b 377 5 382 4 387 4 b 393 4 400 7 407 13 b 414 19 422 28 428 37 b 429 40 431 42 432 45 b 434 47 436 50 437 53 b 440 58 443 64 446 69 b 451 80 456 92 460 104 b 469 128 476 153 482 178 b 484 177 486 176 489 175 b 490 175 492 174 493 173 b 486 142 477 111 464 82 b 459 72 454 62 449 52 b 446 47 443 43 440 38 b 437 33 434 29 431 25 b 425 17 418 9 410 4 b 403 -1 395 -4 387 -4 b 383 -4 379 -4 375 -3 b 371 -1 367 1 363 3 b 356 8 349 16 343 24 b 340 28 337 32 334 37 b 332 42 329 47 327 52 b 325 57 323 62 321 67 b 319 72 317 77 315 83 b 313 88 312 93 310 99 b 310 102 309 104 308 107 l 306 116 b 304 124 303 132 301 140 l 297 164 l 293 188 l 291 200 l 289 211 l 288 217 b 288 219 288 220 287 222 l 285 231 b 284 233 284 234 283 235 l 282 239 b 281 242 280 245 279 247 b 280 244 282 240 284 235 z m 360 -21 b 352 -18 344 -12 338 -6 b 325 6 316 20 309 35 b 302 49 296 63 292 78 b 289 85 288 92 286 99 b 285 103 284 106 283 109 b 282 112 282 115 281 118 b 276 143 273 166 269 187 b 268 198 266 208 264 218 b 263 223 263 228 262 233 b 261 235 261 237 260 240 b 260 242 259 244 258 246 b 256 248 254 249 252 248 b 249 248 247 247 246 246 b 242 243 240 240 238 236 b 236 233 234 229 232 226 b 230 222 228 219 227 216 b 221 203 217 191 213 181 b 207 160 204 148 203 144 b 203 144 204 147 205 153 b 206 159 209 167 212 178 b 215 189 219 202 226 217 b 227 221 229 225 231 228 b 232 230 233 232 234 234 b 235 236 236 238 237 240 b 238 242 239 244 241 246 b 242 248 244 250 246 252 b 248 253 250 255 252 255 b 255 256 257 255 259 253 b 260 251 261 248 261 246 b 262 244 262 241 263 239 b 264 234 265 229 266 223 b 268 213 270 202 272 190 b 276 167 280 142 286 116 b 287 112 288 109 288 106 b 289 102 290 99 291 95 b 292 92 293 88 294 85 b 295 81 297 78 298 74 b 303 60 308 46 316 33 b 323 19 332 6 344 -4 b 350 -9 357 -14 364 -17 b 371 -20 379 -22 388 -21 b 403 -21 416 -13 427 -3 b 439 7 448 19 455 32 b 471 58 483 86 492 115 b 498 132 503 151 507 169 b 509 168 511 168 514 167 b 512 159 510 152 508 144 b 499 109 486 73 468 41 b 466 37 464 34 461 30 b 459 26 457 22 454 18 b 449 11 443 3 437 -3 b 430 -9 423 -15 415 -20 b 406 -24 397 -27 388 -27 b 378 -28 369 -25 360 -21 z m 517 127 b 510 105 502 82 493 61 b 492 59 490 56 489 53 b 488 51 487 48 485 46 b 483 41 480 36 477 31 b 475 27 472 22 469 18 b 466 13 464 9 460 5 b 448 -12 434 -25 419 -32 b 412 -35 405 -37 400 -38 b 394 -39 390 -39 388 -39 b 386 -39 385 -39 388 -39 b 391 -39 396 -38 403 -36 b 410 -34 419 -31 428 -24 b 428 -24 429 -24 429 -23 b 430 -23 431 -22 432 -21 b 434 -19 437 -17 441 -13 b 448 -6 457 4 466 18 b 474 31 483 48 491 66 b 499 84 506 103 512 123 b 516 137 519 151 522 165 b 523 165 525 165 526 165 b 523 152 520 140 517 127 z m 520 197 b 518 197 515 198 513 199 b 513 200 513 201 513 202 b 519 232 523 261 526 290 b 528 319 530 348 529 376 b 529 403 527 430 523 456 b 519 481 515 506 506 528 b 501 539 495 549 488 558 b 481 567 472 575 461 577 b 455 579 448 579 442 576 b 435 574 430 571 425 567 b 416 559 409 549 403 539 b 400 534 398 530 396 526 b 394 522 392 518 390 514 b 388 510 387 506 385 502 b 384 499 383 495 381 492 b 381 492 382 493 382 495 b 383 498 384 503 387 511 b 389 515 391 520 393 526 b 394 528 396 531 397 535 b 399 538 401 542 403 546 b 408 554 414 563 424 571 b 428 575 434 579 440 581 b 444 582 447 583 451 584 b 454 584 458 584 462 583 b 465 582 474 580 485 570 b 491 565 496 558 502 550 b 503 547 504 545 506 543 b 506 542 507 541 507 539 b 508 538 509 537 509 536 b 511 531 513 526 515 521 b 519 510 522 499 525 487 b 526 480 527 474 529 467 b 529 464 530 461 530 457 b 531 454 531 450 532 447 b 536 419 537 388 537 355 b 536 322 534 287 529 252 b 526 234 523 215 520 197 z m 540 248 b 538 233 535 214 532 193 b 531 193 531 193 530 193 b 529 194 529 194 528 194 b 531 209 533 224 535 237 b 540 269 542 293 543 297 b 544 300 544 280 540 248 z"},"-":{"x_min":0,"x_max":486,"ha":486,"o":"m 433 275 b 408 287 382 300 354 309 b 327 319 298 325 270 326 b 242 328 214 326 188 318 b 175 314 162 309 150 301 b 146 299 140 295 132 290 b 124 285 115 280 105 274 b 96 269 86 265 78 261 b 69 258 62 257 58 256 b 51 256 46 246 54 244 b 58 243 65 240 74 238 b 83 236 94 234 104 233 b 114 232 124 230 133 229 b 141 228 147 227 151 226 b 165 222 178 221 192 221 b 219 220 245 222 271 226 b 297 230 323 238 350 246 b 376 253 403 260 430 260 b 435 260 440 272 433 275 z m 190 290 b 205 294 229 300 252 302 b 276 305 299 304 310 298 b 314 295 318 293 322 290 b 318 290 314 290 310 290 b 310 290 308 290 304 291 b 300 291 295 291 288 291 b 276 291 259 290 242 290 b 225 289 208 288 196 288 b 183 287 175 286 175 286 b 177 288 183 289 190 290 z m 246 255 b 229 253 216 253 229 256 b 229 256 241 258 254 259 b 267 261 280 262 282 260 b 283 259 263 256 246 255 z m 339 271 b 334 271 326 271 317 271 b 299 271 275 270 250 268 b 226 266 201 264 182 262 b 162 261 149 260 147 260 b 147 260 158 261 174 264 b 190 267 212 271 235 273 b 258 276 282 278 303 278 b 313 278 322 277 330 276 b 338 275 344 273 347 271 b 347 271 344 271 339 271 z"},"E":{"x_min":0,"x_max":860,"ha":860,"o":"m 858 -112 b 868 -110 878 -108 886 -106 b 898 -104 908 -102 916 -99 b 923 -97 928 -95 929 -93 b 931 -90 920 -88 889 -93 b 860 -96 807 -105 742 -117 b 677 -130 600 -146 523 -157 b 485 -162 447 -166 410 -167 b 374 -169 339 -168 309 -164 b 278 -161 252 -154 231 -147 b 221 -143 213 -139 206 -135 b 199 -131 194 -127 190 -124 b 182 -117 176 -110 172 -103 b 168 -96 166 -90 166 -84 b 165 -77 167 -71 170 -63 b 174 -56 179 -48 186 -40 b 193 -32 201 -25 211 -17 l 226 -5 b 231 -1 236 2 241 6 l 249 12 b 252 13 255 15 257 17 l 274 27 b 285 33 296 40 308 45 b 354 69 405 88 457 106 b 470 111 483 116 497 121 l 506 124 l 512 126 l 522 130 l 560 144 b 572 149 585 154 597 159 l 616 167 b 618 168 619 168 620 169 l 623 171 l 630 176 l 643 184 l 650 189 l 653 191 l 655 192 b 655 192 655 193 655 193 l 656 193 l 665 209 l 668 213 l 669 215 l 669 217 b 670 220 671 222 671 226 b 672 229 672 233 672 238 l 672 241 l 672 242 b 672 243 672 243 672 243 l 672 245 b 671 247 671 249 670 251 b 668 259 666 263 663 268 b 662 270 661 271 660 272 l 658 276 l 654 280 b 653 281 652 282 650 284 l 646 287 l 645 288 b 644 289 644 289 643 289 l 640 291 b 638 292 636 293 634 294 l 627 298 b 617 302 605 305 593 308 b 568 314 541 319 513 323 l 482 328 l 461 331 b 448 333 435 335 421 337 b 395 342 369 348 344 355 b 318 362 292 370 268 379 b 244 389 222 399 203 413 b 165 439 138 478 138 518 b 137 539 142 562 152 585 b 156 596 162 608 168 619 b 175 630 182 641 189 652 b 220 696 258 734 302 765 b 324 780 347 794 372 805 b 375 806 378 808 381 809 l 391 813 b 394 814 397 815 400 816 l 410 820 b 422 824 435 828 448 830 b 474 836 499 837 523 833 b 535 830 547 826 558 820 b 564 818 569 814 574 811 b 579 807 584 804 589 799 b 594 795 599 791 603 786 b 607 781 612 776 616 771 b 624 761 631 750 638 738 b 641 732 644 726 647 720 b 649 714 652 708 654 701 b 656 695 658 688 660 682 b 662 675 664 669 665 662 b 677 609 677 552 674 496 b 672 455 682 434 689 489 b 695 544 699 600 693 656 b 686 712 666 769 628 814 b 609 837 584 856 556 869 b 541 875 526 879 511 881 b 496 884 480 884 465 884 b 450 883 435 881 421 878 b 406 876 392 872 378 868 b 350 860 322 849 296 836 b 243 809 195 773 155 729 b 134 708 116 684 99 659 b 83 633 68 605 59 573 b 54 557 51 540 50 523 b 49 505 51 487 55 470 b 59 452 65 436 73 420 b 81 405 91 390 102 377 b 112 364 125 352 138 342 b 150 331 164 322 178 314 b 205 298 233 286 261 275 b 317 254 375 241 433 231 b 447 228 461 226 476 224 l 477 223 l 477 223 l 477 223 l 477 223 l 477 223 b 477 223 477 223 477 223 b 477 223 477 223 477 223 b 477 223 477 223 477 223 b 477 223 477 223 477 223 b 478 223 477 222 476 222 l 476 222 l 475 222 l 471 220 b 445 210 419 200 392 190 b 365 179 339 168 312 155 b 286 142 260 129 235 113 l 225 107 b 222 105 219 103 216 101 l 198 88 l 180 74 b 177 72 174 69 171 67 l 163 59 b 157 54 151 50 146 44 b 140 39 135 33 129 27 b 124 21 119 14 114 7 b 109 0 104 -8 100 -16 b 92 -32 86 -51 85 -71 b 84 -91 89 -112 98 -129 b 108 -150 129 -172 157 -188 b 171 -196 187 -203 204 -208 b 207 -209 209 -209 211 -210 b 213 -210 215 -211 217 -211 b 222 -212 226 -213 230 -214 b 239 -216 248 -218 258 -219 b 295 -224 335 -224 376 -220 b 417 -217 459 -210 500 -202 b 541 -194 581 -184 620 -173 b 659 -163 696 -153 730 -144 b 764 -134 795 -126 821 -120 b 835 -117 847 -114 858 -112 z m 253 351 b 267 345 290 337 317 329 b 345 321 377 313 412 307 b 429 303 447 300 465 298 b 474 296 484 295 493 294 b 506 292 518 290 530 288 b 542 286 554 284 565 281 b 570 280 576 279 581 277 b 586 276 591 274 595 273 b 603 269 610 266 617 262 b 618 261 620 261 621 260 b 623 259 624 258 626 257 b 628 255 631 254 633 251 b 636 249 638 246 639 242 b 640 240 640 238 640 236 b 640 235 640 233 639 231 b 638 228 636 225 635 223 b 633 221 631 219 629 217 b 620 211 613 206 606 201 b 589 192 580 188 582 190 b 584 191 588 193 595 197 b 604 201 611 207 621 214 b 621 214 623 215 625 217 b 627 218 630 221 633 225 b 635 227 637 230 637 234 b 638 238 637 242 634 246 b 630 253 622 256 614 260 b 606 264 596 269 584 273 b 578 275 571 276 563 278 b 556 280 548 281 541 283 b 525 285 508 288 490 290 b 484 291 477 292 470 293 b 463 294 456 295 450 296 b 423 300 397 305 372 311 b 347 317 324 323 304 330 b 284 336 267 343 255 348 b 243 353 235 357 233 359 b 231 361 238 357 253 351 z m 211 66 b 214 68 217 70 221 73 b 228 78 236 83 245 89 b 250 92 255 95 260 98 b 265 101 271 104 277 107 b 288 114 301 120 314 126 b 344 140 378 155 415 169 b 434 177 454 184 474 192 b 476 193 479 194 481 194 b 483 195 485 196 487 197 b 490 198 493 199 496 200 b 502 203 507 205 513 207 b 518 209 524 212 529 214 b 534 217 540 219 545 222 b 547 223 550 225 551 228 b 551 230 550 231 549 233 b 549 234 547 235 546 236 b 543 237 540 238 537 239 b 534 240 531 240 528 241 b 515 244 503 246 491 247 l 465 251 b 453 252 441 254 428 256 b 380 265 331 276 286 291 b 263 299 242 307 220 317 b 199 327 179 338 161 351 b 143 365 127 380 115 396 b 102 413 92 430 85 447 b 78 465 74 482 73 498 b 72 514 74 528 76 540 b 83 576 99 607 118 635 b 110 620 102 605 96 588 b 90 572 85 555 83 537 b 83 536 82 531 82 522 b 82 513 82 499 85 483 b 89 466 95 447 107 428 b 119 408 136 388 157 371 b 178 353 204 338 232 326 b 261 313 291 302 323 293 b 355 284 388 276 422 270 b 439 267 456 264 474 261 b 481 260 488 259 495 258 l 513 255 b 525 253 537 251 548 248 b 554 246 560 245 565 243 b 568 242 571 241 573 239 b 576 237 577 234 577 231 b 576 228 574 225 572 224 b 570 222 567 220 564 219 b 559 217 553 215 548 212 b 537 208 526 204 516 200 b 510 198 505 196 500 194 b 494 192 488 190 483 188 b 468 182 454 177 440 172 b 412 162 385 152 360 142 b 312 123 272 103 245 87 b 238 83 232 79 227 76 b 222 73 218 70 214 68 b 211 65 208 63 206 62 b 205 61 204 60 204 60 b 206 62 208 64 211 66 z m 168 -151 b 166 -149 163 -147 159 -144 b 152 -137 141 -126 133 -109 b 130 -101 127 -91 127 -80 b 127 -68 130 -56 135 -44 b 138 -38 141 -32 145 -26 b 149 -20 153 -14 158 -8 b 163 -3 169 3 175 9 b 181 14 187 19 194 25 b 220 46 251 67 286 86 b 320 105 359 121 400 137 b 420 145 441 153 462 161 b 473 165 484 169 494 173 b 505 177 516 181 527 186 b 538 190 550 194 560 199 b 566 201 571 203 577 206 b 582 208 588 210 593 213 l 601 216 b 604 218 607 219 609 220 b 612 222 614 224 616 226 b 618 228 620 230 621 233 b 621 236 620 240 619 242 b 617 245 614 246 612 248 b 609 249 606 250 603 251 b 601 252 598 253 595 254 b 572 261 547 265 523 269 b 499 273 475 276 451 280 b 403 287 355 297 309 311 b 263 326 219 343 181 369 b 162 382 145 397 132 415 b 118 432 107 451 101 471 b 95 492 93 513 95 532 b 96 542 98 552 101 561 b 103 571 106 580 110 589 b 124 623 144 653 164 678 b 183 702 204 723 222 738 b 227 743 232 746 236 750 b 238 751 240 753 243 755 b 245 756 247 758 249 759 b 253 762 257 765 261 768 b 265 770 268 772 272 775 b 272 775 271 774 268 772 b 266 770 262 768 257 764 b 248 757 235 746 219 731 b 203 716 185 697 166 673 b 148 649 129 620 115 585 b 112 577 109 568 107 558 b 105 549 103 540 102 530 b 101 520 101 510 102 500 b 104 490 106 480 109 470 b 116 451 127 432 141 415 b 156 398 173 383 193 370 b 212 358 234 347 257 338 b 279 329 303 321 327 314 b 375 300 425 291 476 283 l 497 280 l 518 277 b 533 275 547 272 560 269 b 574 266 587 262 598 258 b 604 256 610 254 615 251 b 618 250 621 248 623 246 b 625 244 627 241 627 237 b 627 234 626 231 625 228 b 623 225 621 223 618 221 b 614 218 608 215 603 212 b 597 210 592 207 586 204 b 580 201 574 199 568 196 b 543 185 516 175 491 166 b 445 149 401 133 359 116 b 317 99 279 80 246 59 b 241 56 237 53 233 51 b 231 49 229 48 227 47 b 225 45 223 44 221 43 b 217 40 214 37 210 34 b 206 31 202 29 199 26 b 192 20 185 14 178 9 b 172 3 166 -3 161 -9 b 150 -21 141 -34 136 -46 b 130 -59 128 -72 128 -84 b 129 -95 132 -106 136 -114 b 141 -123 146 -129 151 -135 b 161 -145 169 -151 172 -153 b 172 -153 171 -152 168 -151 z"},"s":{"x_min":0,"x_max":290,"ha":290,"o":"m 309 248 b 299 244 281 237 260 227 b 249 222 237 216 225 210 b 213 203 201 196 189 188 b 165 173 142 155 123 139 b 123 139 122 138 121 137 b 120 138 119 139 119 140 b 107 156 96 171 86 186 b 66 216 49 248 41 281 b 37 297 35 315 36 332 b 37 348 41 365 48 380 b 62 410 92 436 127 440 b 128 441 130 441 131 442 b 132 442 133 442 134 443 b 136 444 138 446 139 448 b 139 450 139 451 137 453 b 136 454 135 454 133 455 b 132 456 130 456 127 456 b 108 457 88 452 69 444 b 50 435 34 422 20 406 b 6 389 -5 370 -12 349 b -18 329 -22 307 -23 285 b -24 241 -13 198 2 160 b 10 140 20 121 29 104 b 37 90 44 77 52 64 b 48 59 45 54 42 49 b 37 39 31 29 27 18 b 23 7 18 -6 17 -22 b 16 -30 16 -39 17 -48 b 17 -50 18 -53 18 -55 b 19 -58 20 -60 20 -62 b 22 -67 24 -72 26 -76 b 30 -86 36 -94 45 -102 b 49 -106 54 -110 59 -113 b 64 -116 70 -119 76 -121 b 89 -125 103 -126 115 -124 b 127 -122 138 -117 147 -111 b 156 -106 163 -99 170 -91 b 176 -83 182 -74 186 -64 b 193 -45 193 -27 192 -12 b 190 3 187 17 183 28 b 175 49 166 68 156 85 b 156 85 156 86 157 86 b 170 106 186 128 206 149 b 225 170 246 189 266 204 b 285 219 302 230 312 235 b 328 243 329 256 309 248 z m 109 79 b 109 79 109 79 109 79 b 108 78 108 78 107 77 b 106 75 105 74 104 72 b 104 72 104 72 104 72 b 106 75 107 77 109 79 z m 102 -50 b 104 -50 107 -48 109 -45 b 110 -43 112 -42 112 -40 b 113 -39 113 -38 113 -38 b 114 -37 114 -37 114 -36 l 114 -35 b 115 -30 115 -25 114 -19 b 114 -17 114 -15 113 -13 b 114 -10 115 -7 115 -4 b 116 0 118 4 119 8 b 120 4 121 0 122 -4 b 125 -14 126 -24 124 -33 b 124 -35 123 -37 123 -39 b 122 -40 122 -41 122 -41 b 121 -42 121 -43 120 -44 b 118 -47 116 -50 113 -52 b 110 -54 107 -56 104 -57 b 102 -57 99 -57 97 -57 b 93 -56 89 -52 87 -47 b 81 -38 83 -26 85 -18 b 85 -16 86 -14 86 -12 b 86 -12 87 -12 87 -13 b 87 -13 87 -14 87 -15 b 87 -16 87 -17 87 -18 b 86 -24 85 -31 86 -37 b 87 -40 89 -43 90 -45 b 92 -48 95 -50 97 -51 b 98 -51 100 -51 102 -50 z m 95 60 b 95 60 95 60 96 59 b 93 55 91 51 88 46 b 88 47 87 47 87 48 b 89 51 90 53 92 56 b 93 57 94 59 95 60 z m 18 271 b 18 271 19 263 22 248 b 26 234 32 214 43 190 b 54 167 70 141 88 113 b 88 112 89 110 90 109 b 88 107 86 105 85 103 b 74 119 64 135 56 151 b 42 176 31 201 25 222 b 19 243 17 260 18 271 z m 57 99 b 42 124 32 146 27 162 b 24 173 21 185 19 197 b 24 186 29 175 34 164 b 34 164 37 158 42 149 b 48 139 55 126 65 110 b 68 105 72 99 75 94 b 72 90 69 87 66 83 b 63 89 60 94 57 99 z m 135 -62 b 129 -70 121 -76 111 -79 b 102 -82 90 -81 82 -76 b 73 -71 68 -63 64 -55 b 62 -51 61 -47 60 -43 b 59 -38 59 -34 59 -30 b 59 -22 61 -15 62 -8 b 66 3 69 13 73 22 b 74 21 74 20 75 19 b 74 17 73 15 72 13 b 68 1 64 -11 63 -25 b 62 -32 63 -40 65 -47 b 68 -54 72 -61 77 -66 b 83 -72 91 -75 99 -75 b 107 -75 116 -72 122 -67 b 129 -62 134 -55 137 -48 b 140 -40 141 -31 141 -23 b 140 -6 134 10 128 26 b 127 27 127 28 126 29 b 128 32 129 35 130 38 b 133 32 136 26 138 20 b 141 12 144 3 146 -7 b 147 -16 148 -26 147 -35 b 146 -40 145 -45 143 -50 b 141 -54 138 -58 135 -62 z m 160 -31 b 160 -37 158 -43 157 -49 b 156 -51 155 -54 154 -56 b 153 -59 152 -61 150 -62 b 146 -69 143 -72 144 -70 b 144 -70 145 -68 147 -65 b 149 -62 151 -57 154 -51 b 154 -51 154 -50 154 -49 b 155 -47 155 -45 156 -43 b 157 -38 158 -30 157 -22 b 157 -13 155 -4 152 5 b 150 15 146 24 142 33 b 140 38 138 43 135 48 b 136 49 136 51 137 52 b 144 39 150 25 155 10 b 159 -3 161 -18 160 -31 z"},">":{"x_min":0,"x_max":381,"ha":381,"o":"m 331 320 b 330 323 330 327 329 330 b 327 337 324 342 321 348 b 314 358 305 367 291 374 b 284 378 276 381 268 383 b 260 386 252 388 244 391 l 232 394 b 231 394 231 394 230 394 l 229 395 l 226 395 b 221 396 217 397 213 397 b 204 398 196 399 187 399 b 166 399 79 399 60 402 b 52 403 46 393 54 390 b 70 383 138 343 152 332 b 166 321 181 313 197 305 l 197 305 l 198 305 l 198 305 l 198 304 l 198 304 b 198 304 198 304 198 303 b 198 303 198 303 198 303 b 197 302 197 302 197 302 b 196 301 197 302 198 301 b 199 301 201 299 201 295 b 201 295 201 295 201 295 b 201 295 201 295 201 295 l 201 294 l 198 292 l 194 287 b 191 284 188 281 185 277 b 179 271 173 264 167 258 b 143 231 119 205 92 183 b 87 179 92 167 100 169 b 133 181 166 191 199 203 b 216 209 232 215 248 223 l 251 224 b 251 224 252 224 252 225 l 255 226 l 265 232 b 272 236 279 240 286 245 l 296 251 b 297 252 298 253 298 253 l 300 255 l 304 259 l 312 266 b 313 267 314 268 314 268 l 316 270 b 317 272 318 273 319 274 b 326 285 330 296 331 310 b 331 313 331 316 331 320 z m 183 239 b 183 239 196 248 215 261 b 224 267 233 274 244 281 b 249 285 254 288 259 293 b 262 295 264 298 266 301 b 267 303 268 307 268 310 b 268 314 266 317 264 319 b 262 322 260 324 257 326 b 251 329 245 332 239 334 b 227 339 215 344 205 348 b 182 357 166 363 164 364 b 164 364 177 360 197 354 b 207 350 218 347 230 343 b 237 340 243 338 250 336 b 257 334 264 331 270 327 b 273 325 275 322 277 319 b 279 315 280 312 279 308 b 279 300 273 294 268 290 b 263 285 257 281 251 277 b 245 273 240 269 234 265 b 213 251 194 241 183 239 z m 247 311 b 245 315 243 317 241 318 b 239 320 237 321 235 322 b 233 323 234 324 240 322 b 240 322 241 322 242 321 b 243 321 245 320 247 319 b 248 317 250 316 252 313 b 253 311 254 308 254 306 b 253 300 249 295 245 292 b 242 290 239 288 237 288 b 236 288 238 290 242 294 b 244 296 246 299 247 302 b 248 305 248 308 247 311 z m 306 307 b 305 297 301 289 296 282 b 291 276 283 270 276 264 b 261 253 246 246 237 244 l 221 241 l 234 250 b 234 250 236 252 241 255 b 246 258 253 263 261 268 b 265 271 269 275 273 278 b 278 282 281 285 285 290 b 289 294 292 299 293 305 b 295 310 294 317 292 323 b 290 328 286 333 282 336 b 277 340 273 343 268 346 b 263 349 258 352 252 354 b 247 357 242 359 237 361 b 228 364 221 367 215 370 b 211 371 209 372 209 372 b 210 372 213 372 216 371 b 218 371 219 370 221 370 b 222 370 224 369 225 369 b 226 368 228 368 229 367 b 236 365 244 363 252 360 b 261 358 270 354 277 350 b 285 346 292 340 298 333 b 301 330 303 326 304 321 b 306 316 306 311 306 307 z"},"l":{"x_min":0,"x_max":351,"ha":351,"o":"m 365 199 b 357 183 349 168 341 152 l 328 130 b 324 122 319 115 314 108 b 305 93 295 79 285 66 b 283 62 280 59 277 56 l 269 46 b 263 40 258 34 251 29 b 239 18 226 9 212 3 l 202 0 b 198 -1 195 -2 191 -3 b 187 -3 184 -4 180 -5 l 174 -5 l 171 -5 b 171 -5 170 -5 169 -5 b 164 -5 159 -4 154 -2 b 150 1 145 4 141 9 b 136 13 132 19 129 25 b 125 31 121 38 118 45 b 106 73 98 105 92 137 b 90 145 89 153 88 161 b 88 165 87 169 87 173 l 86 179 l 86 186 b 84 203 83 220 82 237 b 79 285 78 333 78 381 b 78 382 79 383 80 384 b 90 399 110 427 131 464 b 134 469 136 473 139 478 b 142 483 144 488 147 493 b 153 503 158 514 163 525 b 174 547 184 571 193 594 b 212 642 226 692 235 734 b 240 755 244 774 246 791 b 249 808 250 822 250 832 b 251 844 251 857 250 870 b 250 874 249 877 249 880 l 247 890 l 246 895 l 246 898 b 245 899 245 901 245 902 l 241 916 b 239 921 237 925 235 930 b 234 933 233 935 232 937 l 229 943 b 224 952 219 960 212 966 b 206 973 199 978 191 982 b 183 986 174 989 165 990 b 154 991 143 989 133 986 b 123 982 113 977 104 969 b 95 962 87 953 80 942 b 76 937 72 932 69 926 l 65 920 l 62 915 b 52 896 44 878 38 860 b 31 842 25 824 20 806 b 9 769 2 733 -4 696 b -10 660 -14 623 -17 587 b -20 551 -22 515 -22 478 b -23 404 -17 330 -7 256 b -4 238 -1 219 2 201 b 3 192 5 183 7 174 l 8 167 l 10 159 b 11 154 12 150 13 145 b 17 126 23 107 29 89 b 36 70 43 52 53 34 b 57 25 62 16 68 7 b 74 -1 80 -10 88 -18 b 95 -27 104 -35 115 -41 b 125 -48 138 -53 152 -55 b 155 -55 158 -55 162 -56 l 167 -56 l 172 -55 b 179 -54 183 -53 188 -52 b 193 -51 198 -49 203 -48 b 209 -46 214 -44 219 -42 b 238 -33 256 -20 270 -6 b 274 -2 277 2 280 5 b 284 9 286 13 289 17 b 292 21 296 24 298 28 l 306 40 b 309 44 311 48 314 52 l 321 65 b 325 73 329 81 334 89 b 351 122 364 156 378 189 b 387 214 381 230 365 199 z m 179 771 b 179 760 178 749 177 737 b 176 725 175 713 173 701 b 170 677 166 651 160 626 b 155 601 148 575 140 552 b 136 540 132 528 128 517 b 126 511 124 506 122 500 b 120 495 118 490 115 484 b 102 452 88 425 78 406 b 78 418 78 430 78 442 b 79 476 81 511 84 545 b 87 579 90 614 94 649 b 103 717 115 783 136 844 b 139 852 142 859 145 866 l 147 872 l 149 874 l 149 875 l 149 876 l 149 876 l 149 876 b 149 876 149 877 150 878 b 150 879 150 880 151 882 b 152 883 153 885 155 885 b 158 887 161 885 164 882 b 165 881 166 880 168 878 b 168 877 168 877 169 876 b 169 874 170 873 170 871 b 171 868 172 865 173 862 b 175 854 178 842 179 826 b 180 811 181 792 179 771 z m 13 457 b 13 429 13 410 12 406 b 11 403 10 428 10 465 b 10 503 12 552 16 598 b 21 643 26 684 30 705 b 32 715 33 721 33 719 b 33 717 32 708 30 689 b 30 689 29 685 28 678 b 28 670 26 660 25 647 b 22 622 19 588 17 554 b 14 519 13 484 13 457 z m 67 65 b 65 71 62 79 58 89 b 55 100 51 113 48 128 b 45 143 41 160 39 179 b 34 216 29 261 25 309 b 22 358 20 410 21 464 b 22 517 26 572 32 625 b 38 677 46 728 57 774 b 63 797 69 819 76 839 b 83 859 91 877 99 893 b 103 901 108 909 113 916 b 118 923 123 929 128 935 b 134 940 139 944 145 946 b 151 949 156 949 161 949 b 168 949 175 946 180 942 b 185 938 189 933 193 928 b 196 923 198 918 201 913 b 203 908 204 904 206 899 b 207 895 209 891 210 887 b 211 883 212 879 212 876 b 213 869 214 864 215 859 b 216 849 216 843 216 838 b 216 834 216 832 216 830 b 216 830 216 831 216 833 b 216 835 216 837 216 840 b 216 846 215 855 213 867 b 212 870 212 873 211 876 b 211 879 210 883 209 886 b 207 894 204 901 201 909 b 197 917 193 926 187 933 b 184 936 180 940 176 942 b 171 945 166 947 161 947 b 153 947 144 944 137 939 b 130 933 124 926 118 918 b 116 915 113 911 111 906 b 109 904 108 902 107 900 b 106 898 105 896 103 894 b 99 885 95 876 91 867 b 77 830 65 789 56 745 b 48 702 42 656 37 609 b 33 563 30 516 29 470 b 27 378 33 290 40 217 b 42 199 44 182 46 166 b 48 150 51 135 54 121 b 59 94 65 72 70 57 b 70 57 69 59 67 65 z m 66 632 b 64 617 63 602 62 587 b 61 572 59 557 59 542 b 55 481 55 422 55 372 b 56 321 58 278 57 250 b 57 230 57 209 57 188 b 54 209 52 230 50 251 b 50 252 49 263 47 283 b 46 302 44 329 43 362 b 42 395 42 434 43 474 b 44 515 47 559 52 602 b 57 645 63 688 71 728 b 75 748 79 767 84 784 b 89 802 94 818 100 833 b 105 849 111 862 116 873 b 119 879 121 884 124 889 b 125 889 125 890 126 891 b 126 892 127 893 127 893 b 128 895 129 896 130 898 b 133 903 136 906 139 909 b 141 911 142 912 142 912 b 139 908 135 903 131 896 b 127 891 119 875 113 859 b 106 842 99 820 93 797 b 87 773 82 747 77 719 b 73 692 69 662 66 632 z"},"8":{"x_min":0,"x_max":496,"ha":496,"o":"m 435 638 b 431 648 424 658 416 667 b 408 676 399 683 388 689 b 378 695 367 699 356 701 b 345 704 335 705 324 705 b 314 705 303 705 293 703 b 283 702 273 700 263 697 b 258 696 254 694 249 693 b 245 691 240 690 236 688 b 217 681 200 672 183 662 b 167 652 151 640 136 627 b 129 620 122 614 115 606 b 112 603 109 599 105 595 b 102 591 99 587 96 583 b 84 567 73 549 65 529 b 57 509 51 487 50 463 b 50 451 51 438 53 426 b 55 414 59 402 64 391 b 74 368 88 350 102 335 b 109 327 116 320 124 313 l 134 304 b 138 301 142 297 145 294 b 146 294 146 294 147 293 b 141 280 135 266 130 250 b 123 229 118 207 113 183 b 109 159 106 133 107 106 b 108 80 112 52 124 26 b 135 0 152 -21 171 -38 b 176 -42 181 -46 186 -49 b 191 -53 196 -56 202 -58 b 207 -61 213 -63 218 -65 b 223 -67 229 -69 234 -70 b 236 -70 239 -71 241 -71 b 244 -72 246 -72 249 -72 b 254 -73 258 -73 262 -73 b 271 -73 278 -72 284 -72 b 307 -68 329 -59 348 -46 b 358 -40 367 -32 375 -24 b 383 -16 390 -7 396 3 b 408 23 416 45 420 68 b 424 91 423 114 418 136 b 413 158 406 178 396 197 b 386 216 374 232 361 248 b 357 253 353 258 348 263 b 369 325 396 384 417 447 b 420 455 422 464 425 472 b 427 480 430 488 432 497 l 435 510 l 438 522 b 440 531 442 540 443 549 b 446 567 447 587 444 607 b 442 617 439 628 435 638 z m 281 659 b 300 664 317 666 331 664 b 346 663 358 660 366 655 b 366 655 365 655 363 656 b 361 656 359 657 356 658 b 350 660 340 662 327 662 b 321 662 314 661 306 660 b 298 659 290 657 281 654 b 264 649 244 641 225 629 b 205 618 185 603 167 584 b 149 565 132 543 121 517 b 115 504 110 491 109 476 b 107 462 107 448 110 434 b 114 420 120 406 129 394 b 138 382 148 371 160 360 b 166 355 172 349 178 344 b 177 342 176 340 174 338 b 164 347 153 356 144 365 b 133 376 124 388 116 400 b 108 413 103 427 101 442 b 99 456 99 471 102 485 b 105 499 110 513 116 525 b 128 551 145 572 164 591 b 201 627 244 649 281 659 z m 193 348 b 207 337 221 327 234 317 b 248 307 260 298 268 291 b 276 285 280 281 278 282 b 277 283 269 288 255 299 b 255 299 242 308 222 322 b 213 329 202 336 192 345 b 192 346 193 347 193 348 z m 188 352 b 187 352 186 351 185 350 b 174 359 164 368 154 378 b 143 389 133 401 127 414 b 124 420 121 426 119 432 b 118 438 116 444 116 450 b 114 472 120 489 121 492 b 122 492 122 491 121 489 b 121 488 121 487 121 485 b 120 484 120 482 120 480 b 119 471 117 458 120 443 b 123 429 130 413 142 397 b 154 382 170 367 186 354 b 187 353 187 353 188 353 b 188 352 188 352 188 352 z m 355 95 b 355 98 354 100 354 103 b 353 114 350 128 343 143 b 340 150 336 159 330 167 b 328 172 325 176 322 180 b 319 184 315 189 312 193 b 304 202 296 210 287 219 b 278 227 268 235 258 244 b 237 260 213 276 188 294 b 183 298 177 302 171 307 b 173 310 175 314 176 317 b 208 291 241 269 268 245 b 283 233 296 220 307 207 b 319 194 328 181 335 168 b 349 142 355 119 356 103 b 356 101 356 99 356 97 b 356 95 356 93 356 92 b 356 89 356 86 356 84 b 355 80 355 77 355 77 b 355 80 355 84 355 88 b 355 90 355 93 355 95 z m 116 356 b 105 368 95 382 87 398 b 79 414 75 432 73 449 b 72 467 74 483 78 498 b 82 514 88 527 95 540 b 101 552 108 564 116 574 b 124 583 132 592 140 600 b 155 615 170 626 183 633 b 202 644 221 653 241 659 b 222 651 203 640 186 627 b 185 626 176 620 161 606 b 154 599 146 591 137 580 b 128 570 119 557 110 542 b 102 528 94 510 90 491 b 88 481 86 471 86 460 b 86 449 87 438 90 427 b 95 405 108 385 122 368 b 135 352 150 339 165 326 b 163 323 161 320 159 316 b 157 318 154 320 152 322 b 140 332 128 343 116 356 z m 248 -5 b 241 -5 234 -4 226 -1 b 210 4 194 15 180 31 b 173 40 167 49 162 59 b 157 69 153 80 150 92 b 144 115 142 140 143 164 b 143 188 146 212 149 233 b 151 244 153 254 156 263 b 158 270 159 276 161 282 b 171 275 180 268 188 261 b 217 241 243 222 265 202 b 287 182 305 160 316 137 b 322 125 326 114 328 102 b 329 96 330 91 329 85 b 330 79 329 74 328 68 b 326 57 321 46 315 36 b 312 31 309 26 305 22 b 301 18 296 14 291 10 b 286 6 278 1 266 -2 b 261 -4 255 -5 248 -5 z m 380 96 b 380 92 380 89 380 86 b 380 83 380 80 379 77 b 379 71 378 65 376 59 b 373 47 369 37 364 28 b 354 9 341 -5 328 -15 b 315 -25 303 -30 294 -34 b 285 -37 278 -38 276 -38 b 276 -38 280 -38 286 -36 b 292 -34 302 -31 313 -24 b 323 -18 335 -9 347 5 b 358 18 367 36 373 57 b 374 62 375 67 376 73 b 376 76 377 78 377 81 b 377 83 377 84 377 86 b 377 87 377 88 377 90 b 378 101 376 113 373 125 b 368 150 356 173 340 195 b 325 217 305 238 283 256 b 261 274 237 291 213 309 b 203 316 194 323 184 330 b 185 332 187 334 188 336 b 227 305 270 277 305 243 b 327 222 346 199 359 173 b 373 148 380 121 380 96 z m 393 542 l 393 536 l 392 530 l 391 517 b 389 500 386 484 383 467 b 370 403 351 340 335 276 b 316 295 296 311 277 325 b 248 347 221 366 198 386 b 186 396 176 406 169 415 b 161 425 156 434 153 443 b 152 447 151 452 150 457 b 150 462 150 467 151 472 b 152 478 153 484 155 490 b 156 496 159 502 161 508 b 164 514 167 520 171 526 b 173 529 175 532 177 535 b 179 538 181 541 183 544 b 192 556 202 567 213 577 b 224 587 236 596 249 604 b 255 608 262 612 268 615 b 272 617 275 619 279 620 b 282 622 286 623 289 624 b 302 630 316 633 329 634 b 342 635 354 633 363 629 b 367 627 372 624 375 620 b 379 617 382 612 385 607 b 390 596 393 581 393 566 b 394 558 394 550 393 542 z"},"\\":{"x_min":0,"x_max":395,"ha":395,"o":"m 344 -116 b 341 -99 337 -82 333 -65 b 330 -48 326 -31 323 -14 b 322 -6 320 3 319 11 l 314 37 b 313 45 311 54 310 62 l 306 88 b 295 156 285 224 271 292 b 257 359 241 429 218 495 b 213 512 207 528 200 544 b 194 560 187 576 179 592 b 170 610 147 658 123 704 b 117 716 111 728 105 739 b 99 750 93 761 88 771 b 78 790 69 806 65 815 b 58 829 46 830 52 812 b 54 804 59 788 64 768 b 70 748 75 725 81 701 b 86 677 91 654 95 634 b 98 613 101 597 102 589 b 106 554 113 520 120 486 b 135 419 150 350 170 283 b 189 215 215 147 243 79 b 270 12 300 -54 329 -119 b 334 -131 348 -133 344 -116 z m 211 258 b 209 250 156 461 177 392 b 177 392 212 266 211 258 z m 263 98 b 262 101 260 107 259 113 b 255 127 250 146 244 169 b 232 215 216 276 201 339 b 186 401 170 464 158 512 b 152 536 146 557 142 572 b 138 587 136 596 135 598 b 135 598 137 592 141 580 b 144 569 149 552 156 531 b 167 491 183 435 198 377 b 214 319 229 258 241 207 b 244 194 247 182 250 170 b 253 159 255 148 257 138 b 261 119 264 103 265 92 b 265 92 264 94 263 98 z m 258 190 b 258 191 253 212 245 244 b 238 276 228 318 218 360 b 209 402 199 444 192 476 b 184 507 179 528 179 528 b 182 522 186 509 191 491 b 203 453 221 393 237 334 b 252 276 265 220 266 191 b 266 181 266 170 266 160 b 263 170 261 180 258 190 z"},"e":{"x_min":0,"x_max":327,"ha":327,"o":"m 343 225 b 338 217 327 202 314 184 b 300 166 284 146 267 127 b 259 117 250 109 241 101 b 232 93 224 86 216 80 b 199 69 185 63 178 60 b 170 58 163 56 156 54 b 149 52 142 52 136 51 b 130 51 126 52 122 53 b 119 54 118 55 116 57 b 114 59 111 62 108 66 b 105 71 101 76 99 83 b 93 96 88 110 85 125 b 80 155 80 187 84 220 b 88 250 95 281 105 308 b 136 300 171 305 200 326 b 209 332 218 339 225 350 b 228 356 231 363 233 370 b 234 378 234 386 232 394 b 228 409 218 422 207 430 b 196 439 182 445 166 446 b 152 447 137 444 125 440 b 113 435 102 429 92 422 b 87 418 82 415 78 411 l 72 405 l 66 400 b 58 392 50 383 43 374 b 16 339 -1 298 -12 257 b -17 236 -20 215 -22 193 b -24 170 -23 148 -20 125 b -17 102 -11 79 -2 58 b 1 52 3 47 6 41 l 10 34 b 12 31 13 28 15 26 b 22 15 30 4 40 -6 b 51 -15 64 -25 79 -31 b 94 -37 110 -39 124 -38 b 138 -37 151 -34 163 -30 b 174 -26 184 -21 194 -15 b 205 -9 224 5 242 24 b 261 43 279 68 293 93 b 308 119 320 145 330 167 b 340 189 349 207 354 216 b 361 232 355 242 343 225 z m 162 382 b 167 384 169 384 173 384 b 177 383 181 381 183 379 b 184 379 185 378 186 377 b 186 377 186 377 186 376 b 186 376 186 376 186 376 b 187 375 187 374 187 373 b 186 369 183 363 178 357 b 165 338 139 327 114 327 b 127 352 146 376 162 382 z m 91 -8 b 82 -4 72 2 63 10 b 53 19 44 31 36 44 b 28 57 21 72 16 89 b 5 121 1 159 3 194 b 5 230 12 264 22 292 b 33 320 46 342 58 354 b 66 363 75 371 85 378 b 77 369 70 359 63 349 b 63 349 60 344 54 334 b 49 324 43 310 36 292 b 30 275 24 254 20 232 b 16 209 14 184 14 159 b 14 147 15 135 17 122 b 19 110 21 98 25 87 b 28 76 32 65 37 55 b 42 45 47 35 53 27 b 59 19 65 12 72 6 b 79 0 86 -4 92 -6 b 98 -9 103 -10 107 -11 b 108 -12 110 -12 111 -12 b 111 -12 112 -12 112 -12 b 107 -12 100 -11 91 -8 z m 190 28 b 187 26 183 24 177 21 b 171 19 164 16 155 13 b 146 10 136 8 125 8 b 114 8 101 11 90 18 b 79 25 70 36 62 48 b 46 73 35 104 31 137 b 27 169 29 203 35 236 b 41 268 50 298 63 324 b 77 349 93 370 109 384 b 117 391 125 396 133 399 b 140 403 146 404 151 405 b 151 405 151 405 150 404 b 149 404 148 404 146 403 b 143 402 138 399 132 396 b 126 392 120 387 112 380 b 105 373 98 364 90 354 b 76 334 62 307 53 277 b 43 246 37 212 36 178 b 35 144 40 109 52 79 b 58 64 65 50 74 38 b 83 27 94 18 106 14 b 117 10 129 10 140 12 b 151 13 160 16 168 19 b 183 24 193 30 195 31 b 195 31 193 30 190 28 z m 49 165 b 49 142 53 122 55 112 b 56 107 57 104 56 105 b 55 106 54 110 51 119 b 51 119 51 121 50 124 b 49 128 48 133 47 139 b 46 152 44 169 45 187 b 46 204 48 222 51 236 b 54 250 57 259 58 261 b 59 262 56 250 53 231 b 51 212 48 187 49 165 z"},"b":{"x_min":0,"x_max":505,"ha":505,"o":"m 533 202 b 529 201 521 198 511 193 b 469 174 424 160 379 152 b 372 150 364 149 357 148 b 361 167 364 187 365 207 b 365 214 365 221 365 228 b 365 235 365 243 363 251 b 363 256 362 260 361 264 b 360 266 360 268 359 271 b 358 273 357 275 356 278 b 352 287 347 296 340 304 b 327 318 309 326 291 329 b 282 330 273 330 265 329 b 256 327 248 325 240 322 b 225 315 213 306 203 295 b 200 292 198 290 196 287 b 195 285 193 284 192 283 l 189 278 b 185 272 181 266 178 259 b 172 246 168 232 167 217 b 165 203 166 188 171 173 b 175 158 184 144 196 133 b 208 123 222 116 236 113 b 245 110 253 109 262 109 b 260 106 259 103 257 101 b 247 83 236 67 223 55 b 216 49 210 44 203 39 b 201 38 199 37 197 36 b 196 35 194 35 192 34 l 190 33 l 187 32 b 185 31 183 30 182 30 b 167 26 151 26 140 30 b 134 32 130 34 126 38 b 122 42 118 46 114 53 b 107 65 102 82 98 102 b 96 112 95 123 93 134 l 91 150 l 90 166 b 88 187 87 208 87 229 b 90 231 93 233 97 236 b 107 243 121 254 137 268 b 146 275 154 283 164 292 b 173 301 182 311 192 324 b 210 346 228 372 245 400 b 262 427 278 458 292 489 b 306 520 318 552 328 583 b 333 599 337 614 341 630 b 345 645 348 659 351 674 b 356 703 358 732 356 757 b 355 760 355 763 355 766 b 354 769 354 772 353 775 b 352 780 351 786 350 791 b 347 802 344 811 340 818 b 333 833 322 848 306 860 b 298 866 289 871 280 874 b 270 877 260 879 250 879 b 240 879 231 878 222 876 b 213 875 205 872 198 869 b 182 862 169 854 157 844 b 154 841 151 839 148 836 b 145 834 143 831 141 829 b 136 824 131 819 126 813 b 117 803 109 792 102 780 b 94 769 88 758 82 746 b 76 735 70 723 65 712 b 44 666 30 618 18 569 b 7 521 0 473 -6 425 b -12 377 -16 328 -17 279 b -18 230 -16 180 -9 131 b -8 124 -7 117 -6 111 b -4 104 -3 98 -2 91 b 1 77 4 63 9 49 b 14 34 20 19 29 5 b 38 -10 50 -24 65 -36 b 69 -39 73 -42 77 -44 l 83 -48 b 86 -49 88 -50 90 -52 b 99 -56 108 -59 117 -61 b 135 -66 153 -66 170 -65 b 188 -63 204 -58 220 -51 b 224 -50 228 -48 231 -46 l 237 -43 l 242 -40 b 250 -35 256 -30 262 -25 b 287 -5 305 20 319 46 b 326 58 332 71 337 84 b 342 95 346 107 349 118 b 360 121 372 123 383 126 b 428 138 472 156 514 178 b 529 186 539 195 540 200 b 540 202 538 203 533 202 z m 247 148 b 243 150 239 152 235 154 b 233 155 231 157 229 158 b 228 160 226 161 224 162 b 219 169 215 176 213 184 b 209 201 213 220 223 236 b 231 251 247 265 261 269 b 265 271 268 271 271 271 b 274 271 278 271 281 270 b 286 269 290 266 293 262 b 295 260 296 257 296 255 b 297 253 297 249 298 246 b 298 242 298 237 298 233 b 298 228 297 223 297 218 b 294 197 290 177 283 158 b 281 153 279 148 277 143 b 267 143 257 145 247 148 z m 107 25 b 112 21 117 17 122 14 b 127 11 132 9 138 8 b 149 5 161 4 172 6 b 183 7 194 10 203 14 b 212 17 220 22 227 27 b 247 40 265 60 280 82 b 267 58 250 36 230 20 b 229 20 227 17 221 14 b 216 10 208 5 196 1 b 185 -3 171 -7 155 -7 b 139 -6 121 -2 106 9 b 99 15 92 23 86 31 b 80 40 75 50 72 61 b 64 84 60 109 56 136 b 49 189 48 247 51 305 b 54 362 61 420 69 473 b 77 527 88 576 101 616 b 107 637 114 655 120 671 b 127 687 133 701 139 711 b 144 722 149 731 152 736 b 154 739 155 741 156 743 b 157 744 157 745 157 745 b 153 737 147 725 140 710 b 133 694 124 675 116 652 b 108 628 100 599 93 567 b 86 535 81 500 76 463 b 67 388 59 305 62 226 b 63 206 64 187 65 167 b 67 148 70 129 73 111 b 76 93 80 76 86 61 b 91 46 98 34 107 25 z m 286 626 b 281 594 273 561 263 528 b 253 495 241 463 227 433 b 213 402 197 374 182 349 b 178 343 174 337 170 331 b 166 325 162 320 158 315 b 149 304 141 295 133 287 b 117 270 103 257 92 249 b 90 247 88 246 87 244 b 87 285 89 327 93 369 b 95 392 98 415 100 438 b 103 461 106 484 110 506 b 117 551 126 594 140 636 b 146 657 153 677 162 696 b 170 716 180 734 191 750 b 196 758 202 765 208 772 b 213 779 220 784 226 789 b 232 793 239 797 244 798 b 247 799 250 799 252 799 b 254 800 256 800 258 799 b 261 799 264 798 267 795 b 271 792 275 787 279 780 b 281 777 283 772 285 768 b 286 763 288 759 289 753 b 291 742 293 730 294 716 b 295 690 291 659 286 626 z m 39 58 b 34 72 29 94 25 118 b 21 143 18 172 16 203 b 15 234 15 266 16 296 b 18 357 25 412 29 439 b 31 453 32 460 32 457 b 32 455 31 443 28 419 b 28 419 28 413 27 403 b 26 394 25 380 23 363 b 22 346 21 326 20 305 b 19 283 19 260 19 237 b 20 191 24 144 30 108 b 33 90 37 74 40 62 b 44 50 47 42 47 40 b 48 37 44 44 39 58 z m 300 79 b 293 66 285 52 275 39 b 265 26 253 13 239 2 b 224 -9 207 -18 188 -23 b 169 -28 148 -29 128 -23 b 118 -21 108 -16 99 -11 b 90 -5 82 3 75 11 b 62 28 53 48 47 69 b 41 89 38 110 35 132 b 32 153 30 174 29 196 b 28 218 27 239 28 261 b 28 305 31 348 36 391 b 40 433 46 475 53 516 b 60 557 69 596 81 632 b 92 669 106 703 122 733 b 138 763 157 789 178 809 b 183 814 188 818 194 822 b 200 826 205 830 211 832 b 223 838 235 841 246 842 b 258 842 268 840 277 836 b 285 832 291 827 296 822 b 304 813 308 806 310 802 b 309 803 309 803 309 804 b 308 806 306 809 303 813 b 300 816 297 821 292 825 b 286 830 280 834 271 837 b 263 840 253 842 242 840 b 232 839 221 836 210 830 b 200 825 189 817 180 808 b 170 799 161 788 152 777 b 135 753 121 725 108 694 b 101 679 95 663 90 646 b 84 629 79 612 75 594 b 57 523 47 444 40 363 b 33 282 32 199 45 119 b 48 99 51 79 58 61 b 64 42 73 24 86 10 b 99 -4 117 -14 135 -17 b 153 -21 172 -20 189 -15 b 207 -10 222 -2 236 9 b 243 14 249 19 255 25 b 260 31 266 37 271 44 b 287 66 299 89 309 111 b 310 111 311 111 313 112 b 313 112 314 112 315 112 b 310 101 306 91 300 79 z m 339 229 b 339 219 338 203 335 185 b 333 173 330 159 326 144 b 324 144 323 144 321 144 b 327 161 331 177 333 191 b 337 212 339 230 339 245 b 339 245 339 244 339 241 b 339 238 339 234 339 229 z"},"%":{"x_min":0,"x_max":829,"ha":829,"o":"m 704 781 b 713 792 708 806 694 792 b 680 779 665 765 651 752 b 637 738 624 724 610 710 b 606 706 603 703 599 699 l 589 688 l 569 666 b 562 659 555 652 549 644 l 530 621 b 478 561 430 496 390 428 b 349 359 312 285 283 210 b 277 192 270 173 264 154 b 258 136 252 117 248 98 b 242 75 228 17 216 -41 b 209 -70 203 -99 197 -123 b 192 -148 188 -168 185 -179 b 180 -196 189 -205 196 -185 b 200 -175 208 -158 217 -137 b 227 -116 238 -91 250 -66 b 262 -41 274 -16 285 5 b 296 25 304 42 309 50 b 329 84 347 119 364 154 b 399 223 434 294 469 363 b 504 433 538 506 576 577 b 614 648 655 718 704 781 z m 307 196 b 309 201 311 207 313 213 b 316 219 319 225 321 232 b 327 245 333 259 339 274 b 346 289 353 304 360 320 b 364 327 368 335 371 343 b 375 351 379 359 383 366 b 414 428 449 484 471 508 l 483 521 b 487 525 492 529 496 534 b 492 529 489 524 486 519 l 477 503 b 476 503 473 498 467 488 b 464 484 461 478 457 471 b 455 468 453 465 451 461 b 448 457 446 454 444 450 b 435 433 424 415 412 395 b 401 374 389 353 378 331 b 366 309 355 287 345 267 b 334 246 325 227 317 210 b 301 177 291 155 291 155 b 293 162 299 177 307 196 z m 444 384 b 435 365 422 341 411 319 b 389 274 370 238 386 275 b 386 275 390 283 396 296 b 402 308 410 325 418 342 b 427 359 436 376 443 390 b 451 403 456 412 458 413 b 460 414 453 402 444 384 z m 548 580 b 546 576 542 571 538 564 b 530 551 518 532 503 510 b 476 464 439 402 406 337 b 402 329 398 321 394 313 b 390 305 386 297 382 289 b 378 281 374 273 370 265 b 366 257 362 249 358 242 b 351 226 344 211 337 197 b 330 182 324 168 318 155 b 315 149 312 143 310 137 b 307 131 305 125 302 120 b 298 109 293 100 290 92 b 283 75 278 65 277 63 b 277 63 280 70 285 83 b 290 96 298 114 307 136 b 311 148 316 160 322 173 b 327 185 333 199 339 213 b 346 227 352 242 359 257 b 366 272 373 287 381 302 b 395 333 412 364 427 394 b 436 409 444 423 452 437 b 456 444 460 451 464 458 b 468 465 472 471 476 477 b 483 490 491 502 498 513 b 506 525 513 535 519 544 b 526 553 532 561 537 568 b 543 575 548 581 552 585 b 552 585 550 583 548 580 z m 211 293 b 224 296 235 300 244 305 b 254 310 262 315 270 321 b 278 326 285 332 292 338 b 305 350 317 364 328 379 b 338 395 347 413 352 433 b 357 453 359 473 357 494 b 354 515 347 536 335 554 b 323 572 306 587 289 596 b 271 606 252 611 234 612 b 224 613 205 614 184 608 b 173 606 162 602 151 597 b 141 591 131 585 121 578 b 103 564 88 548 77 533 b 66 518 58 506 53 499 b 46 489 52 478 62 489 b 67 494 76 503 89 513 b 95 517 102 522 110 526 b 116 530 123 534 130 536 b 124 522 117 508 112 493 b 104 473 97 452 95 429 b 93 418 92 406 93 394 b 94 382 96 369 101 355 b 106 342 114 328 126 317 b 131 312 138 307 146 302 b 153 298 162 295 171 293 b 178 292 185 291 192 291 b 199 291 205 292 211 293 z m 142 486 b 143 505 147 524 151 543 b 153 544 155 544 158 545 b 161 546 165 546 169 546 b 172 547 176 547 179 547 b 192 546 201 543 206 541 b 216 538 225 533 232 528 b 239 522 244 517 247 511 b 251 505 253 499 254 492 b 255 484 255 476 254 467 b 252 459 249 451 245 443 b 241 434 235 426 229 418 b 225 412 220 407 215 402 b 213 400 210 397 208 395 b 205 392 203 390 201 388 b 196 384 192 381 189 379 b 187 378 186 377 185 377 b 184 376 183 376 182 375 b 181 375 180 375 179 375 b 177 375 175 375 173 376 b 171 377 169 378 167 379 b 165 381 163 383 161 386 b 156 390 153 397 150 405 b 147 412 145 421 143 430 b 140 448 140 467 142 486 z m 276 432 b 279 439 281 446 283 452 b 285 459 286 464 286 467 b 287 471 287 473 287 472 b 288 471 288 468 288 462 b 288 462 287 460 287 458 b 287 455 286 452 285 447 b 283 439 278 427 272 417 b 265 406 257 396 250 389 b 243 381 237 377 235 377 b 234 376 241 383 250 393 b 259 403 269 418 276 432 z m 147 354 b 140 362 138 370 137 376 b 137 376 137 375 138 374 b 138 372 139 370 142 367 b 144 363 147 359 153 354 b 158 349 166 344 178 342 b 180 342 184 341 188 342 b 192 342 197 343 203 345 b 214 349 227 357 240 368 b 253 379 267 393 277 409 b 288 426 296 444 298 464 b 301 484 299 504 291 520 b 290 522 289 524 288 526 b 287 528 286 530 285 531 b 283 535 280 538 277 542 b 276 543 274 544 273 546 l 271 548 l 269 550 b 267 551 266 552 264 554 b 263 555 261 556 260 557 b 248 565 236 570 227 572 b 222 573 219 574 216 575 b 213 575 211 575 210 575 b 210 575 211 575 213 575 b 214 575 215 575 216 575 b 217 575 219 574 221 574 b 227 573 236 571 247 566 b 250 565 253 564 256 562 b 259 561 261 559 264 557 b 267 555 270 553 273 550 b 274 549 276 548 277 546 l 279 544 l 281 542 b 282 541 284 539 285 538 b 286 536 287 534 289 533 b 290 531 291 529 292 527 b 293 526 294 524 295 522 b 299 514 302 505 304 496 b 307 478 306 457 299 438 b 293 419 282 401 269 386 b 256 371 241 358 225 348 b 217 343 209 339 201 337 b 197 336 193 335 189 335 b 185 334 181 335 177 335 b 163 338 153 346 147 354 z m 162 326 b 166 324 171 323 175 322 b 181 321 187 321 193 322 b 193 322 195 322 197 323 b 200 323 203 324 208 325 b 217 328 228 334 240 342 b 252 350 264 361 277 374 b 289 387 300 403 309 420 b 317 438 322 458 323 477 b 323 496 320 514 313 528 b 307 543 299 554 293 561 b 289 564 287 567 285 568 b 283 570 282 571 282 571 b 284 570 285 569 288 567 b 290 566 292 564 294 561 b 299 557 304 551 310 543 b 321 527 330 501 330 473 b 330 466 330 459 329 452 b 328 445 326 438 324 430 b 320 416 313 403 306 391 b 290 366 270 347 251 334 b 241 327 231 322 221 319 b 211 315 201 314 193 315 b 187 316 181 317 175 319 b 170 321 166 323 162 326 z m 773 163 b 770 174 766 184 760 194 b 754 204 747 214 738 222 b 729 230 718 236 708 240 b 698 244 688 246 678 247 b 666 248 646 247 625 241 b 605 236 582 226 562 212 b 543 199 526 183 514 169 b 502 154 495 141 491 134 b 484 123 492 113 500 125 b 505 130 513 139 526 148 b 529 150 532 152 535 154 b 520 132 507 106 498 78 b 496 71 494 63 492 56 b 490 48 489 40 488 32 b 486 16 486 -2 491 -22 b 494 -31 499 -41 506 -50 b 512 -59 521 -68 531 -74 b 551 -86 573 -91 595 -90 b 600 -90 605 -89 611 -89 b 614 -88 616 -88 619 -87 b 621 -86 624 -86 627 -85 b 637 -82 646 -78 655 -73 b 672 -64 687 -53 700 -41 b 725 -17 747 12 762 46 b 766 55 769 64 771 73 b 774 82 776 91 777 101 b 780 121 779 142 773 163 z m 552 151 b 554 155 553 160 551 163 b 557 166 565 169 572 171 b 581 174 589 176 598 178 b 606 179 614 180 621 180 b 635 180 645 177 650 175 b 660 172 667 167 670 163 b 672 161 673 159 674 157 b 675 155 676 152 677 149 b 678 143 679 135 678 126 b 677 117 674 107 670 97 b 663 77 651 57 636 38 b 628 29 620 19 612 12 b 605 5 597 0 591 -3 b 584 -7 576 -8 569 -8 b 562 -8 558 -7 552 -1 b 546 5 541 16 539 28 b 537 34 536 41 536 48 b 535 55 535 62 535 69 b 535 97 541 125 552 151 z m 686 55 b 694 69 700 84 703 91 b 705 98 706 98 703 85 b 703 85 702 83 701 81 b 701 79 700 78 700 76 b 699 74 698 72 697 70 b 694 61 688 49 680 38 b 673 27 664 17 657 9 b 650 1 644 -3 642 -4 b 641 -4 647 3 657 14 b 666 24 677 40 686 55 z m 540 -29 b 536 -25 534 -21 533 -17 b 533 -17 533 -17 533 -18 b 534 -18 534 -19 535 -20 b 537 -22 539 -25 543 -28 b 551 -35 564 -41 583 -41 b 592 -41 601 -39 611 -35 b 621 -31 631 -25 640 -17 b 650 -10 659 -1 668 8 b 676 18 684 28 691 39 b 706 61 716 86 720 110 b 724 134 721 158 712 175 b 707 183 701 190 694 195 b 688 199 681 202 675 204 b 663 209 655 209 653 209 b 653 209 655 209 657 209 b 660 209 664 208 669 207 b 674 206 679 205 686 202 b 692 199 699 195 705 189 b 711 183 716 175 720 166 b 724 156 726 146 727 134 b 728 112 722 87 712 64 b 702 40 687 19 670 0 b 654 -18 634 -34 613 -42 b 592 -50 571 -48 557 -42 b 549 -38 544 -34 540 -29 z m 747 88 b 742 61 729 34 713 11 b 705 -1 696 -12 687 -21 b 678 -31 668 -39 658 -46 b 647 -53 637 -59 627 -62 b 622 -64 617 -65 612 -65 b 608 -66 604 -66 600 -66 b 589 -65 579 -63 569 -59 b 579 -61 589 -60 599 -59 b 600 -59 601 -58 603 -58 b 606 -57 610 -57 614 -55 b 622 -52 634 -47 647 -38 b 659 -30 672 -19 684 -5 b 696 8 708 23 718 40 b 728 57 736 75 740 93 b 745 111 747 130 745 145 b 744 161 739 174 735 183 b 733 188 731 191 729 193 b 728 195 727 197 727 197 b 728 195 730 194 731 191 b 733 189 735 187 737 184 b 740 177 743 170 746 160 b 749 151 751 139 751 127 b 751 115 750 101 747 88 z"},"m":{"x_min":0,"x_max":644,"ha":644,"o":"m 661 197 b 640 185 618 174 595 170 b 584 167 573 166 562 167 b 551 168 540 171 531 175 b 527 177 523 180 519 183 b 516 186 513 189 510 193 b 504 200 500 209 498 219 b 495 229 493 240 491 251 b 490 257 490 262 489 268 l 489 279 l 488 285 l 488 293 b 486 312 486 333 484 354 b 484 359 483 363 482 368 l 481 371 b 481 372 481 373 481 374 l 479 380 b 479 381 478 382 478 382 l 477 385 l 475 390 b 474 391 474 393 473 394 l 471 398 b 470 401 468 403 467 405 b 466 408 464 410 462 412 b 460 414 458 416 455 418 b 452 419 448 421 444 421 b 436 423 430 422 424 421 b 423 421 422 420 420 420 l 416 418 l 412 417 l 410 416 l 407 415 l 398 410 l 396 408 b 395 408 394 407 394 406 l 389 402 l 384 398 b 383 397 381 395 380 393 l 370 383 b 367 379 364 375 361 371 b 358 367 355 363 352 358 l 343 345 b 341 342 340 340 338 338 l 334 330 l 326 315 l 319 302 l 310 286 b 304 275 298 265 293 255 b 290 251 288 246 285 242 l 283 239 l 283 239 l 283 238 l 283 238 b 282 238 282 238 282 238 b 281 239 281 239 281 239 b 281 239 281 239 281 239 l 281 239 b 281 239 281 239 281 240 l 281 240 l 281 240 l 280 242 b 279 245 279 248 278 251 l 275 260 l 273 269 l 271 278 l 270 283 l 270 286 l 269 291 b 267 305 264 319 263 332 l 260 353 l 258 363 l 256 372 l 255 382 b 255 383 254 383 254 384 l 254 386 l 252 390 l 250 398 b 249 399 249 400 248 401 l 247 404 b 245 407 243 411 241 414 l 235 421 b 234 422 233 423 232 424 l 229 426 l 226 429 b 225 429 225 430 223 431 b 219 433 215 436 208 438 b 204 439 200 440 196 440 b 192 441 188 440 185 440 b 182 439 179 438 176 437 b 175 436 173 435 172 435 b 170 434 169 433 167 432 b 162 429 156 424 151 419 b 146 414 141 407 136 400 b 131 393 127 385 122 376 b 120 371 117 365 114 358 b 111 350 108 342 105 332 b 104 330 103 328 102 325 b 101 323 101 321 100 318 b 99 314 97 309 96 304 b 95 301 94 299 93 296 b 93 295 92 294 92 293 b 92 292 92 291 91 290 b 90 286 90 283 89 279 b 86 270 84 261 82 252 b 82 252 82 252 82 252 b 78 325 54 400 49 473 b 49 480 37 483 34 475 b 14 405 -12 334 -19 261 b -22 225 -22 188 -16 152 b -13 134 -10 116 -3 99 b 1 89 11 62 22 35 b 27 22 33 9 38 -2 b 40 -7 42 -12 44 -16 b 46 -20 48 -22 49 -24 b 52 -27 56 -27 59 -26 b 62 -24 63 -22 62 -20 b 61 -18 61 -16 61 -11 b 61 -9 62 -6 62 -4 b 62 2 64 11 66 22 b 67 27 68 33 69 39 b 70 45 72 52 73 59 b 80 86 90 118 102 150 b 113 182 127 213 139 239 b 141 246 144 252 147 257 b 149 260 150 263 151 266 b 151 266 152 267 152 268 l 153 269 b 153 269 153 269 153 269 b 153 270 154 270 154 271 b 155 273 156 274 157 276 b 158 277 158 277 158 277 b 159 277 159 278 159 278 b 163 281 166 282 168 281 b 169 281 170 281 171 279 b 172 277 171 275 171 273 b 171 271 171 270 170 269 b 170 268 170 268 170 268 l 170 267 b 170 267 170 267 170 267 l 171 261 l 173 248 b 174 243 175 239 175 235 b 177 230 177 226 179 221 l 180 215 l 181 211 b 181 211 182 210 182 209 l 183 206 l 187 195 l 188 190 l 191 185 b 194 177 196 170 200 163 b 204 157 207 150 211 144 b 216 139 220 134 225 130 b 236 120 249 114 263 111 b 277 108 293 109 305 114 b 311 117 317 120 323 124 l 339 140 l 340 141 l 343 145 l 347 150 l 354 161 b 357 164 359 168 361 172 l 368 183 b 369 185 371 189 372 190 l 374 194 b 376 197 377 201 379 204 b 382 210 385 216 387 222 b 393 234 398 245 403 256 l 405 261 l 406 263 b 406 263 406 263 406 263 b 406 263 406 264 406 264 b 406 265 406 266 406 266 b 406 268 407 271 407 273 b 408 276 409 279 411 283 b 412 285 413 287 415 288 b 417 289 418 288 419 288 b 421 286 423 281 426 273 l 429 267 l 429 265 l 430 263 l 430 263 l 430 261 b 431 258 432 255 433 251 b 437 238 441 224 447 211 b 452 198 460 184 470 172 b 481 159 495 149 510 143 b 518 140 525 138 533 137 b 541 136 548 135 556 135 b 570 136 585 139 598 143 b 625 153 647 168 668 183 b 683 193 683 209 661 197 z m 20 310 b 20 310 19 299 18 282 b 18 265 17 243 16 220 b 14 175 13 131 13 131 b 12 134 11 141 11 151 b 8 171 5 204 4 236 b 4 267 6 297 13 311 l 21 327 z m 38 91 b 38 91 33 147 31 209 b 30 271 32 339 41 360 b 41 360 39 295 38 229 b 37 163 38 95 38 91 z m 48 199 b 48 199 47 216 47 233 b 47 251 47 268 48 270 b 50 272 51 245 51 222 b 51 199 51 181 48 199 z m 206 410 b 208 408 211 405 213 402 b 215 399 217 394 219 390 b 220 388 221 385 222 382 b 222 381 223 380 223 378 b 224 377 224 375 225 373 b 226 371 227 368 228 365 b 229 361 230 358 231 354 b 231 353 231 351 232 348 b 232 346 232 344 233 342 b 234 338 234 334 235 329 b 236 320 238 310 239 301 b 240 296 241 290 242 285 b 242 283 243 281 243 278 b 243 277 244 275 244 273 b 246 266 247 259 249 252 b 250 249 251 245 252 242 b 253 240 253 238 254 237 l 254 234 l 255 233 l 255 232 b 256 230 257 227 258 226 b 258 224 259 222 260 220 b 262 216 263 212 266 209 b 268 206 270 204 273 203 b 276 201 279 200 282 201 b 286 202 288 204 290 207 b 292 209 294 212 296 215 b 298 217 299 220 301 223 b 302 224 302 225 303 227 b 305 229 306 232 307 234 b 313 245 319 255 324 266 b 330 276 335 286 340 296 b 348 310 355 323 362 333 b 366 339 369 344 373 348 b 376 353 379 357 382 360 b 384 362 386 364 387 365 b 388 367 390 368 391 370 b 394 372 397 374 399 376 b 402 378 405 380 407 382 l 410 383 l 412 384 l 416 386 b 418 388 421 389 424 391 b 427 392 430 393 433 393 b 426 391 420 386 415 382 b 410 377 404 371 399 366 b 384 348 370 325 357 301 b 356 298 354 295 352 292 l 348 284 l 341 270 b 336 260 331 250 326 241 b 323 236 321 231 318 226 l 314 220 l 311 215 b 307 208 302 201 297 195 b 295 192 293 189 289 187 b 286 184 282 183 278 184 b 274 184 271 186 267 188 b 264 190 262 194 260 197 b 256 203 254 209 251 215 b 250 218 249 221 248 225 l 247 230 l 245 236 b 243 245 241 254 239 263 b 238 267 237 272 237 276 l 235 285 l 234 294 b 232 307 231 320 230 332 b 228 345 226 358 223 367 b 223 370 222 373 221 375 l 219 382 l 218 385 l 217 388 l 215 394 b 213 398 211 402 209 406 b 206 409 202 413 197 415 b 200 414 203 413 206 410 z m 359 235 b 357 231 354 226 351 220 b 350 217 348 214 347 210 b 346 209 345 207 344 205 l 343 204 l 342 202 b 342 201 341 200 340 199 b 338 194 335 189 332 185 b 329 180 325 175 322 171 b 319 166 315 162 311 158 b 307 154 303 150 299 147 b 294 145 289 142 284 142 b 278 141 272 142 267 143 b 256 146 247 153 241 160 b 236 166 231 173 228 180 b 226 183 225 187 223 190 b 222 193 220 197 219 200 b 217 206 215 212 213 217 b 213 218 213 219 212 220 b 212 221 212 222 212 223 b 211 224 211 226 211 227 b 210 232 209 234 210 232 b 211 231 212 228 213 225 b 213 224 213 224 214 223 b 214 222 214 221 215 219 b 216 217 217 214 218 210 b 218 210 218 209 219 206 b 220 204 222 200 224 196 b 228 187 233 174 242 163 b 248 157 255 151 264 148 b 272 145 283 144 292 148 b 296 150 300 153 304 156 b 306 157 307 159 309 161 b 311 163 312 165 314 167 b 320 174 326 183 331 191 b 334 196 337 200 339 204 b 340 206 341 207 342 209 b 343 211 344 212 345 214 b 348 220 351 225 353 230 b 358 239 362 245 363 247 b 364 248 362 243 359 235 z m 448 297 b 448 297 447 307 445 326 b 445 331 444 336 444 342 b 443 344 443 347 443 350 b 442 353 441 357 439 359 b 437 362 434 363 430 363 b 427 363 424 361 421 358 b 418 356 416 353 413 350 b 412 349 411 347 410 346 b 408 344 407 343 406 341 b 396 329 387 314 379 298 b 376 294 374 290 372 286 b 370 281 367 277 365 272 b 360 262 355 251 350 241 b 344 231 339 220 333 210 b 329 204 326 198 322 192 l 317 184 b 315 181 313 178 311 176 b 307 170 302 165 298 161 b 293 157 287 154 280 154 b 273 154 267 156 261 159 b 256 163 251 167 247 172 b 240 182 236 193 231 204 l 228 212 b 227 215 227 218 226 220 b 225 223 224 226 223 228 b 223 231 222 233 221 236 b 219 246 217 256 215 266 b 214 269 214 271 214 274 b 213 276 213 278 212 280 b 212 285 211 289 211 293 b 208 310 207 327 205 342 b 204 350 203 358 201 365 b 201 369 199 372 197 376 b 196 379 193 381 189 382 b 186 383 183 382 180 380 b 177 378 175 376 173 374 b 168 369 164 365 161 360 b 155 351 150 342 146 334 b 139 319 135 309 134 306 b 134 306 135 308 136 312 b 138 317 140 323 144 331 b 147 338 151 348 158 358 b 161 363 164 369 169 374 b 171 377 173 379 176 382 b 178 385 181 387 185 388 b 188 390 192 389 195 387 b 199 385 201 381 202 378 b 204 374 204 370 205 366 b 206 362 206 358 207 354 b 209 337 212 319 215 300 b 216 290 218 281 220 270 b 222 260 224 250 226 239 b 229 229 232 219 236 209 b 240 198 244 188 250 179 b 253 175 257 171 261 167 b 265 164 270 162 275 162 b 280 161 286 162 290 165 b 295 167 298 171 302 175 b 314 192 325 210 334 228 b 353 264 370 301 388 330 b 398 345 408 358 418 368 b 421 371 423 373 427 375 b 430 376 433 377 437 376 b 440 375 443 372 444 369 b 446 366 446 362 447 359 b 449 331 449 310 448 297 z"},"#":{"x_min":0,"x_max":921,"ha":921,"o":"m 865 436 b 853 444 840 451 826 458 b 812 465 798 470 783 475 b 776 478 769 480 762 482 b 772 532 781 582 791 632 b 807 708 827 783 855 854 b 860 867 851 878 841 862 b 803 798 766 731 734 662 b 710 609 689 556 670 501 b 625 507 579 511 533 510 b 540 544 548 578 556 612 b 573 685 593 757 620 825 b 625 838 616 849 607 833 b 569 772 532 709 499 643 b 476 597 456 550 438 502 b 400 496 362 488 326 476 b 312 471 297 466 283 460 b 276 457 269 454 262 451 b 255 448 249 444 242 440 b 238 438 232 435 226 432 b 219 428 212 423 203 419 b 186 409 167 397 147 385 b 109 360 72 334 58 325 b 46 318 47 306 62 312 b 76 318 115 333 155 343 b 165 346 175 349 184 351 b 194 353 203 356 212 357 b 229 361 242 364 249 364 b 279 368 307 373 335 379 b 358 383 380 387 403 390 b 398 373 394 356 390 338 b 368 332 345 324 324 315 b 311 309 298 303 285 297 b 272 290 260 283 248 276 b 241 271 228 263 213 253 b 206 248 197 243 189 237 b 185 234 180 231 176 228 b 172 225 167 222 163 219 b 128 195 93 170 80 161 b 69 155 70 143 84 149 b 97 154 134 167 172 178 b 209 189 247 198 261 200 b 274 203 288 205 301 209 b 314 212 328 215 341 219 b 352 221 362 224 373 227 b 373 224 372 221 372 219 b 371 210 371 200 370 191 b 370 182 369 173 369 164 b 369 154 369 145 369 136 b 369 127 369 118 370 109 b 371 87 374 32 381 -23 b 385 -51 389 -78 394 -100 b 398 -123 403 -141 405 -152 b 409 -168 420 -171 418 -152 b 418 -143 417 -126 417 -105 b 418 -84 419 -59 422 -34 b 428 15 438 65 442 82 b 447 100 451 117 454 134 b 456 143 458 152 460 161 b 462 169 463 178 465 187 b 470 209 474 231 479 253 b 486 255 492 257 499 258 b 538 268 578 279 618 289 b 614 267 611 245 608 222 b 604 185 600 147 600 110 b 600 88 600 30 603 -27 b 604 -56 606 -84 609 -108 b 612 -132 614 -151 616 -162 b 617 -179 629 -184 629 -163 b 629 -154 630 -136 632 -115 b 634 -93 638 -67 643 -42 b 652 10 665 60 671 78 b 682 114 691 150 700 187 b 709 228 719 270 728 312 b 733 312 739 313 745 314 b 772 316 799 316 825 309 b 834 306 844 315 832 323 b 819 330 806 335 792 340 b 779 345 765 348 750 351 b 746 352 741 353 737 354 b 741 372 744 389 748 407 b 750 417 752 428 754 439 b 760 439 766 439 772 439 b 801 438 830 433 857 422 b 867 418 878 427 865 436 z m 379 274 b 368 271 357 268 347 265 b 336 262 326 258 316 255 b 278 243 252 234 248 232 b 248 232 253 235 262 238 b 271 242 285 247 301 253 b 322 261 350 271 380 280 b 379 278 379 276 379 274 z m 383 299 b 368 295 354 292 342 288 b 330 285 319 282 312 280 b 305 277 300 276 300 276 b 305 279 316 283 330 288 b 344 294 363 301 384 308 b 384 305 383 302 383 299 z m 710 542 l 727 572 l 717 539 b 717 539 715 533 712 523 b 710 516 707 506 704 495 b 700 496 697 497 693 497 b 693 497 693 497 692 497 b 698 516 705 531 710 542 z m 664 389 b 667 404 671 419 674 433 b 677 433 680 434 683 434 b 685 434 687 434 688 435 b 682 412 676 388 670 363 l 665 363 b 663 364 661 364 659 364 b 661 372 662 381 664 389 z m 639 459 b 630 459 621 459 611 458 b 585 457 554 456 521 452 b 522 455 523 458 523 460 b 543 462 561 464 579 464 b 611 465 639 464 658 462 b 658 461 658 460 657 459 b 652 459 646 459 639 459 z m 655 324 b 655 324 653 324 651 323 b 651 324 651 324 651 324 b 653 324 654 324 655 324 z m 519 441 b 519 442 519 443 520 444 b 526 444 530 444 532 444 b 533 443 528 442 519 441 z m 543 488 b 554 488 564 488 573 487 b 578 487 582 487 586 486 b 589 486 593 485 596 485 l 623 478 l 596 477 b 595 477 590 477 582 477 b 574 477 562 476 548 475 b 541 475 534 474 526 474 b 527 478 528 483 529 487 b 533 487 538 488 543 488 z m 498 538 b 502 550 506 561 510 570 b 518 590 525 605 530 614 b 530 614 529 612 528 609 b 527 605 525 600 523 593 b 521 586 518 578 515 568 b 511 559 508 548 504 536 b 501 527 498 518 495 508 b 493 508 490 507 488 507 b 489 512 491 516 492 520 b 494 527 496 533 498 538 z m 497 337 b 530 343 559 345 575 343 b 584 342 592 340 601 338 b 593 337 584 337 576 336 b 575 336 571 335 563 334 b 559 333 554 333 549 332 b 546 332 544 332 541 331 b 538 331 534 330 531 330 b 525 329 518 327 510 326 b 506 326 502 325 499 324 b 497 324 495 324 494 324 b 495 328 496 333 497 337 z m 488 483 b 487 479 486 475 484 470 b 482 470 479 470 476 469 b 477 474 479 478 480 482 b 483 483 485 483 488 483 z m 473 528 l 490 556 l 480 525 b 480 525 478 519 475 509 b 475 508 474 507 474 506 b 470 506 466 505 462 505 b 466 514 470 522 473 528 z m 467 437 b 468 438 470 438 471 438 b 472 438 474 438 476 439 b 475 437 475 436 475 435 b 472 434 469 434 466 433 b 467 435 467 436 467 437 z m 452 478 b 457 479 461 480 466 480 b 465 477 464 473 463 470 b 463 469 462 468 462 468 b 458 467 453 467 448 466 b 450 470 451 474 452 478 z m 466 401 b 462 387 459 374 456 360 b 455 358 455 356 454 354 b 452 353 449 353 447 352 b 450 368 454 384 458 399 b 460 400 463 400 466 401 z m 444 450 b 448 451 453 451 458 452 b 457 450 456 447 456 445 b 451 444 446 443 441 443 b 442 445 443 447 444 450 z m 439 432 b 443 433 448 434 453 435 b 452 434 452 432 452 431 b 447 430 442 430 438 429 b 438 430 438 431 439 432 z m 443 397 b 441 392 440 387 439 381 b 436 371 433 360 431 349 b 427 348 423 347 419 346 b 421 358 423 370 426 381 b 427 386 428 390 429 395 b 434 396 438 396 443 397 z m 409 289 b 412 290 415 290 417 291 b 417 289 416 286 416 284 b 413 283 410 283 408 282 b 408 284 408 286 409 289 z m 413 427 b 413 426 413 426 412 425 b 411 425 410 425 409 424 b 401 423 401 424 413 427 z m 412 306 b 412 310 413 313 413 317 b 417 318 420 319 424 320 b 423 318 423 317 423 315 b 422 313 422 311 421 309 b 418 308 415 307 412 306 z m 330 449 b 334 450 339 451 343 453 b 348 454 353 456 358 457 b 369 460 380 463 392 466 b 404 468 415 471 428 473 b 426 470 425 466 424 463 b 413 461 401 459 391 457 b 373 454 357 451 343 449 b 330 446 318 443 310 441 b 306 440 303 440 301 439 b 299 439 298 438 298 438 b 303 441 315 445 330 449 z m 313 417 b 271 407 243 398 239 397 b 239 397 244 399 254 402 b 259 404 265 406 272 408 b 279 410 287 413 296 415 b 328 425 372 436 419 445 b 418 443 417 441 416 438 b 378 432 342 424 313 417 z m 404 226 b 401 209 399 195 397 186 b 396 176 395 170 395 170 b 395 174 395 179 396 186 b 396 193 397 202 399 211 b 399 218 400 226 401 234 b 403 234 404 235 406 235 b 406 232 405 229 404 226 z m 406 268 b 406 269 406 270 406 270 b 407 271 409 271 412 272 b 412 272 412 273 414 273 b 413 272 413 271 413 270 b 411 270 408 269 407 269 b 406 269 406 269 406 268 z m 421 178 b 413 126 409 90 408 85 b 408 85 409 92 410 105 b 411 118 412 136 415 158 b 418 182 421 210 426 240 b 428 241 430 241 431 242 b 427 219 424 197 421 178 z m 438 276 b 436 276 434 275 432 275 b 432 276 432 277 432 278 b 434 279 436 279 439 280 b 438 279 438 278 438 276 z m 441 290 b 439 290 436 289 434 289 b 435 291 435 294 436 296 b 438 297 440 297 442 298 b 442 295 441 293 441 290 z m 446 314 b 443 314 441 313 439 313 b 439 316 440 320 441 323 b 441 324 441 324 441 325 b 444 325 446 326 448 327 b 447 322 447 318 446 314 z m 454 293 b 454 293 454 293 454 293 b 453 293 453 293 452 293 b 453 295 453 297 453 299 b 453 299 453 300 453 301 b 454 301 455 301 456 301 b 455 298 455 296 454 293 z m 459 317 b 458 317 457 317 456 316 b 456 318 457 319 457 321 b 458 323 458 326 459 329 b 460 330 461 330 462 330 b 461 326 460 321 459 317 z m 468 356 b 467 356 465 356 464 355 b 465 359 466 363 467 367 b 469 379 472 391 475 402 b 476 402 477 403 478 403 b 475 389 472 372 468 356 z m 478 448 b 475 447 473 447 470 447 b 471 449 471 452 472 454 b 475 455 478 455 480 455 b 480 453 479 450 478 448 z m 486 436 b 485 436 485 436 484 436 b 485 438 485 439 486 439 b 486 440 486 439 486 436 z m 486 288 b 486 289 487 291 487 292 b 492 293 496 294 500 295 b 510 297 518 297 519 297 b 521 296 506 293 486 288 z m 624 321 b 615 320 604 319 592 318 b 563 314 527 309 489 301 b 490 304 490 306 491 309 b 515 314 539 318 561 321 b 586 324 607 326 625 326 b 624 324 624 323 624 321 z m 502 361 b 505 373 507 385 510 396 b 510 400 511 404 512 408 b 557 415 603 423 649 430 b 643 408 638 387 633 366 b 589 368 545 367 502 361 z m 629 172 b 629 179 631 194 634 214 b 637 236 641 265 647 296 b 650 297 652 297 655 298 b 650 273 645 249 640 229 b 633 195 629 172 629 172 z m 655 179 b 645 126 638 88 637 83 b 637 83 641 113 648 158 b 655 197 663 248 673 302 b 676 302 678 303 680 303 b 670 258 662 215 655 179 z m 691 305 b 691 305 691 305 691 305 b 692 306 693 306 694 306 b 689 287 687 281 691 305 z m 694 368 b 694 365 693 363 692 360 l 685 361 b 691 386 696 412 702 436 b 705 436 708 437 710 437 b 705 415 699 391 694 368 z m 705 359 l 701 359 b 702 365 704 370 705 375 b 708 393 713 411 716 425 b 717 430 718 434 719 438 b 720 438 721 438 722 438 b 718 420 711 389 705 359 z m 751 585 b 748 575 744 564 741 552 b 736 534 730 513 724 491 b 722 492 719 492 717 493 b 719 500 721 508 723 515 b 731 542 739 567 746 587 b 750 597 753 607 757 614 b 760 622 763 628 766 633 b 766 633 763 625 759 611 b 756 604 754 595 751 585 z"},",":{"x_min":0,"x_max":213,"ha":213,"o":"m 163 116 b 164 119 153 125 149 122 b 122 101 87 84 69 60 b 60 48 52 34 51 18 b 50 10 50 2 52 -7 b 55 -18 66 -64 65 -74 b 65 -78 75 -84 77 -81 b 81 -74 109 -49 118 -44 b 126 -39 131 -34 136 -27 b 146 -15 154 -1 158 14 b 168 44 158 84 163 116 z m 73 -3 b 73 -1 73 2 75 6 b 79 23 88 61 106 66 l 116 69 l 112 63 b 112 62 102 46 93 30 b 83 13 73 -3 73 -3 z m 118 7 b 118 7 127 35 131 35 b 135 35 115 -9 118 7 z m 114 23 b 102 -2 88 -27 87 -29 b 87 -29 94 -6 105 19 b 115 43 128 69 139 73 b 139 73 127 48 114 23 z"}}}
